<svg id="Layer_1" data-name="Layer 1" xmlns="http://www.w3.org/2000/svg" viewBox="0 0 450.59 166.67"><defs><style>.cls-1{fill:#fff;}</style></defs><path class="cls-1" d="M35.51,231.17c-2.28,1.36-4.55,2.77-6.88,4.25a78.1,78.1,0,0,1-.66-7.91c2.28-.95,4.59-1.82,7-2.61a1.86,1.86,0,0,1,.31-.1,152.35,152.35,0,0,1,25.3-5.75A162.33,162.33,0,0,0,35.51,231.17Z" transform="translate(-24.7 -166.67)"/><path class="cls-1" d="M32.05,252c-1.08-3.45-2-6.91-2.75-10.38,2-1.42,4.21-2.87,6.6-4.31a100,100,0,0,1,37.38-13.45c-16.47,7-27,14-35.4,22C35.82,247.85,33.9,249.88,32.05,252Z" transform="translate(-24.7 -166.67)"/><path class="cls-1" d="M83.9,321.85h0c1.47,3.42,3.18,7,5.16,10.7.13.26.28.51.41.77-.5-.22-1-.46-1.48-.71a45.6,45.6,0,0,1-5.53-3.23h0a55.86,55.86,0,0,1-18.61-21.6,51,51,0,0,1-5.11-17.52c-1.89-19.34,8.92-38.24,40-42.54C98.77,247.72,60.44,267.11,83.9,321.85Z" transform="translate(-24.7 -166.67)"/><path class="cls-1" d="M90.43,216.16a14.61,14.61,0,0,0-6.08-.73c3.61-.45,5.63-.63,7.68.4,3,1.51,4.64,3.5,8.21,3.93C95.48,221.26,90.16,221.1,90.43,216.16Z" transform="translate(-24.7 -166.67)"/><path class="cls-1" d="M148.59,227c0,10.86-2.77,21.93-7,32.61-6.3,15.85-15.94,30.89-25.14,43.24-.08.13-.18.24-.26.37A300,300,0,0,1,96.32,327c-.58-.87-1.82-2.81-3.3-5.57A290.9,290.9,0,0,0,112,298.5c2.76-3.75,5.58-7.75,8.32-11.94a169.62,169.62,0,0,0,15.54-29.26c4.06-10.15,6.58-20.5,6.57-30.3a54.14,54.14,0,0,0-106-15.35,51.91,51.91,0,0,1,28.43-7.07c-8.53-2.2-16.48-2.28-22.25-.82,6.83-4.41,19.47-5.94,30-3.91A30.31,30.31,0,0,0,64.65,196c20.71.4,40.57,9.06,45.12,20.91,18.41,5.93,23.58,13.21,14.57,31.18,1.88-7.06-8.52-11.18-17.75-10a83.86,83.86,0,0,0-11.83,2.43l.12,0s-.58.12-1.62.39l-.11,0L93,241H93l0,0a4.61,4.61,0,0,0-.46.13c-3.65,1.09-7.27,2.39-10.79,3.8l-.12,0-.21.08,0,0c-11.35,5-26.42,14.62-31,31.84h0A40.79,40.79,0,0,0,49,286.71c-3.22-5.14-6.31-10.52-9.09-16.06-1.77-3.57-3.43-7.2-4.89-10.88l0,0c1.54-1.67,3.12-3.33,4.75-4.92,8.75-8.6,18.83-15.85,29.68-19.31,2.73-.88,16.82-4.53,18-4.58-1.29.52-5.54,2.36-7.31,3.33a82.36,82.36,0,0,0-14.36,9.5l.18-.07.21-.07h0c2.62-1,14.17-6.5,22.09-7.79,5.75-.93,21.56-3.41,30.72.19-4.68-2.71-10.07-3.53-15.85-4.26,8,.4,18,0,21.68,8.23,3.49-11.72-5-15.81-16.31-18.61-.32,2.26-.62,4.52-.93,6.76-.87-7.74-2.65-13.41-6-15.61-.88-.58-1.6-1.08-2.23-1.51a48.61,48.61,0,0,0-9.56-4.09l-.13,0v0a62.26,62.26,0,0,0-21.29-2.49c2.59.69,13.85,2.93,15.32,4l-.32-.05-.48-.06c-.12,0-.23-.05-.34-.05l-.37,0-.55,0c-5.12-.46-19.78-3-37.38,3.74a68,68,0,0,0-9.05,4.21s-.1.05-.15.09c-2,1.12-4.57,2.53-6.77,4l-.68.47c-.94.67-1.94,1.38-2.93,2.1a29,29,0,0,1,2.95-3.86c.32-.37.65-.72,1-1.08A60.32,60.32,0,0,1,148.59,227Z" transform="translate(-24.7 -166.67)"/><path class="cls-1" d="M265.72,275.15V248.82c0-8.68-4.25-11.8-11.52-11.8-5.28,0-12,1.51-18.78,3.21a18.39,18.39,0,0,1,.76,5.76v29.16H222.87V248.82c0-8.68-4.15-11.8-11.42-11.8-5.47,0-12.27,1.51-18.12,3v35.11H180V227.49h10.85l.47,3c8-2.17,16.89-4.34,24.35-4.34,4.43,0,9.15.57,13,3.12a11.81,11.81,0,0,1,2.64,2c10-2.74,19.35-5.1,27.09-5.1,5.57,0,11.32.85,15.57,4.91,3.49,3.4,4.91,8.11,4.91,14.91v29.16Z" transform="translate(-24.7 -166.67)"/><path class="cls-1" d="M330.45,275.15l-.38-2.83c-8.12,2-17.55,4.15-25.86,4.15-5.09,0-10.57-.66-14.44-3.49-3.58-2.55-5.28-6.7-5.28-11.51,0-5.38,2.36-10.38,8-12.93,5-2.36,11.7-2.55,17.84-2.55,5,0,11.7.28,17.27.66v-.85c0-7.45-4.91-9.91-18.31-9.91-5.19,0-11.52.28-17.56.85v-9.62c6.7-.57,14.25-1,20.48-1,8.31,0,16.9.66,22.18,4.44,5.47,3.87,6.51,9.24,6.51,16.32v28.22Zm-2.83-20c-5.57-.47-11.23-.75-17.18-.75-9.72,0-13.12,2-13.12,6.42,0,4.15,2.83,6.41,10.29,6.41,6.23,0,13.68-1.41,20-2.83Z" transform="translate(-24.7 -166.67)"/><path class="cls-1" d="M347.33,292.61V227.49h10.86l.47,3c7.55-2,17.36-4.34,25.2-4.34,5.85,0,12.08,1,17,5,5.67,4.63,7.46,12.18,7.46,20.1,0,9.35-3.4,16.8-10.57,21-5.85,3.31-13.12,4.25-20.2,4.25a68.34,68.34,0,0,1-16.89-2.17v18.31Zm33-55.59c-5.94,0-13.11,1.51-19.72,3v23.88a46.74,46.74,0,0,0,15.19,2.45c13.31,0,18.79-4.53,18.79-14.81S389.42,237,380.36,237Z" transform="translate(-24.7 -166.67)"/><path class="cls-1" d="M419.52,215v-7.65h7.84V215Zm7.27,60.11H419.9V227.49h7v47.66Z" transform="translate(-24.7 -166.67)"/><path class="cls-1" d="M463.4,276.47c-7.73,0-13.3-2.83-15.47-8.59-1.51-3.77-2-8-2-13.59V233.44H434.71v-5.95H446l1-14.44h5.95v14.44h20.86v5.95H452.93v19.82c0,4.24.19,8.11,1.23,11,1.51,4.53,5.85,6,10.47,6a71.25,71.25,0,0,0,10.67-.95v5.95A94.77,94.77,0,0,1,463.4,276.47Z" transform="translate(-24.7 -166.67)"/></svg>