<svg id="Layer_1" data-name="Layer 1" xmlns="http://www.w3.org/2000/svg" viewBox="0 0 1074.45 425.19"><defs><style>.cls-1{fill:#606060;}.cls-2{fill:#383838;}</style></defs><path class="cls-1" d="M42.62,170.71c-5.82,3.47-11.62,7.07-17.55,10.84a196.15,196.15,0,0,1-1.68-20.16c5.8-2.43,11.69-4.65,17.75-6.68a5.94,5.94,0,0,1,.78-.26c20.1-6.64,41.61-11.22,64.55-14.66A413.31,413.31,0,0,0,42.62,170.71Z" transform="translate(-15.05 -6.15)"/><path class="cls-1" d="M33.79,223.83c-2.76-8.81-5.12-17.62-7-26.48,5.11-3.63,10.73-7.33,16.82-11A255,255,0,0,1,139,152C97,169.9,70,187.81,48.66,208.26,43.41,213.27,38.5,218.45,33.79,223.83Z" transform="translate(-15.05 -6.15)"/><path class="cls-2" d="M166.08,402l0,0c3.74,8.74,8.1,17.84,13.15,27.31.34.65.71,1.31,1.06,2-1.29-.57-2.54-1.17-3.79-1.83a113.56,113.56,0,0,1-14.1-8.24,0,0,0,0,1,0,0,142.43,142.43,0,0,1-47.48-55.1,129.88,129.88,0,0,1-13-44.68C97.06,272.11,124.65,223.9,204,212.93,204,212.93,106.22,262.39,166.08,402Z" transform="translate(-15.05 -6.15)"/><path class="cls-2" d="M182.72,132.41c-4.45-1.83-10.37-2.16-15.51-1.84,9.23-1.16,14.36-1.62,19.6,1,7.71,3.86,11.85,8.93,20.95,10C195.62,145.43,182,145,182.72,132.41Z" transform="translate(-15.05 -6.15)"/><path class="cls-2" d="M331.11,160.07c-.05,27.71-7.06,56-17.95,83.18C297.11,283.7,272.52,322.08,249,353.57c-.2.33-.44.62-.66.94a758.37,758.37,0,0,1-50.61,60.6c-1.48-2.21-4.65-7.17-8.42-14.2a750.15,750.15,0,0,0,48.28-58.42c7.06-9.57,14.25-19.79,21.24-30.47,15.14-23.24,29.3-48.69,39.66-74.63s16.78-52.31,16.74-77.32A138.13,138.13,0,0,0,44.7,120.91c19.46-11.91,46-19.14,72.55-18-21.76-5.62-42-5.83-56.78-2.09,17.44-11.25,49.68-15.16,76.45-10-3.71-2.79-13.39-8-20-9.85,52.84,1,103.5,23.11,115.12,53.34,47,15.14,60.14,33.7,37.16,79.55,4.8-18-21.72-28.53-45.28-25.57a217.14,217.14,0,0,0-30.18,6.2l.31.11s-1.49.3-4.15,1l-.26.07-.3.09a.23.23,0,0,0-.12,0h0a1.05,1.05,0,0,0-.11.07,12,12,0,0,0-1.16.32c-9.31,2.8-18.55,6.12-27.54,9.7a1.45,1.45,0,0,0-.31.11l-.52.21-.1,0c-29,12.66-67.41,37.29-79,81.23v0A104.69,104.69,0,0,0,77,312.4c-8.21-13.1-16.08-26.82-23.17-41-4.53-9.1-8.75-18.38-12.5-27.77l0-.11c3.92-4.27,8-8.5,12.12-12.55,22.31-21.95,48.05-40.43,75.72-49.27,7-2.25,42.91-11.57,46-11.68-3.29,1.32-14.13,6-18.65,8.51-12.45,6.76-26.27,15.14-36.63,24.21l.45-.16a3.92,3.92,0,0,1,.55-.18v0h0c6.69-2.55,36.17-16.58,56.37-19.87,14.66-2.38,55-8.7,78.38.49-12-6.94-25.7-9-40.45-10.88,20.29,1,45.91.09,55.3,21,8.92-29.89-12.68-40.32-41.58-47.47-.82,5.76-1.61,11.54-2.38,17.24-2.22-19.74-6.77-34.2-15.28-39.82-2.25-1.48-4.1-2.75-5.7-3.85a121.74,121.74,0,0,0-24.38-10.43c-.09,0-.21,0-.34-.09v0c-15.68-4.85-33.87-7.31-54.32-6.36,6.62,1.76,35.35,7.47,39.09,10.22l-.82-.13c-.34,0-.75-.07-1.23-.16a6.35,6.35,0,0,0-.86-.12,7.78,7.78,0,0,1-.94-.08c-.46-.05-.95-.09-1.41-.12-13-1.2-50.45-7.64-95.37,9.52a175,175,0,0,0-23.07,10.75c-.13.09-.25.13-.38.22-5.17,2.87-11.66,6.47-17.28,10.22-.57.41-1.14.82-1.73,1.19-2.41,1.71-5,3.53-7.47,5.37a72.14,72.14,0,0,1,7.52-9.85c.82-.94,1.65-1.85,2.54-2.76a153.9,153.9,0,0,1,306,23.49Z" transform="translate(-15.05 -6.15)"/><path class="cls-2" d="M595.32,374.8V312.71c0-20.47-10-27.81-27.15-27.81-12.46,0-28.26,3.56-44.28,7.56A43.5,43.5,0,0,1,525.67,306V374.8H494.29V312.71c0-20.47-9.79-27.81-26.92-27.81-12.91,0-28.93,3.56-42.73,7.12V374.8H393.27V262.42h25.59l1.11,7.12c18.91-5.12,39.83-10.23,57.41-10.23,10.46,0,21.59,1.33,30.71,7.34a28.51,28.51,0,0,1,6.23,4.67c23.59-6.45,45.62-12,63.87-12,13.13,0,26.7,2,36.72,11.57,8.23,8,11.57,19.14,11.57,35.16V374.8Z" transform="translate(-15.05 -6.15)"/><path class="cls-2" d="M748,374.8l-.89-6.68c-19.14,4.68-41.39,9.79-61,9.79-12,0-24.92-1.55-34-8.23-8.46-6-12.47-15.8-12.47-27.15,0-12.68,5.57-24.48,18.92-30.48,11.79-5.57,27.59-6,42.06-6,11.79,0,27.59.67,40.72,1.55v-2c0-17.58-11.57-23.36-43.17-23.36-12.24,0-27.15.67-41.39,2v-22.7c15.8-1.33,33.6-2.22,48.29-2.22,19.58,0,39.83,1.55,52.29,10.46,12.91,9.12,15.36,21.8,15.36,38.49V374.8Zm-6.68-47.18c-13.13-1.11-26.48-1.78-40.5-1.78-22.92,0-30.93,4.68-30.93,15.14,0,9.79,6.67,15.13,24.25,15.13,14.69,0,32.27-3.34,47.18-6.68Z" transform="translate(-15.05 -6.15)"/><path class="cls-2" d="M787.78,416V262.42h25.59l1.11,7.12c17.8-4.67,40.95-10.23,59.42-10.23,13.79,0,28.48,2.44,40.05,11.79,13.35,10.9,17.58,28.71,17.58,47.4,0,22-8,39.61-24.92,49.4-13.8,7.79-30.94,10-47.63,10a162,162,0,0,1-39.83-5.11V416ZM865.66,284.9c-14,0-30.93,3.56-46.51,7.12v56.3A110,110,0,0,0,855,354.1c31.38,0,44.28-10.68,44.28-34.93C899.26,294.69,887,284.9,865.66,284.9Z" transform="translate(-15.05 -6.15)"/><path class="cls-1" d="M958,233.05V215h18.47v18ZM975.13,374.8H958.89V262.42h16.46V374.8Z" transform="translate(-15.05 -6.15)"/><path class="cls-1" d="M1061.47,377.91c-18.25,0-31.38-6.67-36.5-20.25-3.56-8.9-4.67-18.91-4.67-32V276.44H993.82v-14h26.48l2.45-34h14v34H1086v14h-49.18v46.73c0,10,.44,19.14,2.89,26,3.56,10.68,13.8,14.24,24.7,14.24a171,171,0,0,0,25.15-2.22v14C1081.27,376.36,1070.59,377.91,1061.47,377.91Z" transform="translate(-15.05 -6.15)"/><rect class="cls-1" x="452.24" y="58" width="26.52" height="24.68"/><rect class="cls-1" x="489.61" y="58" width="26.52" height="24.68"/><polygon class="cls-2" points="539.26 198.5 596.38 187.7 596.38 201.01 539.26 211.94 539.26 198.5"/><rect class="cls-1" x="620.23" y="188.55" width="26.52" height="24.68"/><path class="cls-2" d="M704.58,84v45.76c0,.46,0,.92,0,1.36v.21c0,.53,0,1-.07,1.57,0,.23,0,.48,0,.71,0,.41,0,.83-.07,1.22a2.27,2.27,0,0,1,0,.46,70.49,70.49,0,0,1-.85,8.55v0c-1.52,9-4.84,16-10.37,21.5l0,0-.37.37c-6.45,6.15-14.38,9.24-22.69,10.67-.67.11-1.34.23-2,.32s-1.11.16-1.64.23c-1.1.12-2.21.25-3.31.32a.34.34,0,0,0-.17,0c-1.19.09-2.37.16-3.54.2-1.39,0-2.79.07-4.15.07h-.09c-1.11,0-2.28,0-3.48-.07s-2.49-.11-3.78-.2h-.14l-1.68-.14-1.73-.14c-.42,0-.86-.11-1.29-.16-1.48-.15-3-.34-4.51-.55-.67-.07-1.32-.16-2-.26a304.31,304.31,0,0,1-32.78-7,3.34,3.34,0,0,0-.39-.09c-.17-.05-.3-.12-.51-.19s-.39-.11-.6-.18c-2.33-.69-6.22-1.94-10.58-3.53-11.24,5.07-24.44,8.07-35.59,9.86-.51.1-1,.17-1.52.23-42.81,6.94-90.87,9.93-108.64,9.93a56.93,56.93,0,0,1-38.22-15.34c-8.46-8.18-14.42-18.32-14.42-40.92V103.26h31.86v31.81c0,21,10.32,30.53,27.86,29.73,29-1.32,70.15-7.77,99.94-13.39l1.5-.41c8.2-2.26,12.17-6.55,14.66-10.12a1.1,1.1,0,0,1,.09-.14,3.13,3.13,0,0,0,.2-.3,34.12,34.12,0,0,0,5.12-11.79l.21-1a49.44,49.44,0,0,0,.64-8.32V101.57h31.89v24.57a72.07,72.07,0,0,1-2.17,19c11.39,2.81,23.83,5.41,34.7,6.08,1.75.09,3.53.16,5.19.16s3.18,0,4.65-.18a35.38,35.38,0,0,0,4.31-.65,27.36,27.36,0,0,0,6.17-2c8-3.82,12.33-11.79,12.33-25.59V84Z" transform="translate(-15.05 -6.15)"/><path class="cls-2" d="M918,109.73A35.93,35.93,0,0,0,904.3,92.87v0c-11.46-7.56-25.74-9.56-42.93-9.56s-31.77,2-43.08,9.54c0,0,0,0,0,0a36.31,36.31,0,0,0-13.8,16.84c-2.76,6.73-3.85,14.31-3.85,22.33a63.66,63.66,0,0,0,2.12,17.12A119.72,119.72,0,0,1,782,151.41c-17.54,0-27.76-7.51-27.76-28.45V21.53H722.37V129.78c0,16.38,3.41,27.78,11.82,36,10.25,9.79,24.15,11.84,37.58,11.84s29-3,45.66-7.12a10.09,10.09,0,0,0,.83.6,0,0,0,0,1,0,0c11.31,7.55,25.76,9.53,43.08,9.53a122,122,0,0,0,23.53-1.88,52.25,52.25,0,0,0,19.42-7.68A36.25,36.25,0,0,0,918,154.2c2.74-6.73,3.85-14.29,3.85-22.3S920.75,116.44,918,109.73Zm-84.12,10.53a15,15,0,0,1,3.29-5.35,19.17,19.17,0,0,1,8.92-4.93,57.44,57.44,0,0,1,15.25-1.65,52.4,52.4,0,0,1,13.71,1.49c5.58,1.52,9.08,3.94,11.45,7.47s3.66,8.57,3.66,15.46a31.84,31.84,0,0,1-1.65,11.1,15,15,0,0,1-3.25,5.28,18.66,18.66,0,0,1-8.8,4.86,57.22,57.22,0,0,1-15.12,1.64,55.94,55.94,0,0,1-13.85-1.48c-5.64-1.5-9.21-3.89-11.61-7.39s-3.71-8.51-3.71-15.37A31.09,31.09,0,0,1,833.91,120.26Z" transform="translate(-15.05 -6.15)"/></svg>