<svg id="Layer_1" data-name="Layer 1" xmlns="http://www.w3.org/2000/svg" viewBox="0 0 769.21 304.4"><defs><style>.cls-1{fill:#fff;}</style></defs><path class="cls-1" d="M275.52,477.62c-4.17,2.48-8.31,5.06-12.56,7.76a137.79,137.79,0,0,1-1.2-14.44c4.15-1.73,8.37-3.33,12.7-4.78A4,4,0,0,1,275,466c14.39-4.76,29.79-8,46.21-10.5A295.71,295.71,0,0,0,275.52,477.62Z" transform="translate(-255.79 -359.81)"/><path class="cls-1" d="M269.2,515.65c-2-6.31-3.67-12.62-5-19,3.66-2.6,7.68-5.25,12-7.87a182.55,182.55,0,0,1,68.27-24.57c-30.07,12.79-49.36,25.61-64.66,40.25C276.09,508.09,272.57,511.8,269.2,515.65Z" transform="translate(-255.79 -359.81)"/><path class="cls-1" d="M363.91,643.23l0,0c2.68,6.26,5.8,12.77,9.42,19.56.24.46.5.93.75,1.4-.92-.41-1.81-.83-2.71-1.31a80.41,80.41,0,0,1-10.1-5.9s0,0,0,0a101.78,101.78,0,0,1-34-39.44,92.82,92.82,0,0,1-9.34-32c-3.46-35.34,16.3-69.85,73.11-77.7C391.06,507.85,321.05,543.25,363.91,643.23Z" transform="translate(-255.79 -359.81)"/><path class="cls-1" d="M375.82,450.2c-3.19-1.31-7.42-1.54-11.1-1.32,6.61-.83,10.28-1.16,14,.72,5.52,2.76,8.48,6.39,15,7.18C385.06,459.52,375.33,459.23,375.82,450.2Z" transform="translate(-255.79 -359.81)"/><path class="cls-1" d="M482.06,470c0,19.84-5.06,40.06-12.85,59.55-11.5,29-29.1,56.43-45.91,79-.15.24-.32.44-.48.68a544.35,544.35,0,0,1-36.23,43.38c-1.06-1.59-3.33-5.14-6-10.17a536.9,536.9,0,0,0,34.57-41.82c5.05-6.85,10.2-14.17,15.2-21.82,10.84-16.63,21-34.85,28.39-53.43s12-37.44,12-55.35A98.89,98.89,0,0,0,277,442c13.93-8.52,32.95-13.69,51.94-12.9-15.58-4-30.1-4.18-40.65-1.5,12.49-8.05,35.57-10.85,54.73-7.15a55.15,55.15,0,0,0-14.29-7c37.83.73,74.1,16.54,82.42,38.18,33.62,10.84,43.06,24.13,26.6,56.95,3.44-12.89-15.55-20.42-32.42-18.3a154.69,154.69,0,0,0-21.6,4.44l.22.08s-1.06.21-3,.71l-.19.05-.21.07h-.12l-.08.05a7.45,7.45,0,0,0-.83.23c-6.67,2-13.28,4.38-19.72,6.94l-.22.08-.37.15-.07,0c-20.74,9.06-48.26,26.69-56.59,58.15v0a74.39,74.39,0,0,0-2.45,17.84c-5.89-9.38-11.52-19.21-16.59-29.34-3.24-6.51-6.27-13.15-8.95-19.87l0-.08c2.81-3.06,5.69-6.09,8.67-9,16-15.71,34.41-28.95,54.22-35.27,5-1.62,30.71-8.28,32.94-8.36-2.35.94-10.11,4.31-13.35,6.09-8.91,4.84-18.81,10.84-26.22,17.33l.32-.11a3,3,0,0,1,.39-.14h0c4.78-1.83,25.89-11.88,40.35-14.23,10.5-1.71,39.39-6.23,56.11.35-8.55-5-18.4-6.46-28.95-7.79,14.52.74,32.86.07,39.59,15,6.38-21.4-9.08-28.87-29.78-34-.58,4.13-1.14,8.26-1.7,12.35-1.59-14.13-4.85-24.49-10.93-28.51-1.61-1.06-2.94-2-4.09-2.76a88.24,88.24,0,0,0-17.45-7.47,1.4,1.4,0,0,1-.24-.06v0a113.36,113.36,0,0,0-38.89-4.56c4.73,1.26,25.3,5.35,28,7.31l-.58-.08c-.24,0-.54-.06-.89-.12a4.08,4.08,0,0,0-.61-.09c-.21,0-.44,0-.68-.05s-.67-.07-1-.09c-9.35-.86-36.12-5.47-68.28,6.82a124.62,124.62,0,0,0-16.52,7.7c-.09.06-.18.08-.27.15-3.7,2.05-8.34,4.63-12.37,7.31-.41.3-.82.59-1.23.86-1.73,1.23-3.56,2.52-5.35,3.84a51.18,51.18,0,0,1,5.38-7c.59-.67,1.18-1.32,1.82-2A110.18,110.18,0,0,1,482.06,470Z" transform="translate(-255.79 -359.81)"/><path class="cls-1" d="M671.21,623.73V579.28c0-14.66-7.17-19.91-19.44-19.91-8.92,0-20.23,2.55-31.7,5.41a31.14,31.14,0,0,1,1.27,9.72v49.23H598.88V579.28c0-14.66-7-19.91-19.28-19.91-9.24,0-20.71,2.55-30.58,5.09v59.27H526.55V543.28h18.32l.8,5.09c13.54-3.66,28.52-7.32,41.1-7.32,7.49,0,15.46,1,22,5.25a20.52,20.52,0,0,1,4.46,3.35c16.89-4.62,32.66-8.6,45.72-8.6,9.4,0,19.12,1.43,26.29,8.28,5.89,5.73,8.28,13.7,8.28,25.17v49.23Z" transform="translate(-255.79 -359.81)"/><path class="cls-1" d="M780.48,623.73l-.64-4.78c-13.7,3.34-29.63,7-43.65,7-8.6,0-17.84-1.12-24.37-5.9-6.06-4.3-8.93-11.31-8.93-19.43,0-9.08,4-17.53,13.55-21.83,8.44-4,19.75-4.3,30.11-4.3,8.44,0,19.75.48,29.15,1.12v-1.44c0-12.58-8.28-16.72-30.91-16.72-8.76,0-19.43.47-29.63,1.43V542.64c11.31-1,24.06-1.59,34.57-1.59,14,0,28.52,1.11,37.44,7.48,9.24,6.53,11,15.62,11,27.56v47.64ZM775.7,590c-9.4-.79-19-1.27-29-1.27-16.41,0-22.15,3.35-22.15,10.83,0,7,4.78,10.84,17.37,10.84,10.51,0,23.1-2.39,33.77-4.78Z" transform="translate(-255.79 -359.81)"/><path class="cls-1" d="M809,653.2V543.28h18.32l.79,5.09c12.75-3.34,29.32-7.32,42.54-7.32,9.88,0,20.39,1.75,28.68,8.44,9.56,7.81,12.58,20.55,12.58,33.93,0,15.77-5.73,28.36-17.84,35.37C884.18,624.37,871.92,626,860,626a115.73,115.73,0,0,1-28.52-3.67V653.2Zm55.76-93.83c-10,0-22.15,2.55-33.3,5.09v40.31a78.69,78.69,0,0,0,25.65,4.14c22.46,0,31.7-7.64,31.7-25S880,559.37,864.75,559.37Z" transform="translate(-255.79 -359.81)"/><path class="cls-1" d="M930.85,522.25V509.34h13.22v12.91Zm12.27,101.48H931.49V543.28h11.79v80.45Z" transform="translate(-255.79 -359.81)"/><path class="cls-1" d="M1004.93,626c-13.07,0-22.47-4.78-26.13-14.5-2.55-6.37-3.35-13.54-3.35-22.94V553.31h-19v-10h19l1.76-24.38h10v24.38h35.21v10H987.24v33.46c0,7.17.32,13.7,2.07,18.64,2.55,7.64,9.88,10.19,17.69,10.19a121.61,121.61,0,0,0,18-1.59v10C1019.1,624.84,1011.46,626,1004.93,626Z" transform="translate(-255.79 -359.81)"/><rect class="cls-1" x="323.76" y="41.53" width="18.99" height="17.67"/><rect class="cls-1" x="350.52" y="41.53" width="18.99" height="17.67"/><polygon class="cls-1" points="386.06 142.11 426.95 134.37 426.95 143.91 386.06 151.73 386.06 142.11"/><rect class="cls-1" x="444.03" y="134.98" width="18.99" height="17.67"/><path class="cls-1" d="M749.43,415.54V448.3c0,.33,0,.66,0,1v.15c0,.38,0,.74,0,1.12,0,.17,0,.35,0,.51s0,.6-.05.88a1.77,1.77,0,0,1,0,.33,49.13,49.13,0,0,1-.61,6.12h0c-1.08,6.43-3.46,11.43-7.42,15.39v0l-.27.26c-4.62,4.41-10.29,6.62-16.25,7.64l-1.45.23c-.39.07-.79.11-1.17.16-.79.09-1.58.19-2.37.24h-.12c-.86.07-1.7.12-2.54.15s-2,.05-3,.05H714c-.8,0-1.64,0-2.5-.05s-1.78-.08-2.7-.15h-.1l-1.2-.1-1.24-.1-.92-.11c-1.07-.11-2.15-.24-3.24-.4-.48-.05-.94-.11-1.42-.18a217.4,217.4,0,0,1-23.47-5l-.28-.07-.36-.13c-.13-.05-.28-.08-.43-.13-1.67-.5-4.45-1.39-7.57-2.53-8.05,3.63-17.5,5.78-25.48,7.06-.37.07-.73.12-1.09.17-30.65,5-65.06,7.11-77.78,7.11a40.76,40.76,0,0,1-27.36-11c-6-5.85-10.33-13.11-10.33-29.29V429.33h22.82v22.78c0,15,7.39,21.85,19.94,21.28,20.73-.94,50.22-5.56,71.55-9.59l1.07-.3a17.54,17.54,0,0,0,10.49-7.24.86.86,0,0,0,.07-.1l.15-.21a24.42,24.42,0,0,0,3.66-8.44l.15-.75a35,35,0,0,0,.46-5.95V428.12h22.83v17.59a51.8,51.8,0,0,1-1.55,13.59c8.15,2,17,3.88,24.84,4.35,1.25.07,2.52.12,3.71.12s2.28,0,3.33-.13a26.35,26.35,0,0,0,3.09-.46,20.26,20.26,0,0,0,4.42-1.42c5.72-2.74,8.82-8.45,8.82-18.33V415.54Z" transform="translate(-255.79 -359.81)"/><path class="cls-1" d="M902.24,434a25.72,25.72,0,0,0-9.84-12.07v0c-8.19-5.41-18.42-6.85-30.72-6.85s-22.75,1.42-30.85,6.83a0,0,0,0,1,0,0,26,26,0,0,0-9.88,12,42,42,0,0,0-2.75,16,45,45,0,0,0,1.52,12.25,84.65,84.65,0,0,1-14.85,1.6c-12.55,0-19.87-5.38-19.87-20.37V370.82H762.16v77.49c0,11.73,2.44,19.9,8.47,25.75,7.34,7,17.28,8.48,26.9,8.48s20.75-2.13,32.69-5.1a6.72,6.72,0,0,0,.59.43,0,0,0,0,1,0,0c8.1,5.41,18.44,6.83,30.85,6.83a86.2,86.2,0,0,0,16.84-1.36,37.21,37.21,0,0,0,13.9-5.49,26.07,26.07,0,0,0,9.77-12.07,47.87,47.87,0,0,0,0-31.84ZM842,441.5a10.9,10.9,0,0,1,2.36-3.83,13.71,13.71,0,0,1,6.39-3.53A41,41,0,0,1,861.68,433a37.51,37.51,0,0,1,9.81,1.07c4,1.09,6.5,2.82,8.2,5.34s2.62,6.14,2.62,11.07a22.61,22.61,0,0,1-1.19,7.95,10.51,10.51,0,0,1-2.32,3.78,13.38,13.38,0,0,1-6.3,3.48,41.18,41.18,0,0,1-10.82,1.17,39.71,39.71,0,0,1-9.92-1.06c-4-1.07-6.6-2.78-8.31-5.29s-2.66-6.09-2.66-11A22.4,22.4,0,0,1,842,441.5Z" transform="translate(-255.79 -359.81)"/></svg>