<svg id="Layer_1" data-name="Layer 1" xmlns="http://www.w3.org/2000/svg" viewBox="0 0 1037.21 410.46"><defs><style>.cls-1{fill:#fab707;}.cls-2{fill:#365b77;}</style></defs><path class="cls-1" d="M148.39,465.64c-5.61,3.35-11.21,6.83-16.93,10.46a185.2,185.2,0,0,1-1.62-19.46c5.59-2.34,11.28-4.49,17.13-6.45a5.5,5.5,0,0,1,.75-.25c19.41-6.41,40.17-10.83,62.31-14.15A399.06,399.06,0,0,0,148.39,465.64Z" transform="translate(-121.79 -306.78)"/><path class="cls-1" d="M139.87,516.92c-2.66-8.51-4.94-17-6.75-25.56,4.93-3.51,10.35-7.08,16.23-10.63a246.3,246.3,0,0,1,92.06-33.12c-40.54,17.25-66.56,34.53-87.18,54.27C149.16,506.72,144.42,511.72,139.87,516.92Z" transform="translate(-121.79 -306.78)"/><path class="cls-2" d="M267.58,689l0,0q5.42,12.64,12.69,26.36c.33.63.69,1.26,1,1.9-1.24-.55-2.44-1.13-3.66-1.76a111.69,111.69,0,0,1-13.61-8s0,0,0,0A137.35,137.35,0,0,1,218.2,654.3a125,125,0,0,1-12.59-43.13c-4.66-47.65,22-94.19,98.58-104.78C304.19,506.39,209.79,554.14,267.58,689Z" transform="translate(-121.79 -306.78)"/><path class="cls-1" d="M283.64,428.66c-4.3-1.76-10-2.08-15-1.78,8.91-1.11,13.87-1.56,18.92,1,7.44,3.72,11.44,8.61,20.22,9.68C296.1,441.24,283,440.84,283.64,428.66Z" transform="translate(-121.79 -306.78)"/><path class="cls-2" d="M426.89,455.36c-.05,26.76-6.81,54-17.33,80.31-15.49,39-39.23,76.09-61.9,106.49-.19.32-.43.6-.64.91a732.94,732.94,0,0,1-48.86,58.5c-1.43-2.14-4.49-6.93-8.12-13.71a725.1,725.1,0,0,0,46.6-56.4c6.82-9.24,13.75-19.1,20.5-29.41,14.62-22.43,28.29-47,38.28-72s16.21-50.49,16.17-74.64a133.34,133.34,0,0,0-261.18-37.8c18.78-11.5,44.43-18.47,70-17.4-21-5.43-40.59-5.63-54.81-2,16.84-10.86,48-14.63,73.8-9.64-3.58-2.69-12.93-7.76-19.27-9.5,51,1,99.92,22.31,111.13,51.48,45.34,14.62,58.06,32.54,35.87,76.8,4.63-17.39-21-27.54-43.71-24.68a209.9,209.9,0,0,0-29.13,6l.3.11s-1.44.29-4,1l-.25.07-.29.09a.25.25,0,0,0-.12,0h0l-.11.06c-.36.07-.72.19-1.12.31-9,2.7-17.9,5.91-26.58,9.37a2.11,2.11,0,0,0-.3.1l-.51.21a.2.2,0,0,0-.09.05c-28,12.21-65.08,36-76.31,78.41v0a100.76,100.76,0,0,0-3.3,24c-7.93-12.65-15.53-25.9-22.37-39.56-4.37-8.78-8.45-17.74-12.06-26.8l0-.11c3.79-4.12,7.68-8.2,11.7-12.12,21.54-21.18,46.39-39,73.1-47.56,6.72-2.17,41.42-11.16,44.42-11.27-3.17,1.27-13.63,5.81-18,8.21-12,6.53-25.36,14.62-35.36,23.38l.43-.16c.2-.06.34-.14.53-.18h0c6.46-2.46,34.91-16,54.41-19.18,14.15-2.3,53.11-8.4,75.66.47-11.53-6.7-24.8-8.71-39-10.5,19.59,1,44.31.08,53.38,20.26,8.61-28.86-12.24-38.93-40.14-45.83-.79,5.56-1.55,11.14-2.29,16.65-2.15-19.06-6.54-33-14.75-38.44-2.18-1.43-4-2.65-5.51-3.72a118.32,118.32,0,0,0-23.54-10.07c-.08,0-.2,0-.32-.09v0c-15.14-4.68-32.69-7.06-52.44-6.15,6.39,1.71,34.12,7.22,37.74,9.87l-.8-.12c-.32,0-.72-.07-1.18-.16a8.3,8.3,0,0,0-.83-.12,7.25,7.25,0,0,1-.91-.07c-.45-.05-.92-.08-1.36-.12-12.6-1.15-48.7-7.37-92.06,9.19a167.77,167.77,0,0,0-22.28,10.39c-.12.08-.24.12-.36.2-5,2.77-11.26,6.25-16.68,9.86-.55.4-1.11.8-1.67,1.16-2.33,1.65-4.79,3.41-7.21,5.18a68.52,68.52,0,0,1,7.26-9.5c.79-.92,1.58-1.79,2.45-2.67a148.56,148.56,0,0,1,295.39,22.67Z" transform="translate(-121.79 -306.78)"/><path class="cls-2" d="M681.94,662.65V602.72c0-19.77-9.66-26.85-26.2-26.85-12,0-27.28,3.43-42.75,7.3a42.07,42.07,0,0,1,1.72,13.1v66.38H584.42V602.72c0-19.77-9.46-26.85-26-26.85-12.45,0-27.92,3.43-41.24,6.87v79.91H486.89V554.17h24.7l1.08,6.87c18.26-4.94,38.45-9.88,55.42-9.88,10.1,0,20.84,1.29,29.64,7.09a27.31,27.31,0,0,1,6,4.51c22.77-6.23,44-11.6,61.65-11.6,12.68,0,25.78,1.94,35.45,11.17,7.94,7.74,11.17,18.48,11.17,33.94v66.38Z" transform="translate(-121.79 -306.78)"/><path class="cls-2" d="M829.29,662.65l-.86-6.44c-18.48,4.51-40,9.45-58.86,9.45-11.6,0-24.06-1.5-32.87-7.95-8.16-5.8-12-15.25-12-26.21,0-12.24,5.37-23.63,18.26-29.43,11.38-5.37,26.64-5.8,40.6-5.8,11.39,0,26.64.65,39.31,1.51v-1.94c0-17-11.17-22.55-41.67-22.55-11.82,0-26.21.64-40,1.93V553.31c15.26-1.29,32.44-2.15,46.62-2.15,18.9,0,38.45,1.51,50.48,10.1,12.46,8.81,14.82,21,14.82,37.16v64.23Zm-6.45-45.54c-12.67-1.07-25.56-1.72-39.09-1.72-22.13,0-29.86,4.51-29.86,14.61,0,9.45,6.44,14.61,23.41,14.61,14.18,0,31.15-3.23,45.54-6.45Z" transform="translate(-121.79 -306.78)"/><path class="cls-2" d="M867.73,702.39V554.17h24.7L893.5,561c17.19-4.51,39.53-9.88,57.36-9.88,13.32,0,27.5,2.36,38.67,11.39,12.89,10.52,17,27.71,17,45.75,0,21.27-7.73,38.24-24.06,47.69-13.32,7.52-29.86,9.67-46,9.67A156.09,156.09,0,0,1,898,660.72v41.67Zm75.18-126.52c-13.53,0-29.86,3.43-44.89,6.87v54.35a106.14,106.14,0,0,0,34.58,5.58c30.29,0,42.75-10.31,42.75-33.72C975.35,585.32,963.54,575.87,942.91,575.87Z" transform="translate(-121.79 -306.78)"/><path class="cls-1" d="M1032.05,525.81v-17.4h17.83v17.4Zm16.54,136.84h-15.68V554.17h15.89V662.65Z" transform="translate(-121.79 -306.78)"/><path class="cls-1" d="M1131.93,665.66c-17.61,0-30.29-6.44-35.23-19.55-3.43-8.59-4.51-18.26-4.51-30.93V567.7h-25.56V554.17h25.56l2.36-32.87h13.54v32.87h47.47V567.7h-47.47v45.11c0,9.67.43,18.48,2.79,25.14,3.44,10.31,13.32,13.75,23.84,13.75a165.09,165.09,0,0,0,24.28-2.15v13.53C1151.05,664.16,1140.74,665.66,1131.93,665.66Z" transform="translate(-121.79 -306.78)"/><rect class="cls-1" x="436.57" y="55.99" width="25.6" height="23.82"/><rect class="cls-1" x="472.64" y="55.99" width="25.6" height="23.82"/><polygon class="cls-2" points="520.57 191.62 575.71 181.19 575.71 194.05 520.57 204.59 520.57 191.62"/><rect class="cls-1" x="598.73" y="182.01" width="25.6" height="23.82"/><path class="cls-2" d="M787.42,381.93V426.1c0,.44,0,.89,0,1.31v.2l-.06,1.51c0,.23,0,.47,0,.69,0,.4,0,.8-.07,1.18a3.24,3.24,0,0,1,0,.45,70,70,0,0,1-.83,8.25v0c-1.46,8.67-4.67,15.41-10,20.75l0,0-.35.36c-6.23,5.94-13.88,8.92-21.91,10.3-.65.11-1.29.22-2,.31s-1.07.15-1.58.22c-1.07.11-2.13.25-3.2.31a.44.44,0,0,0-.16,0c-1.15.09-2.29.16-3.42.2-1.34,0-2.69.07-4,.07h-.09c-1.07,0-2.21,0-3.36-.07s-2.4-.11-3.65-.2h-.13l-1.63-.13-1.67-.13-1.24-.15c-1.43-.15-2.89-.33-4.36-.54-.65-.07-1.27-.16-1.91-.25A292.5,292.5,0,0,1,690.07,464l-.38-.09c-.16,0-.29-.11-.49-.17s-.38-.12-.58-.18c-2.24-.67-6-1.87-10.21-3.41-10.85,4.9-23.6,7.79-34.36,9.52-.49.09-1,.16-1.47.23-41.32,6.69-87.72,9.58-104.87,9.58a55,55,0,0,1-36.9-14.81c-8.16-7.9-13.92-17.68-13.92-39.5V400.52h30.76v30.72c0,20.21,10,29.47,26.89,28.69,28-1.27,67.73-7.5,96.49-12.92l1.44-.41c7.92-2.17,11.74-6.31,14.15-9.76a1,1,0,0,1,.09-.13c.06-.09.13-.2.2-.29A33.09,33.09,0,0,0,661.84,425l.2-1a46.07,46.07,0,0,0,.63-8V398.9h30.78v23.71a69.9,69.9,0,0,1-2.09,18.32c11,2.72,23,5.23,33.49,5.88,1.69.08,3.41.15,5,.15s3.07,0,4.49-.18a33,33,0,0,0,4.16-.62,26.68,26.68,0,0,0,6-1.91c7.72-3.69,11.9-11.39,11.9-24.71V381.93Z" transform="translate(-121.79 -306.78)"/><path class="cls-2" d="M993.46,406.77a34.7,34.7,0,0,0-13.25-16.28v0c-11.06-7.29-24.85-9.23-41.44-9.23s-30.67,1.91-41.59,9.21a0,0,0,0,1,0,0,35,35,0,0,0-13.32,16.26c-2.67,6.5-3.72,13.81-3.72,21.55a60.94,60.94,0,0,0,2,16.53,115.09,115.09,0,0,1-20,2.16c-16.93,0-26.8-7.26-26.8-27.47V321.63H804.59V426.12c0,15.81,3.29,26.82,11.41,34.72,9.9,9.45,23.31,11.43,36.27,11.43s28-2.87,44.09-6.87a8.51,8.51,0,0,0,.8.58,0,0,0,0,1,0,0c10.92,7.29,24.87,9.21,41.59,9.21a117,117,0,0,0,22.71-1.83,50.29,50.29,0,0,0,18.75-7.4A35.09,35.09,0,0,0,993.4,449.7a57.06,57.06,0,0,0,3.71-21.53C997.11,420.52,996.09,413.24,993.46,406.77Zm-81.2,10.16a14.54,14.54,0,0,1,3.18-5.16,18.33,18.33,0,0,1,8.61-4.75,55.36,55.36,0,0,1,14.72-1.61A50.77,50.77,0,0,1,952,406.86c5.38,1.47,8.76,3.8,11,7.21s3.54,8.27,3.54,14.92A30.56,30.56,0,0,1,965,439.71a14.33,14.33,0,0,1-3.13,5.09,18,18,0,0,1-8.5,4.7,55.66,55.66,0,0,1-14.59,1.58,53.82,53.82,0,0,1-13.37-1.43c-5.44-1.44-8.89-3.76-11.21-7.14s-3.58-8.2-3.58-14.83A30.09,30.09,0,0,1,912.26,416.93Z" transform="translate(-121.79 -306.78)"/></svg>