<svg id="Layer_1" data-name="Layer 1" xmlns="http://www.w3.org/2000/svg" viewBox="0 0 182.4 199.29"><defs><style>.cls-1{fill:#6e6e6e;}</style></defs><path id="map-pin-alt" class="cls-1" d="M640.39,612.29c-45.32,0-91.2-13.69-91.2-39.86,0-15.94,17.69-29.09,48.54-36.08a10.49,10.49,0,0,1,9.84,3.18,10.06,10.06,0,0,1,2.12,10,10.32,10.32,0,0,1-7.71,6.8c-23,4.88-32.52,12.92-32.52,16.14,0,5.79,24.86,19.93,70.93,19.93s70.94-14.14,70.94-19.93c0-3.28-9.54-11.26-32.53-15.74a10.32,10.32,0,0,1-7.71-6.8,10.06,10.06,0,0,1,2.13-10,10.49,10.49,0,0,1,7.71-3.38,10.92,10.92,0,0,1,2.13.22c30.85,6.58,48.53,19.59,48.53,35.67C731.59,598.6,685.71,612.29,640.39,612.29Zm0-39.86a10.06,10.06,0,0,1-10.13-10V511.63a49.52,49.52,0,0,1-23.85-85.76,51.29,51.29,0,0,1,68,0,49.52,49.52,0,0,1-23.84,85.76v50.84A10.06,10.06,0,0,1,640.39,572.43Zm0-139.5a30.15,30.15,0,1,0,30.4,29.89A30.18,30.18,0,0,0,640.39,432.93Z" transform="translate(-549.19 -413)"/></svg>