<svg id="Layer_1" data-name="Layer 1" xmlns="http://www.w3.org/2000/svg" viewBox="0 0 222.65 221.55"><defs><style>.cls-1{fill:#fab707;}</style></defs><path id="calling" class="cls-1" d="M715.5,622.79c-.72,0-1.45,0-2.17-.08A211.64,211.64,0,0,1,529.66,439a33.33,33.33,0,0,1,33.06-37.79h33.95a33.37,33.37,0,0,1,33,27.76c.34,2.5.78,4.91,1.35,7.58a114.32,114.32,0,0,0,4.34,14.6,22.26,22.26,0,0,1-11.15,27.64l-4.9,3.12a142.63,142.63,0,0,0,22.29,29.64,138.36,138.36,0,0,0,29.74,22.3l2.45-5a22.29,22.29,0,0,1,27.65-11.15A104.49,104.49,0,0,0,716,522.06c.52.12,1,.24,1.58.39a25.6,25.6,0,0,0,5.89,1,33.45,33.45,0,0,1,27.66,32.42v33.44a33.47,33.47,0,0,1-33.43,33.44C717,622.76,716.23,622.79,715.5,622.79Zm-152.3-199a11.39,11.39,0,0,0-11.15,11.6,11.73,11.73,0,0,0,.1,1.33,189.85,189.85,0,0,0,164,164.73,11.14,11.14,0,0,0,12.69-9.35,10.71,10.71,0,0,0,.13-1.79l-.33-34.77a11.17,11.17,0,0,0-8.7-11.15c-3.26-.48-6.29-1-9-1.68a152,152,0,0,1-17.6-5.12l-7,15.6a11.48,11.48,0,0,1-14.71,5.8,161.86,161.86,0,0,1-78-78,11.24,11.24,0,0,1-.35-8.54A11.09,11.09,0,0,1,599,466.1l15.59-7.25a123.17,123.17,0,0,1-5.12-17.27c-.65-2.88-1.22-5.91-1.68-9a11.2,11.2,0,0,0-10.89-8.8H563.2Zm177.65,55.06A11.15,11.15,0,1,1,752,467.67v0A11.15,11.15,0,0,1,740.85,478.82Zm-33.43,0a11.15,11.15,0,1,1,11.15-11.15v0A11.16,11.16,0,0,1,707.42,478.82Zm-33.44,0a11.15,11.15,0,1,1,11.15-11.14h0A11.16,11.16,0,0,1,674,478.82Z" transform="translate(-529.35 -401.24)"/></svg>