<svg id="Layer_1" data-name="Layer 1" xmlns="http://www.w3.org/2000/svg" viewBox="0 0 240.02 240.02"><defs><style>.cls-1{fill:#fab707;}.cls-2{fill:#fff;}</style></defs><g id="Group_13" data-name="Group 13"><g id="Component_8_1" data-name="Component 8 1"><rect id="Rectangle_21" data-name="Rectangle 21" class="cls-1" x="550.26" y="421.88" width="180.27" height="180.27" rx="18.01" transform="translate(-694.86 210.79) rotate(-45)"/><path id="Path_52" data-name="Path 52" class="cls-2" d="M599.78,520.19h76.4a8.18,8.18,0,0,1,5.79,14l-16.08,16.08a8.18,8.18,0,0,0,0,11.56h0a8.17,8.17,0,0,0,11.57,0l43.66-43.65a8.19,8.19,0,0,0,0-11.57l-44.34-44.34a8.18,8.18,0,1,0-11.57,11.57l16.08,16.07a8.19,8.19,0,0,1-5.78,14H583.42a8.17,8.17,0,0,0-8.17,8.17h0v40.65a8.18,8.18,0,0,0,2,5.32h0a8.18,8.18,0,0,0,14.38-5.32V528.38a8.18,8.18,0,0,1,8.16-8.19Z" transform="translate(-520.38 -392)"/></g></g></svg>