<svg id="Layer_1" data-name="Layer 1" xmlns="http://www.w3.org/2000/svg" viewBox="0 0 193.21 146.65"><defs><style>.cls-1{fill:#fab707;}</style></defs><path id="angle-double-right" class="cls-1" d="M617.37,585.35A18,18,0,0,0,621,585a18.41,18.41,0,0,0,14.44-14.44,18,18,0,0,0,0-7.17,18.61,18.61,0,0,0-2.74-6.6,18.09,18.09,0,0,0-2.29-2.79L588.3,512.14l42-41.86a18.17,18.17,0,0,0,2.29-2.8,18,18,0,0,0,2.72-6.56,18.66,18.66,0,0,0,0-7.22,18.1,18.1,0,0,0-2.72-6.56,18.41,18.41,0,0,0-5.09-5.09,18.07,18.07,0,0,0-6.56-2.74,18.66,18.66,0,0,0-7.22,0,18,18,0,0,0-6.56,2.74,17.67,17.67,0,0,0-2.8,2.3l-54.83,54.83h-.74a17.45,17.45,0,0,0-2.22,2.85,18.51,18.51,0,0,0-2.56,6.68,18.29,18.29,0,0,0,3.15,13.67,18,18,0,0,0,2.37,2.72l54.83,54.83a18.39,18.39,0,0,0,9.39,5A18,18,0,0,0,617.37,585.35Zm101.24,0a18.07,18.07,0,0,0,3.59-.36,18.61,18.61,0,0,0,6.6-2.74,18.05,18.05,0,0,0,2.79-2.3,18.71,18.71,0,0,0,2.31-2.79,18.14,18.14,0,0,0,2.75-6.57,18.71,18.71,0,0,0,0-7.23,18.14,18.14,0,0,0-2.75-6.57,18.71,18.71,0,0,0-2.31-2.79l-42.77-41.86,42.76-41.86a18.67,18.67,0,0,0,2.3-2.87,18.47,18.47,0,0,0,2.66-6.7,18.79,18.79,0,0,0-.08-7.32,18.32,18.32,0,0,0-2.85-6.62,18.83,18.83,0,0,0-5.2-5.06,18.46,18.46,0,0,0-6.57-2.66,18.93,18.93,0,0,0-7.31,0,18.4,18.4,0,0,0-6.76,2.86,18.82,18.82,0,0,0-2.86,2.41l-54.1,54.83a18.09,18.09,0,0,0-2.29,2.79,18.43,18.43,0,0,0-2.74,6.6,18.08,18.08,0,0,0,0,7.18,18.39,18.39,0,0,0,5,9.39L705.64,580a18,18,0,0,0,2.78,2.3A18.61,18.61,0,0,0,715,585,18,18,0,0,0,718.61,585.35Z" transform="translate(-543.79 -438.7)"/></svg>