<svg id="Layer_1" data-name="Layer 1" xmlns="http://www.w3.org/2000/svg" viewBox="0 0 435.77 314.53"><defs><style>.cls-1{fill:#f5f5f5;}.cls-2{fill:#ececec;}.cls-3{fill:#fafafa;}.cls-4{fill:#e0e0e0;}.cls-12,.cls-5{fill:#263238;}.cls-6{fill:#fbb515;}.cls-11,.cls-7{fill:#fff;}.cls-8{opacity:0.6;}.cls-9{fill:#e8505b;}.cls-10{fill:#00588c;}.cls-11{font-size:8.74px;font-family:Effra-Bold, Effra;font-weight:700;}.cls-12{font-size:4.99px;font-family:Effra-Regular, Effra;}</style></defs><rect class="cls-1" x="253.38" y="277.2" width="79.45" height="61.28" transform="translate(379.38 489.51) rotate(180)"/><path class="cls-2" d="M273.29,338c.11,0,.2-13.66.2-30.5s-.09-30.51-.2-30.51-.2,13.66-.2,30.51S273.18,338,273.29,338Z" transform="translate(-206.84 -126.16)"/><rect class="cls-3" x="260.12" y="324.53" width="6.09" height="6.89" transform="translate(319.5 529.78) rotate(180)"/><rect class="cls-2" x="92.74" y="151.19" width="9.02" height="13.08"/><rect class="cls-2" x="92.74" y="199.06" width="9.02" height="13.08"/><rect class="cls-2" x="25.12" y="213.18" width="131.16" height="101.16"/><path class="cls-4" d="M330.25,439.78c-.14,0-.26-22.55-.26-50.35s.12-50.37.26-50.37.26,22.55.26,50.37S330.39,439.78,330.25,439.78Z" transform="translate(-206.84 -126.16)"/><rect class="cls-3" x="135.1" y="291.31" width="10.06" height="11.37"/><rect class="cls-4" x="65.13" y="213.44" width="14.9" height="21.59"/><rect class="cls-4" x="65.13" y="292.45" width="14.9" height="21.59"/><path class="cls-2" d="M379.06,196.36a9.17,9.17,0,0,1-3.81,0,9.17,9.17,0,0,1,3.81,0Z" transform="translate(-206.84 -126.16)"/><path class="cls-2" d="M386.69,196.36a9.17,9.17,0,0,1-3.81,0,9.17,9.17,0,0,1,3.81,0Z" transform="translate(-206.84 -126.16)"/><path class="cls-2" d="M394.32,196.36a9.17,9.17,0,0,1-3.81,0,9.17,9.17,0,0,1,3.81,0Z" transform="translate(-206.84 -126.16)"/><path class="cls-2" d="M402,196.36a9.22,9.22,0,0,1-3.82,0,9.22,9.22,0,0,1,3.82,0Z" transform="translate(-206.84 -126.16)"/><path class="cls-2" d="M409.58,196.36a9.22,9.22,0,0,1-3.82,0,9.22,9.22,0,0,1,3.82,0Z" transform="translate(-206.84 -126.16)"/><path class="cls-2" d="M417.2,196.36a9.17,9.17,0,0,1-3.81,0,9.17,9.17,0,0,1,3.81,0Z" transform="translate(-206.84 -126.16)"/><path class="cls-2" d="M424.83,196.36a9.17,9.17,0,0,1-3.81,0,9.17,9.17,0,0,1,3.81,0Z" transform="translate(-206.84 -126.16)"/><path class="cls-2" d="M432.46,196.36a9.17,9.17,0,0,1-3.81,0,9.17,9.17,0,0,1,3.81,0Z" transform="translate(-206.84 -126.16)"/><path class="cls-2" d="M440.09,196.36a9.17,9.17,0,0,1-3.81,0,9.17,9.17,0,0,1,3.81,0Z" transform="translate(-206.84 -126.16)"/><path class="cls-2" d="M447.72,196.36a9.22,9.22,0,0,1-3.82,0,9.22,9.22,0,0,1,3.82,0Z" transform="translate(-206.84 -126.16)"/><path class="cls-2" d="M455.35,196.36a9.22,9.22,0,0,1-3.82,0,9.22,9.22,0,0,1,3.82,0Z" transform="translate(-206.84 -126.16)"/><path class="cls-2" d="M463,196.36a9.17,9.17,0,0,1-3.81,0,9.17,9.17,0,0,1,3.81,0Z" transform="translate(-206.84 -126.16)"/><path class="cls-2" d="M470.6,196.36a9.17,9.17,0,0,1-3.81,0,9.17,9.17,0,0,1,3.81,0Z" transform="translate(-206.84 -126.16)"/><path class="cls-2" d="M478.23,196.36a9.17,9.17,0,0,1-3.81,0,9.17,9.17,0,0,1,3.81,0Z" transform="translate(-206.84 -126.16)"/><path class="cls-2" d="M485.86,196.36a9.22,9.22,0,0,1-3.82,0,9.22,9.22,0,0,1,3.82,0Z" transform="translate(-206.84 -126.16)"/><path class="cls-2" d="M493.49,196.36a9.22,9.22,0,0,1-3.82,0,9.22,9.22,0,0,1,3.82,0Z" transform="translate(-206.84 -126.16)"/><path class="cls-2" d="M501.11,196.36a9.17,9.17,0,0,1-3.81,0,9.17,9.17,0,0,1,3.81,0Z" transform="translate(-206.84 -126.16)"/><path class="cls-2" d="M508.74,196.36a9.17,9.17,0,0,1-3.81,0,9.17,9.17,0,0,1,3.81,0Z" transform="translate(-206.84 -126.16)"/><path class="cls-2" d="M516.37,196.36a9.17,9.17,0,0,1-3.81,0,9.17,9.17,0,0,1,3.81,0Z" transform="translate(-206.84 -126.16)"/><path class="cls-2" d="M524,196.36a9.17,9.17,0,0,1-3.81,0,9.17,9.17,0,0,1,3.81,0Z" transform="translate(-206.84 -126.16)"/><path class="cls-2" d="M531.63,196.36a9.22,9.22,0,0,1-3.82,0,9.22,9.22,0,0,1,3.82,0Z" transform="translate(-206.84 -126.16)"/><path class="cls-2" d="M539.26,196.36a9.22,9.22,0,0,1-3.82,0,9.22,9.22,0,0,1,3.82,0Z" transform="translate(-206.84 -126.16)"/><path class="cls-2" d="M546.88,196.36a9.17,9.17,0,0,1-3.81,0,9.17,9.17,0,0,1,3.81,0Z" transform="translate(-206.84 -126.16)"/><path class="cls-2" d="M548.84,202a9.22,9.22,0,0,1,0-3.82,9.22,9.22,0,0,1,0,3.82Z" transform="translate(-206.84 -126.16)"/><path class="cls-2" d="M548.84,209.66a9.17,9.17,0,0,1,0-3.81,9.17,9.17,0,0,1,0,3.81Z" transform="translate(-206.84 -126.16)"/><path class="cls-2" d="M548.84,217.29a9.17,9.17,0,0,1,0-3.81,9.17,9.17,0,0,1,0,3.81Z" transform="translate(-206.84 -126.16)"/><path class="cls-2" d="M548.84,224.92a9.17,9.17,0,0,1,0-3.81,9.17,9.17,0,0,1,0,3.81Z" transform="translate(-206.84 -126.16)"/><path class="cls-2" d="M548.84,232.55a9.22,9.22,0,0,1,0-3.82,9.22,9.22,0,0,1,0,3.82Z" transform="translate(-206.84 -126.16)"/><path class="cls-2" d="M550.33,238.69a3.56,3.56,0,0,1-1.49.19h-.19v-.62a4.76,4.76,0,0,1,.2-1.91,4.76,4.76,0,0,1,.2,1.91v.42l-.19-.19C549.69,238.52,550.33,238.59,550.33,238.69Z" transform="translate(-206.84 -126.16)"/><path class="cls-2" d="M558,238.69a9.17,9.17,0,0,1-3.81,0,9.17,9.17,0,0,1,3.81,0Z" transform="translate(-206.84 -126.16)"/><path class="cls-2" d="M565.58,238.69a9.17,9.17,0,0,1-3.81,0,9.17,9.17,0,0,1,3.81,0Z" transform="translate(-206.84 -126.16)"/><path class="cls-2" d="M573.21,238.69a9.17,9.17,0,0,1-3.81,0,9.17,9.17,0,0,1,3.81,0Z" transform="translate(-206.84 -126.16)"/><path class="cls-2" d="M580.84,238.69a9.22,9.22,0,0,1-3.82,0,9.22,9.22,0,0,1,3.82,0Z" transform="translate(-206.84 -126.16)"/><path class="cls-2" d="M588.47,238.69a9.22,9.22,0,0,1-3.82,0,9.22,9.22,0,0,1,3.82,0Z" transform="translate(-206.84 -126.16)"/><path class="cls-2" d="M596.1,238.69a9.22,9.22,0,0,1-3.82,0,9.22,9.22,0,0,1,3.82,0Z" transform="translate(-206.84 -126.16)"/><path class="cls-2" d="M603.72,238.69a9.17,9.17,0,0,1-3.81,0,9.17,9.17,0,0,1,3.81,0Z" transform="translate(-206.84 -126.16)"/><path class="cls-2" d="M611.35,238.69a9.17,9.17,0,0,1-3.81,0,9.17,9.17,0,0,1,3.81,0Z" transform="translate(-206.84 -126.16)"/><path class="cls-2" d="M576.18,243.35a9.17,9.17,0,0,1,0-3.81,9.17,9.17,0,0,1,0,3.81Z" transform="translate(-206.84 -126.16)"/><path class="cls-2" d="M576.18,251a9.17,9.17,0,0,1,0-3.81,9.17,9.17,0,0,1,0,3.81Z" transform="translate(-206.84 -126.16)"/><path class="cls-2" d="M576.18,258.61a9.22,9.22,0,0,1,0-3.82,9.22,9.22,0,0,1,0,3.82Z" transform="translate(-206.84 -126.16)"/><path class="cls-2" d="M576.18,266.24a9.22,9.22,0,0,1,0-3.82,9.22,9.22,0,0,1,0,3.82Z" transform="translate(-206.84 -126.16)"/><path class="cls-2" d="M576.18,273.86a9.17,9.17,0,0,1,0-3.81,9.17,9.17,0,0,1,0,3.81Z" transform="translate(-206.84 -126.16)"/><path class="cls-2" d="M576.18,281.49a9.17,9.17,0,0,1,0-3.81,9.17,9.17,0,0,1,0,3.81Z" transform="translate(-206.84 -126.16)"/><path class="cls-2" d="M576.18,289.12a9.17,9.17,0,0,1,0-3.81,9.17,9.17,0,0,1,0,3.81Z" transform="translate(-206.84 -126.16)"/><path class="cls-2" d="M576.18,296.75a9.22,9.22,0,0,1,0-3.82,9.22,9.22,0,0,1,0,3.82Z" transform="translate(-206.84 -126.16)"/><path class="cls-2" d="M576.18,304.38a9.22,9.22,0,0,1,0-3.82,9.22,9.22,0,0,1,0,3.82Z" transform="translate(-206.84 -126.16)"/><path class="cls-2" d="M576.18,312a9.17,9.17,0,0,1,0-3.81,9.17,9.17,0,0,1,0,3.81Z" transform="translate(-206.84 -126.16)"/><path class="cls-2" d="M576.18,319.63a9.17,9.17,0,0,1,0-3.81,9.17,9.17,0,0,1,0,3.81Z" transform="translate(-206.84 -126.16)"/><path class="cls-2" d="M502.73,270.69s-5.92-3.28-11.72,10.72-7.8,22-7.8,22-1.59,3-3.67,1.27-5.15-6.72-8.37-5.52-4.16,5.15-3.07,10.7,3,17.8,3.21,18.91-.33,2.75-1.94,1.82-11.12-10-15.15-5.21,1.56,19.74,2.14,21.39.3,2.39-.46,2.87-3.68-2.87-6.49-5.34-6.51-4.83-8.6-1.88-1.93,14.49,10.46,32.29l6.29,7.87,10-1.35c21.28-4.19,29.42-12.39,30-16s-3.76-4.44-7.5-4.62-8.15.21-8.37-.67.1-1.6,1.66-2.39,16-7.67,16.39-13.9S487,337.34,485.2,336.9s-1-2-.13-2.66,10.8-8.14,15.44-11.38,6.76-6.61,5.22-9.83-7.18-1.61-9.85-1.84-1.76-3.47-1.76-3.47,4.1-7.11,9.65-21.22-1.16-15.87-1.16-15.87" transform="translate(-206.84 -126.16)"/><path class="cls-4" d="M457.9,380.47c4.11-10.34,9.92-24.58,16.38-40.3s12.3-29.93,16.47-40.25l4.93-12.23c.58-1.43,1-2.54,1.34-3.32.15-.37.27-.65.36-.86s.13-.29.13-.29,0,.11-.1.3-.18.5-.32.88l-1.29,3.34c-1.12,2.91-2.76,7.1-4.82,12.27-4.12,10.35-9.92,24.59-16.38,40.29s-12.3,29.94-16.47,40.26" transform="translate(-206.84 -126.16)"/><path class="cls-4" d="M475.18,306.34a3.24,3.24,0,0,1,.31.66c.18.43.43,1.06.72,1.85.58,1.57,1.33,3.75,2.11,6.18l2,6.23.61,1.89a3.27,3.27,0,0,1,.19.7,3.55,3.55,0,0,1-.32-.66c-.18-.43-.42-1.06-.71-1.85-.57-1.57-1.29-3.77-2.07-6.2s-1.47-4.54-2-6.21c-.24-.74-.45-1.37-.62-1.88A2.45,2.45,0,0,1,475.18,306.34Z" transform="translate(-206.84 -126.16)"/><path class="cls-4" d="M482,324c0-.09,4.4-1.84,9.91-3.9s10-3.67,10-3.58-4.4,1.84-9.91,3.9S482.06,324,482,324Z" transform="translate(-206.84 -126.16)"/><path class="cls-4" d="M471,347.63a3.37,3.37,0,0,1,.74-.1l2-.15c1.7-.14,4.05-.33,6.63-.63s4.91-.65,6.6-.92l2-.31a3.11,3.11,0,0,1,.74-.07,4.07,4.07,0,0,1-.72.21c-.46.11-1.14.25-2,.41-1.68.33-4,.72-6.6,1s-4.95.46-6.66.53c-.85,0-1.54.05-2,.05A2.69,2.69,0,0,1,471,347.63Z" transform="translate(-206.84 -126.16)"/><path class="cls-4" d="M461.31,333.06a3,3,0,0,1,.45.53l1.1,1.51c.91,1.29,2.16,3.07,3.52,5.06s2.57,3.79,3.44,5.11c.43.66.78,1.2,1,1.58a2.66,2.66,0,0,1,.33.6,3.27,3.27,0,0,1-.44-.53c-.27-.35-.64-.87-1.1-1.51-.92-1.28-2.17-3.07-3.53-5.06s-2.57-3.79-3.44-5.11l-1-1.57A2.58,2.58,0,0,1,461.31,333.06Z" transform="translate(-206.84 -126.16)"/><path class="cls-4" d="M448.94,352.73a4.86,4.86,0,0,1,.55.68l1.42,1.93c1.18,1.64,2.8,3.92,4.57,6.45s3.35,4.83,4.48,6.51l1.33,2a3.91,3.91,0,0,1,.44.76,6,6,0,0,1-.55-.68l-1.42-1.94c-1.18-1.63-2.8-3.91-4.57-6.44s-3.35-4.83-4.48-6.51l-1.33-2A4.76,4.76,0,0,1,448.94,352.73Z" transform="translate(-206.84 -126.16)"/><path class="cls-4" d="M461.55,370.52a5.71,5.71,0,0,1,.93-.14l2.55-.29c2.15-.25,5.12-.6,8.39-1.07s6.22-1,8.35-1.35l2.52-.44a4.28,4.28,0,0,1,.94-.12,5.66,5.66,0,0,1-.91.25c-.59.14-1.45.34-2.51.55-2.12.44-5.07,1-8.34,1.45s-6.26.79-8.41,1c-1.08.09-2,.15-2.56.18A4.33,4.33,0,0,1,461.55,370.52Z" transform="translate(-206.84 -126.16)"/><path class="cls-1" d="M602.12,340.38a26.8,26.8,0,1,0-49.9,13.54h0l.08.1c1,1.73,2.32,3,3.62,4.79l15.56,20.61a4.83,4.83,0,0,0,7.72,0l15.31-20.27a59,59,0,0,0,3.89-5.16l.06-.07h0A26.63,26.63,0,0,0,602.12,340.38Zm-26.8,11.67a11.8,11.8,0,1,1,11.8-11.8A11.79,11.79,0,0,1,575.32,352.05Z" transform="translate(-206.84 -126.16)"/><path class="cls-1" d="M523.46,219v46a1.79,1.79,0,0,0,1.79,1.79h96.44a1.79,1.79,0,0,0,1.79-1.82l-.22-16.84a1.75,1.75,0,0,0-.36-1.05l-13.83-18.49a1.8,1.8,0,0,0-1.42-.72l-15.94-.12a1.79,1.79,0,0,1-1.77-1.79v-7a1.8,1.8,0,0,0-1.8-1.79H525.25A1.79,1.79,0,0,0,523.46,219Z" transform="translate(-206.84 -126.16)"/><path class="cls-2" d="M594.42,231.78v14.76a1,1,0,0,0,1.05,1l21.28-.38a1,1,0,0,0,.84-1.61l-10-14.68a1,1,0,0,0-.87-.45l-11.34.31A1,1,0,0,0,594.42,231.78Z" transform="translate(-206.84 -126.16)"/><rect class="cls-1" x="314.68" y="142.05" width="103.88" height="3.21"/><circle class="cls-2" cx="545.6" cy="269.44" r="10.27" transform="translate(-237.55 338.55) rotate(-45)"/><path class="cls-3" d="M551.65,269.44a6.05,6.05,0,1,1-6-6.05A6,6,0,0,1,551.65,269.44Z" transform="translate(-206.84 -126.16)"/><path class="cls-2" d="M589.85,266.81c-.25,0-.46-11.1-.46-24.79s.21-24.79.46-24.79.47,11.1.47,24.79S590.11,266.81,589.85,266.81Z" transform="translate(-206.84 -126.16)"/><circle class="cls-2" cx="601.59" cy="269.44" r="10.27" transform="translate(-221.16 378.15) rotate(-45)"/><path class="cls-3" d="M607.64,269.44a6.05,6.05,0,1,1-6-6.05A6,6,0,0,1,607.64,269.44Z" transform="translate(-206.84 -126.16)"/><path class="cls-2" d="M601.62,250.48c0,.26-1.47.47-3.29.47s-3.28-.21-3.28-.47,1.47-.47,3.28-.47S601.62,250.22,601.62,250.48Z" transform="translate(-206.84 -126.16)"/><path class="cls-5" d="M642.61,440.5c0,.11-97.56.19-217.88.19s-217.89-.08-217.89-.19,97.54-.2,217.89-.2S642.61,440.39,642.61,440.5Z" transform="translate(-206.84 -126.16)"/><path class="cls-6" d="M313.48,437.14c10.28-7.13,12.65-20.42,12.29-32.37-.06-2,.16-4.1-.78-5.85s-3.15-3-4.94-2.13c-1.49.69-2.14,2.42-3,3.84a11.7,11.7,0,0,1-4.7,4.45,4.45,4.45,0,0,1-4.1.36c-1.71-1-1.91-3.34-1.89-5.32,0-3.7.07-7.4.11-11.1a18.46,18.46,0,0,0-.58-5.89,6.17,6.17,0,0,0-3.85-4.18c-1.89-.53-4.23.55-4.63,2.49a18.48,18.48,0,0,0-.07,2.47,2.08,2.08,0,0,1-1.22,2A2.38,2.38,0,0,1,294,385a26.28,26.28,0,0,1-4.71-7.17,36.17,36.17,0,0,0-4.4-7.39,10.72,10.72,0,0,0-7.25-4.1c-2.84-.17-5.88,1.57-6.6,4.36s.89,5.63,2.66,7.91a44.42,44.42,0,0,0,9.19,8.82,3.6,3.6,0,0,1,1.53,1.66c.43,1.33-.83,2.64-2.14,3.07a23,23,0,0,1-4.63.5c-1.55.18-3.22.86-3.81,2.32-.82,2,.86,4.15,2.53,5.55A37.76,37.76,0,0,0,287.55,407a12.83,12.83,0,0,1,4.16,2.05,3.67,3.67,0,0,1,1.16,4.21c-.71,1.39-2.54,1.83-4.07,1.54a26.16,26.16,0,0,1-4.35-1.67c-2.72-1-6.24-.87-8,1.48a6.31,6.31,0,0,0-.69,5.55,14.52,14.52,0,0,0,3,4.92A38.09,38.09,0,0,0,295,436.58c6.32,2.22,12.17,2.83,18.47.56" transform="translate(-206.84 -126.16)"/><path class="cls-5" d="M312.8,440.5c-.42-4.74-.63-4.83-2.38-10.87a178.5,178.5,0,0,0-7-19.16l-2.09-4.93c-.69-1.62-1.38-3.22-2.14-4.75a87,87,0,0,0-4.91-8.52c-1.69-2.64-3.39-5.07-5-7.34s-3.16-4.35-4.65-6.19a70.8,70.8,0,0,0-7.65-8.15c-1-.89-1.76-1.55-2.29-2l-.61-.5-.22-.16.19.19.59.53c.52.46,1.28,1.14,2.24,2.05a72.86,72.86,0,0,1,7.55,8.2c1.47,1.85,3,3.93,4.6,6.2s3.28,4.72,5,7.35a92.39,92.39,0,0,1,4.87,8.5c.76,1.52,1.43,3.11,2.13,4.73l2.08,4.93a181.31,181.31,0,0,1,7,19.12c1.76,6,2,6.08,2.44,10.8" transform="translate(-206.84 -126.16)"/><path class="cls-5" d="M299.09,400.77a3.09,3.09,0,0,0,.2-.84c.11-.55.23-1.35.38-2.33.28-2,.59-4.72.91-7.74s.67-5.76,1-7.72c.16-1,.29-1.78.39-2.33a4.32,4.32,0,0,0,.12-.86,3.26,3.26,0,0,0-.25.83c-.15.54-.32,1.33-.51,2.31-.38,2-.77,4.7-1.09,7.73s-.59,5.68-.81,7.74c-.1.93-.19,1.72-.26,2.35A4.59,4.59,0,0,0,299.09,400.77Z" transform="translate(-206.84 -126.16)"/><path class="cls-5" d="M273.6,395.92a5.72,5.72,0,0,0,1,.12c.65.06,1.6.15,2.76.29,2.34.26,5.55.73,9.08,1.41s6.68,1.43,9,2c1.14.3,2.06.57,2.69.75a4.76,4.76,0,0,0,1,.24,5.55,5.55,0,0,0-.95-.38c-.62-.22-1.53-.53-2.66-.86-2.26-.68-5.42-1.47-9-2.16a88.33,88.33,0,0,0-9.12-1.3c-1.17-.11-2.13-.15-2.79-.17A5,5,0,0,0,273.6,395.92Z" transform="translate(-206.84 -126.16)"/><path class="cls-5" d="M310.11,429.16a1.17,1.17,0,0,0,.17-.31c.12-.25.27-.55.44-.92.38-.8.9-2,1.52-3.43,1.24-2.92,2.83-7,4.52-11.54s3.24-8.63,4.41-11.57c.58-1.43,1.06-2.6,1.41-3.48L323,397a1.54,1.54,0,0,0,.11-.35,2.21,2.21,0,0,0-.18.32c-.12.24-.26.55-.44.92-.38.8-.89,2-1.51,3.43-1.24,2.92-2.83,7-4.52,11.54s-3.24,8.62-4.42,11.57c-.58,1.42-1.05,2.6-1.41,3.47l-.37.95A1.17,1.17,0,0,0,310.11,429.16Z" transform="translate(-206.84 -126.16)"/><path class="cls-5" d="M276.24,418.12a1.85,1.85,0,0,0,.34.14l1,.33,3.63,1.19c3.06,1,7.27,2.44,11.93,4s8.88,3,12,3.93c1.54.47,2.79.84,3.66,1.08l1,.26c.23.06.35.09.36.07a1.51,1.51,0,0,0-.34-.14l-1-.33-3.63-1.19c-3.06-1-7.27-2.44-11.93-4s-8.88-3-12-3.94c-1.54-.47-2.79-.84-3.67-1.08l-1-.26A1.32,1.32,0,0,0,276.24,418.12Z" transform="translate(-206.84 -126.16)"/><path class="cls-5" d="M437.35,440.5H331.18a24.08,24.08,0,0,1-23.61-23.83l1.13-267.38A23.23,23.23,0,0,1,332,126.16l106.65.49A23.23,23.23,0,0,1,461.81,150l-1.13,267.38A23.23,23.23,0,0,1,437.35,440.5Z" transform="translate(-206.84 -126.16)"/><path class="cls-1" d="M438.54,136.81l-20.68-.09a5.14,5.14,0,0,0-5,5.22l0,3.75a5.14,5.14,0,0,1-5,5.23l-40.31-.19a5.14,5.14,0,0,1-5-5.27l0-3.75a5.14,5.14,0,0,0-5-5.27l-7.27,0-18.1-.08a16.27,16.27,0,0,0-16.35,16.2l-1.1,261a16.26,16.26,0,0,0,16.2,16.34l106.43.49a16.27,16.27,0,0,0,16.35-16.2l1.1-261A16.27,16.27,0,0,0,438.54,136.81Z" transform="translate(-206.84 -126.16)"/><path class="cls-1" d="M393.36,381c-.12,3.15-.23,6.1-.33,8.56h15.29l-1.87-9.39Z" transform="translate(-206.84 -126.16)"/><path class="cls-1" d="M331.23,385l.13,4.63H391.5c.11-2.6.22-5.49.33-8.47Z" transform="translate(-206.84 -126.16)"/><polygon class="cls-1" points="200.38 253.98 202.26 263.42 230.45 263.42 230.11 252.1 200.38 253.98"/><polygon class="cls-1" points="188.05 122.02 193.38 91.12 179.42 90.08 179.42 122.02 188.05 122.02"/><polygon class="cls-1" points="123.13 241.63 107.98 247.57 107.94 258.3 123.58 257.31 123.13 241.63"/><polygon class="cls-1" points="123.06 239.22 122.23 210.44 122.22 210.44 122.22 200.29 108.17 201.78 107.99 245.1 123.06 239.2 123.06 239.22"/><polygon class="cls-1" points="122.22 177.63 108.28 175.79 108.19 199.47 122.22 197.99 122.22 177.63"/><polygon class="cls-1" points="226.11 200.72 225.52 208.96 209.06 210.74 210.33 217.26 229.02 215.86 228.74 206.5 230.23 200.3 226.11 200.72"/><polygon class="cls-1" points="196.44 218.31 209.57 217.32 206.71 202.67 195.25 203.83 196.44 218.31"/><polygon class="cls-1" points="196.56 219.83 197.57 232.05 199.35 248.8 200.08 252.47 230.06 250.57 229.07 217.38 196.56 219.83"/><path class="cls-1" d="M351.79,288.32l1.16,2-23.13,13.49v32l24.41-1.73,47-4.74-1.73-21-44.93-5.87.29-2.26,44.45,5.8-2.91-35.49-44,4.23-.14-1.52,44-4.23-1.52-18.52H352.47l-37.16,6.76-.18,42.41,14.07,1.86Zm-19.6,44.41s.18-26.38,0-27.37l18.87-10,2.45,36.06Z" transform="translate(-206.84 -126.16)"/><polygon class="cls-1" points="224.57 200.87 207.47 202.6 208.77 209.24 224.09 207.58 224.57 200.87"/><path class="cls-1" d="M393.58,375.37c-.05,1.38-.1,2.76-.16,4.11l12.73-.8-.66-3.28Z" transform="translate(-206.84 -126.16)"/><polygon class="cls-1" points="159.34 122.02 161.58 111.86 178.66 111.86 178.66 90.03 125.25 86.07 125.25 106.57 108.56 110.34 108.48 128.74 145.43 122.02 159.34 122.02"/><path class="cls-1" d="M401.82,187.44l-.46-1.87,20.4-8.08-13.27-26.63a4.4,4.4,0,0,1-.73.06l-22.54-.1.61,37.27Z" transform="translate(-206.84 -126.16)"/><path class="cls-1" d="M432.73,173.15l0-36.36-14.84-.07a5.14,5.14,0,0,0-5,5.22l0,3.75a5.32,5.32,0,0,1-2.18,4.31l13.27,26.65Z" transform="translate(-206.84 -126.16)"/><path class="cls-1" d="M356.05,174.71l-1.72-38.29-4.13,0-16.14-.07-6.87,34.24Zm-3.68-34.41.55,31.19-21.44-3.14,4.69-28Z" transform="translate(-206.84 -126.16)"/><path class="cls-1" d="M356.83,174.83v.32c0,3,.1,8.37.14,14.12l28.1-1.15-.62-37.31-17-.08a5.14,5.14,0,0,1-5-5.27l0-3.75a5.14,5.14,0,0,0-5-5.27h-2.38l1.73,38.39Z" transform="translate(-206.84 -126.16)"/><path class="cls-1" d="M324.92,170.25l6.81-33.91a16.26,16.26,0,0,0-16,16.18l-.07,16.91.07-.5Z" transform="translate(-206.84 -126.16)"/><polygon class="cls-1" points="122.96 85.9 108.67 84.84 108.57 107.99 122.96 104.74 122.96 85.9"/><polygon class="cls-1" points="117.94 44.83 108.84 43.53 108.69 81.02 110.64 81.16 117.94 44.83"/><polygon class="cls-1" points="146.79 238.78 147.03 208.68 123 210.38 123.84 239.87 146.79 238.78"/><path class="cls-1" d="M358.05,358,392.1,374.3c.4-10.65.76-20.62.73-21.25l.74,0,.36-.72c.48.24.48.24.23,7.5-.14,4.06-.35,9.45-.55,14.85h11.77l-1.74-16.36-2.31-28.21-44.48,4.49Z" transform="translate(-206.84 -126.16)"/><polygon class="cls-1" points="234.66 181.88 234.28 177.91 193.47 182.16 195.19 203.07 230.42 199.51 234.66 181.88"/><polygon class="cls-1" points="178.66 114.14 163.42 114.14 161.68 122.02 178.66 122.02 178.66 114.14"/><path class="cls-1" d="M435.2,243,397,240.32l-1.56,9,1.61,19.57L437.33,265Zm-36.78,6.36,2.05-5.69,33.16,2.1L435.55,262l-36,4.27Z" transform="translate(-206.84 -126.16)"/><polygon class="cls-1" points="232.32 157.71 230.64 140.4 190.36 144.28 191.87 162.7 232.32 157.71"/><polygon class="cls-1" points="123.63 258.83 108 259.82 107.93 258.81 107.91 263.42 123.76 263.42 123.63 258.83"/><path class="cls-1" d="M454.45,164.56l.23.58.05-12a16.27,16.27,0,0,0-16.19-16.34l-5.07,0,0,36.06Z" transform="translate(-206.84 -126.16)"/><path class="cls-1" d="M392.06,375.13l-34.75-16.64-1.22-23.86-1.46.15-.24,30.89-23.69,1.12,0,.69h0l.46,15.92,60.71-3.84C392,378.1,392,376.62,392.06,375.13Zm-59.87-6.37,33.15-2.33,21.57,10-54.72,3Z" transform="translate(-206.84 -126.16)"/><path class="cls-1" d="M444.58,204.61l1.42-8.43c-12.46-4.45-13.33-17.45-13.29-21.38L424.58,178l12.24,24.58Z" transform="translate(-206.84 -126.16)"/><polygon class="cls-1" points="193.28 179.88 210.22 178.12 206.89 163.15 192.06 164.98 193.28 179.88"/><polygon class="cls-1" points="228.42 91.37 196.78 91.37 194.15 91.17 190.57 111.89 228.13 114.49 227.26 105.48 230.96 92.18 228.42 91.37"/><path class="cls-1" d="M434.48,213.72l.4-9.89-12.44-25-19.28,7.63,6.63,27.22ZM421.69,181.9l11.4,21.68-1.65,6.76-19.5-.74-4.87-20.5Z" transform="translate(-206.84 -126.16)"/><polygon class="cls-1" points="232.57 206.89 233.15 226.32 246.86 225.55 246.9 226.31 233.17 227.08 233.87 250.33 246.83 249.51 246.93 251.04 233.92 251.86 234.26 263.42 246.9 263.42 247.17 198.59 234.25 199.89 232.57 206.89"/><path class="cls-1" d="M356.07,175.49l-29-4.17-7.26,36.17,36.42,2.7C356.35,204.62,356.22,187.54,356.07,175.49Z" transform="translate(-206.84 -126.16)"/><polygon class="cls-1" points="196.99 87.56 201.38 87.56 195.16 62.03 179 62.69 179.39 86.26 196.99 87.56"/><path class="cls-1" d="M314.67,408.15l0,5.35c0,.17,0,.33,0,.49Z" transform="translate(-206.84 -126.16)"/><path class="cls-1" d="M356.94,210.25l28.53,2.11-.39-23.48L357,190C357,198,357.06,206.44,356.94,210.25Z" transform="translate(-206.84 -126.16)"/><polygon class="cls-1" points="232.54 159.99 207.65 163.06 210.99 178.04 234.06 175.64 232.54 159.99"/><path class="cls-1" d="M446.13,195.41l1.59-9.46,6.87.53.09-20.37-21.2,8.39C433.05,188.83,442.06,193.88,446.13,195.41Z" transform="translate(-206.84 -126.16)"/><polygon class="cls-1" points="231.13 105.82 231.99 114.76 247.52 115.83 247.6 97.43 234.6 93.33 231.13 105.82"/><path class="cls-1" d="M445.36,308.31l-4.08,17L454,324l.08-17.78c-3.91-1-7.32-1.86-9.15-2.22Z" transform="translate(-206.84 -126.16)"/><polygon class="cls-1" points="229.92 87.85 247.62 93.44 247.66 83.37 230.28 78.88 229.92 87.85"/><path class="cls-1" d="M444.71,301.65c1.43.22,4.13.79,9.39,2.18l.16-38.88-13,1.25Z" transform="translate(-206.84 -126.16)"/><polygon class="cls-1" points="234.29 138.52 247.43 137.25 247.51 118.13 232.22 117.07 234.29 138.52"/><path class="cls-1" d="M447.59,195.89q3.74,1.14,7,1.78l0-9.66-5.6-.43Z" transform="translate(-206.84 -126.16)"/><path class="cls-1" d="M446.06,205l8.44,2.18,0-8.72c-2.18-.44-4.54-1-7.08-1.8Z" transform="translate(-206.84 -126.16)"/><path class="cls-7" d="M330.46,385l.14,4.58h.76l-.13-4.63,60.6-3.84c-.11,3-.22,5.87-.33,8.47H393c.1-2.46.21-5.41.33-8.56l13.09-.83,1.87,9.39h.78l-1.88-9.44L437,378.26l.34,11.32h3.81L440.75,378l13-.82-.1-1.53-13,.82-.7-23.25,13.73-.77,0-.76-13.71.77-.59-19.43,1.69-7,12.92-1.3V324l-12.73,1.29,4.08-17-.42-4.33c1.83.36,5.24,1.19,9.15,2.22v-2.37c-5.26-1.39-8-2-9.39-2.18l-3.43-35.45,13-1.25v-1.54l-13.14,1.27-2.08-21.45,15.3,1.06V242l-15.53-1.07L438,232l3.48-12.49,13,4.1v-4L436.76,214l.36-9,17.37,4.49v-2.36L446.06,205l1.4-8.34c2.54.77,4.9,1.36,7.08,1.8v-.78q-3.21-.64-7-1.78l1.4-8.31,5.6.43v-1.53l-6.87-.53-1.59,9.46c-4.07-1.53-13.08-6.58-12.65-20.91l21.2-8.39v-1l-.23-.58-21,8.29,0-36.06h-.77l0,36.36-8.84,3.5L410.62,150a4.76,4.76,0,0,1-2.13.86l13.27,26.63-20.4,8.08.46,1.87-16,.65-.61-37.27h-.77l.62,37.31L357,189.27c0-5.75-.1-11.13-.14-14.12v-.32h0l-1.73-38.39h-.76l1.72,38.29-28.86-4.14,6.87-34.24h-2l-.37,0-6.81,33.91-9.17-1.32-.07.5v.26l9.09,1.3-7.29,36.33-2-.14V211l14.28,1.06V230.9l-14.38,3.25v2.35l16.68-3.77v-20.5l53.42,4V238H368.42l-2.25,10.16h-13.9l-36.95,6.72v2.33l37.16-6.76h42.32L396.31,269l-44,4.23.14,1.52,44-4.23L399.35,306l-44.45-5.8-.29,2.26,44.93,5.87,1.73,21-47,4.74-24.41,1.73v-32L353,290.3l-1.16-2L329.2,301.5l-14.07-1.86V302l13.94,1.84v20.36l-14,1.48v2.31l14.05-1.49V336.6h0l.83,28.78v0l-15.06,5.91v2.46L330,367.79l.45,15.68-15.65,1V385l.07,1Zm63-5.52c.06-1.35.11-2.73.16-4.11l11.91,0,.66,3.28Zm13.5-.85-.74-3.67-1.78-16.75-1-12.22,32.5-2.45,1,33.19Zm7.39-49.87L431.4,327l-.47,6.71L415.6,335.4Zm-.76.07,2.86,14.65-13.13,1L402.09,330ZM435.86,342l-18.69,1.41-1.27-6.53,16.46-1.78.58-8.24,4.13-.42-1.49,6.2Zm-22.14-52.71,3.34,15L400.12,306l-1.22-14.9Zm4.11,14.89-3.35-15,24.9-3.07,1.51,15.65ZM435,240.65l-37.56-2.6L401,217.33l2.62.2h31.65l2.54.81-3.7,13.3Zm-2.26-65.85c0,3.93.83,16.93,13.29,21.38l-1.42,8.43-7.76-2L424.58,178Zm-10.27,4.07,12.44,25-.4,9.89H409.79l-6.63-27.22ZM402,188.19l6.22,25.53h-4.4l-17.59-1.3-.39-23.57Zm-16.92.69.39,23.48-28.53-2.11c.12-3.81.1-12.28,0-20.22Zm-58-17.56,29,4.17c.15,12,.28,29.13.13,34.7l-36.42-2.7Zm73.18,46-5.33,30.9h-8.63V216.24Zm-30,23H385.5v7.88h-17Zm25.2,9,1.56-9L435.2,243,437.33,265l-40.26,3.87Zm42,17.22,1.68,17.31-40.45,5-1.51-18.42Zm-37.17,41.76,40.8-4.25.39,4-4.24,17.63L402,329.23Zm3.33,50,1.74,16.36H393.61c.2-5.4.41-10.79.55-14.85.25-7.26.25-7.26-.23-7.5l-.36.72-.74,0c0,.63-.33,10.6-.73,21.25L358.05,358l-1.2-23.43,44.48-4.49Zm-49.77-23.44-.24,30.1L330.68,366l-.85-29.49ZM330.72,367.5h0l0-.69,23.69-1.12.24-30.89,1.46-.15,1.22,23.86,34.75,16.64c-.05,1.49-.11,3-.17,4.45l-60.71,3.84Z" transform="translate(-206.84 -126.16)"/><polygon class="cls-2" points="158.5 240.27 125.35 242.59 125.35 253.24 180.07 250.28 158.5 240.27"/><polygon class="cls-2" points="226.79 119.57 193.64 117.47 191.59 123.16 192.71 140.12 228.71 135.85 226.79 119.57"/><path class="cls-2" d="M330.85,429.84l106.43.49a16.27,16.27,0,0,0,16.35-16.2l.1-24.55h-139l-.08,18.57V414A16.27,16.27,0,0,0,330.85,429.84Z" transform="translate(-206.84 -126.16)"/><polygon class="cls-2" points="146.08 45.33 145.53 14.14 129.34 14.14 124.64 42.19 146.08 45.33"/><polygon class="cls-2" points="224.6 84.18 226.25 77.42 214.85 55.74 200.23 62.94 205.1 83.44 224.6 84.18"/><path class="cls-2" d="M332.19,305.36c.18,1,0,27.37,0,27.37l21.32-1.35-2.45-36.06Z" transform="translate(-206.84 -126.16)"/><polygon class="cls-2" points="196.44 200.62 195.32 184.27 231.87 179.58 231.87 182.4 227.45 197.43 196.44 200.62"/><path class="cls-6" d="M376.24,191.21a4.45,4.45,0,1,1-4.45-4.46A4.45,4.45,0,0,1,376.24,191.21Z" transform="translate(-206.84 -126.16)"/><g class="cls-8"><path class="cls-7" d="M376.24,191a4.45,4.45,0,1,1-4.64-4.26A4.46,4.46,0,0,1,376.24,191Z" transform="translate(-206.84 -126.16)"/></g><circle class="cls-6" cx="164.95" cy="64.89" r="2.96"/><path class="cls-6" d="M440.61,369.05a1.9,1.9,0,1,1-1.9-1.9A1.9,1.9,0,0,1,440.61,369.05Z" transform="translate(-206.84 -126.16)"/><path class="cls-6" d="M437.57,368.44l-.46-10.67L405,359.34a4.92,4.92,0,0,1-2.43-.52L357,335.8a3.31,3.31,0,0,1-1.8-2.78L349,212.7a2,2,0,0,1,2.16-2.11L370.64,212V190.68h2.29v21.65a2,2,0,0,1-.64,1.47,2,2,0,0,1-1.52.54l-19.52-1.45,6.19,120a1,1,0,0,0,.56.86l45.58,23a2.55,2.55,0,0,0,1.28.27l32.4-1.58a2,2,0,0,1,1.47.53,2,2,0,0,1,.65,1.41l.47,10.93Z" transform="translate(-206.84 -126.16)"/><circle class="cls-6" cx="145.84" cy="138.78" r="5.77"/><circle class="cls-3" cx="145.84" cy="138.78" r="4.01"/><path class="cls-6" d="M352.68,269.23a4.29,4.29,0,1,1,4.29-4.29A4.3,4.3,0,0,1,352.68,269.23Zm0-8a3.72,3.72,0,1,0,3.72,3.72A3.73,3.73,0,0,0,352.68,261.22Z" transform="translate(-206.84 -126.16)"/><path class="cls-9" d="M386.66,240.75H359.19a2.41,2.41,0,0,0-2.41,2.42v9.94a2.41,2.41,0,0,0,2.41,2.42h.32v2.37l2.75-2.37h24.4a2.41,2.41,0,0,0,2.41-2.42v-9.94A2.41,2.41,0,0,0,386.66,240.75Z" transform="translate(-206.84 -126.16)"/><path class="cls-10" d="M386.66,240.75H359.19a2.41,2.41,0,0,0-2.41,2.42v9.94a2.41,2.41,0,0,0,2.41,2.42h.32v2.37l2.75-2.37h24.4a2.41,2.41,0,0,0,2.41-2.42v-9.94A2.41,2.41,0,0,0,386.66,240.75Z" transform="translate(-206.84 -126.16)"/><text class="cls-11" transform="translate(155.02 125.09)">ةنحشلا</text><path class="cls-10" d="M377.58,176.25A5.71,5.71,0,1,0,367,179.13h0l0,0c.22.37.49.63.77,1l3.31,4.39a1,1,0,0,0,1.65,0l3.26-4.32a12,12,0,0,0,.83-1.09v0h0A5.75,5.75,0,0,0,377.58,176.25Zm-5.7,2.48a2.51,2.51,0,1,1,2.51-2.51A2.51,2.51,0,0,1,371.88,178.73Z" transform="translate(-206.84 -126.16)"/><path class="cls-5" d="M343.41,407.38v7.4h-1.72v-6h-1.48v-1.37Z" transform="translate(-206.84 -126.16)"/><path class="cls-5" d="M346.7,413.83a2.52,2.52,0,0,1-.29,1.06l-.6,1.52h-1.05l.47-1.68a.92.92,0,0,1-.58-.9,1,1,0,0,1,2.05,0Z" transform="translate(-206.84 -126.16)"/><path class="cls-5" d="M350.16,407.38v7.4h-1.72v-6H347v-1.37Z" transform="translate(-206.84 -126.16)"/><path class="cls-5" d="M351.45,411.08c0-2.44,1.35-3.83,3.17-3.83s3.18,1.39,3.18,3.83-1.35,3.83-3.18,3.83S351.45,413.52,351.45,411.08Zm4.62,0c0-1.68-.59-2.38-1.45-2.38s-1.44.7-1.44,2.38.59,2.38,1.44,2.38S356.07,412.76,356.07,411.08Z" transform="translate(-206.84 -126.16)"/><path class="cls-5" d="M358.63,411.08c0-2.44,1.36-3.83,3.18-3.83s3.17,1.39,3.17,3.83-1.34,3.83-3.17,3.83S358.63,413.52,358.63,411.08Zm4.62,0c0-1.68-.59-2.38-1.44-2.38s-1.44.7-1.44,2.38.59,2.38,1.44,2.38S363.25,412.76,363.25,411.08Z" transform="translate(-206.84 -126.16)"/><path class="cls-5" d="M378.78,411.52v3.26h-1.65v-3c0-.92-.42-1.34-1.08-1.34s-1.26.47-1.26,1.49v2.85h-1.65v-3c0-.92-.4-1.34-1.08-1.34s-1.25.47-1.25,1.49v2.85h-1.65v-5.69h1.57v.66a2.31,2.31,0,0,1,1.79-.74,2.13,2.13,0,0,1,1.88.93,2.55,2.55,0,0,1,2.05-.93A2.2,2.2,0,0,1,378.78,411.52Z" transform="translate(-206.84 -126.16)"/><circle class="cls-10" cx="329.45" cy="406.8" r="6.39" transform="translate(-348.8 508.21) rotate(-76.77)"/><path class="cls-3" d="M326.87,408a11,11,0,0,1,1.64-.1c1.05,0,2.54-.05,4.32-.07l-.13.28-1.63-1.88-.1-.12.1-.12,1.61-2,.15.32h-.72l-5.24,0,.18-.18c0,1.94,0,3.57-.07,4.72a10.61,10.61,0,0,1-.11,1.8,11.5,11.5,0,0,1-.1-1.8c0-1.15-.06-2.78-.07-4.72v-.17h.18l5.24,0h1.14l-.26.33c-.56.69-1.11,1.36-1.62,2v-.25l1.61,1.91.24.29h-.38c-1.78,0-3.27-.05-4.32-.08A9.55,9.55,0,0,1,326.87,408Z" transform="translate(-206.84 -126.16)"/><text class="cls-12" transform="translate(133.77 278.69)">ةيلامججلا ةفاسلا</text><path class="cls-10" d="M432.75,395.9h-19.3a3.7,3.7,0,0,0-3.7,3.7v15.2a3.7,3.7,0,0,0,3.7,3.69h.49v3.62l4.2-3.62h14.61a3.7,3.7,0,0,0,3.7-3.69V399.6A3.7,3.7,0,0,0,432.75,395.9Z" transform="translate(-206.84 -126.16)"/><path class="cls-3" d="M415.29,402.87v7.8a.3.3,0,0,0,.3.3h16.34a.3.3,0,0,0,.3-.31l0-2.85a.28.28,0,0,0-.06-.18l-2.35-3.13a.27.27,0,0,0-.24-.12l-2.7,0a.32.32,0,0,1-.3-.31v-1.18a.3.3,0,0,0-.3-.3H415.59A.3.3,0,0,0,415.29,402.87Z" transform="translate(-206.84 -126.16)"/><path class="cls-10" d="M427.31,405v2.5a.18.18,0,0,0,.18.17l3.6-.06a.19.19,0,0,0,.15-.28l-1.69-2.48a.18.18,0,0,0-.15-.08l-1.92.05A.18.18,0,0,0,427.31,405Z" transform="translate(-206.84 -126.16)"/><rect class="cls-3" x="208.12" y="285.05" width="17.6" height="0.54"/><path class="cls-10" d="M420.78,411.42a1.74,1.74,0,1,1-1.74-1.75A1.74,1.74,0,0,1,420.78,411.42Z" transform="translate(-206.84 -126.16)"/><path class="cls-3" d="M420.06,411.42a1,1,0,0,1-2.05,0,1,1,0,1,1,2.05,0Z" transform="translate(-206.84 -126.16)"/><path class="cls-10" d="M426.54,411c-.05,0-.08-1.88-.08-4.2s0-4.2.08-4.2.08,1.88.08,4.2S426.58,411,426.54,411Z" transform="translate(-206.84 -126.16)"/><path class="cls-10" d="M430.27,411.42a1.75,1.75,0,1,1-1.74-1.75A1.74,1.74,0,0,1,430.27,411.42Z" transform="translate(-206.84 -126.16)"/><path class="cls-3" d="M429.55,411.42a1,1,0,1,1-1-1A1,1,0,0,1,429.55,411.42Z" transform="translate(-206.84 -126.16)"/><path class="cls-10" d="M428.53,408.2c0,.05-.25.08-.56.08s-.55,0-.55-.08.25-.08.55-.08S428.53,408.16,428.53,408.2Z" transform="translate(-206.84 -126.16)"/></svg>