<svg id="Layer_1" data-name="Layer 1" xmlns="http://www.w3.org/2000/svg" viewBox="0 0 567.31 362.87"><defs><style>.cls-1{fill:#e0e0e0;}.cls-2{fill:#ececec;}.cls-3{fill:#f5f5f5;}.cls-4{fill:#263238;}.cls-5{fill:#fbb515;}.cls-6{fill:#059bdc;}.cls-7{fill:#fafafa;}.cls-8{fill:#f8b509;}.cls-13,.cls-9{fill:#fff;}.cls-9{opacity:0.7;}.cls-10{fill:#00588c;}.cls-11{opacity:0.5;}.cls-12{opacity:0.4;}.cls-14{fill:#074b66;}.cls-15{fill:none;stroke:#4e585d;stroke-miterlimit:10;stroke-width:0.05px;}</style></defs><rect class="cls-1" x="375.64" y="164" width="148.53" height="300.09" transform="translate(758.65 525.06) rotate(-180)"/><rect class="cls-2" x="234.49" y="60.97" width="69.64" height="300.09"/><rect class="cls-3" x="479.67" y="192.23" width="13.35" height="34.54" transform="translate(831.54 315.98) rotate(-180)"/><rect class="cls-3" x="479.67" y="327.42" width="13.35" height="34.54" transform="translate(831.54 586.36) rotate(-180)"/><path class="cls-3" d="M445.28,240.33c0,.3,17.66.54,39.44.54s39.45-.24,39.45-.54-17.66-.54-39.45-.54S445.28,240,445.28,240.33Z" transform="translate(-141.15 -103.03)"/><rect class="cls-3" x="479.67" y="260.34" width="13.35" height="34.54" transform="translate(831.54 452.19) rotate(-180)"/><path class="cls-3" d="M445.28,308.44c0,.3,17.66.54,39.44.54s39.45-.24,39.45-.54-17.66-.54-39.45-.54S445.28,308.14,445.28,308.44Z" transform="translate(-141.15 -103.03)"/><rect class="cls-1" x="417.14" y="192.23" width="13.35" height="34.54" transform="translate(706.48 315.98) rotate(-180)"/><rect class="cls-1" x="388.17" y="192.23" width="13.35" height="34.54" transform="translate(648.53 315.98) rotate(-180)"/><rect class="cls-1" x="417.14" y="257.78" width="13.35" height="34.54" transform="translate(706.48 447.07) rotate(-180)"/><rect class="cls-1" x="388.17" y="257.78" width="13.35" height="34.54" transform="translate(648.53 447.07) rotate(-180)"/><rect class="cls-1" x="417.14" y="323.32" width="13.35" height="34.54" transform="translate(706.48 578.15) rotate(-180)"/><rect class="cls-1" x="388.17" y="323.32" width="13.35" height="34.54" transform="translate(648.53 578.15) rotate(-180)"/><rect class="cls-1" x="364.47" y="156.74" width="170.86" height="7.52" transform="translate(758.65 217.97) rotate(-180)"/><path class="cls-2" d="M374.6,165c0,.29,33.2.54,74.14.54s74.15-.25,74.15-.54-33.19-.54-74.15-.54S374.6,164.67,374.6,165Z" transform="translate(-141.15 -103.03)"/><rect class="cls-2" x="488.81" y="276.54" width="132.97" height="186.71" transform="translate(969.43 636.76) rotate(-180)"/><rect class="cls-1" x="347.65" y="173.51" width="62.35" height="186.71"/><rect class="cls-3" x="581.94" y="301.82" width="11.96" height="30.92" transform="translate(1034.68 531.53) rotate(-180)"/><rect class="cls-3" x="581.94" y="422.85" width="11.96" height="30.92" transform="translate(1034.68 773.58) rotate(-180)"/><path class="cls-3" d="M551.15,344.88c0,.35,15.81.63,35.31.63s35.31-.28,35.31-.63-15.8-.63-35.31-.63S551.15,344.53,551.15,344.88Z" transform="translate(-141.15 -103.03)"/><rect class="cls-3" x="581.94" y="362.79" width="11.96" height="30.92" transform="translate(1034.68 653.48) rotate(-180)"/><path class="cls-3" d="M551.15,405.85c0,.35,15.81.63,35.31.63s35.31-.28,35.31-.63-15.8-.63-35.31-.63S551.15,405.5,551.15,405.85Z" transform="translate(-141.15 -103.03)"/><rect class="cls-3" x="525.96" y="301.82" width="11.96" height="30.92" transform="translate(922.72 531.53) rotate(-180)"/><rect class="cls-3" x="500.02" y="301.82" width="11.96" height="30.92" transform="translate(870.84 531.53) rotate(-180)"/><rect class="cls-3" x="525.96" y="360.5" width="11.96" height="30.92" transform="translate(922.72 648.89) rotate(-180)"/><rect class="cls-3" x="500.02" y="360.5" width="11.96" height="30.92" transform="translate(870.84 648.89) rotate(-180)"/><rect class="cls-3" x="525.96" y="419.17" width="11.96" height="30.92" transform="translate(922.72 766.24) rotate(-180)"/><rect class="cls-3" x="500.02" y="419.17" width="11.96" height="30.92" transform="translate(870.84 766.24) rotate(-180)"/><rect class="cls-1" x="478.81" y="270.04" width="152.96" height="6.73" transform="translate(969.43 443.79) rotate(-180)"/><path class="cls-2" d="M487.88,277.41c0,.35,29.72.63,66.37.63s66.38-.28,66.38-.63-29.72-.63-66.38-.63S487.88,277.06,487.88,277.41Z" transform="translate(-141.15 -103.03)"/><path class="cls-2" d="M191.58,103.5s-8.23,2.48-.64,20.15S204,150.2,204,150.2s1.28,4.07-2.1,4.46-10.66-1.26-12.42,2.73c-1.83,4.14,1,8.34,7,12.26s18.87,13,20,13.83,2.21,2.74-.05,3.38-18.93,1.27-18.16,9.16,19.32,16.06,21.33,17,2.45,1.84,2.21,3-5.87.8-10.6,1.17-10.16,1.64-9.33,6.16,11.47,14.58,38.63,19.08l12.72,1.25,7.65-10.31c15-23.06,14.78-37.71,12-41.37s-7.36-.51-10.83,2.72-7,7.6-8,7-1.36-1.51-.69-3.62,7.16-21.31,1.86-27.21-17,6-19,7.2-2.7-.85-2.53-2.24,2.17-17,3.33-24.11,0-12-4.31-13.45c-4.13-1.4-7.83,5.1-10.4,7.32s-4.71-1.47-4.71-1.47-2.84-10-10.75-27.56-15.46-13-15.46-13" transform="translate(-141.15 -103.03)"/><path class="cls-1" d="M253.74,246.68c-5.76-12.9-15.61-36-24.17-55.79s-16.32-37.69-22-50.62L200.8,125,199,120.8l-.46-1.08a4,4,0,0,1-.15-.38s.07.12.18.36l.51,1.07,1.9,4.13c1.65,3.59,4,8.81,6.87,15.26,5.76,12.9,13.57,30.79,22.12,50.57S248.3,233.64,254,246.57" transform="translate(-141.15 -103.03)"/><path class="cls-1" d="M199.59,160.12a4.9,4.9,0,0,1,.87.31c.55.22,1.34.56,2.31,1,1.94.86,4.6,2.12,7.5,3.56l7.41,3.72,2.25,1.11a4,4,0,0,1,.81.44,3.61,3.61,0,0,1-.87-.3c-.56-.22-1.35-.56-2.31-1-1.94-.88-4.57-2.17-7.47-3.62l-7.44-3.66-2.25-1.1A3.36,3.36,0,0,1,199.59,160.12Z" transform="translate(-141.15 -103.03)"/><path class="cls-1" d="M221.67,169.49c-.1,0,2.25-5.62,5.25-12.46s5.52-12.34,5.63-12.3-2.26,5.62-5.26,12.46S221.77,169.54,221.67,169.49Z" transform="translate(-141.15 -103.03)"/><path class="cls-1" d="M233.44,200.47a4.21,4.21,0,0,1,.57-.75l1.65-2c1.38-1.66,3.29-4,5.3-6.58s3.76-5,5-6.81l1.48-2.1a4.79,4.79,0,0,1,.58-.74,3.52,3.52,0,0,1-.45.83c-.31.52-.78,1.26-1.38,2.16-1.19,1.82-2.9,4.28-4.92,6.9s-4,4.91-5.41,6.53c-.73.8-1.32,1.45-1.75,1.88A4,4,0,0,1,233.44,200.47Z" transform="translate(-141.15 -103.03)"/><path class="cls-1" d="M211.6,196.39a4.28,4.28,0,0,1,.87.07l2.35.35c2,.31,4.71.76,7.72,1.28s5.73,1,7.69,1.4l2.33.46a3.18,3.18,0,0,1,.84.23,4.34,4.34,0,0,1-.87-.07l-2.34-.35c-2-.31-4.71-.76-7.72-1.28s-5.73-1-7.7-1.4l-2.32-.46A3.55,3.55,0,0,1,211.6,196.39Z" transform="translate(-141.15 -103.03)"/><path class="cls-1" d="M218.52,225.06a5.33,5.33,0,0,1,1.11.11l3,.42c2.54.38,6,.94,9.91,1.57s7.36,1.23,9.88,1.68l3,.55a5.6,5.6,0,0,1,1.09.26,6.38,6.38,0,0,1-1.11-.11l-3-.43c-2.54-.38-6-.93-9.91-1.56s-7.36-1.23-9.88-1.68l-3-.55A5.6,5.6,0,0,1,218.52,225.06Z" transform="translate(-141.15 -103.03)"/><path class="cls-1" d="M245.87,229.35a7.07,7.07,0,0,1,.7-1c.51-.67,1.19-1.53,2-2.57,1.68-2.17,4-5.18,6.46-8.57s4.62-6.51,6.16-8.79c.75-1.09,1.36-2,1.83-2.69a7.46,7.46,0,0,1,.71-1,5.92,5.92,0,0,1-.58,1c-.39.66-1,1.6-1.72,2.76-1.49,2.31-3.61,5.47-6.08,8.86s-4.82,6.39-6.56,8.51c-.88,1.07-1.59,1.92-2.1,2.49A7.34,7.34,0,0,1,245.87,229.35Z" transform="translate(-141.15 -103.03)"/><path class="cls-4" d="M708.46,465.29c0,.13-124.57.22-278.21.22S152,465.42,152,465.29s124.54-.21,278.23-.21S708.46,465.17,708.46,465.29Z" transform="translate(-141.15 -103.03)"/><path class="cls-5" d="M222.88,310c13.34-13.46,13.2-33.92,9.35-51.64-.65-2.95-.89-6.15-2.78-8.5s-5.52-3.54-7.95-1.8c-2,1.44-2.52,4.19-3.37,6.54a17.74,17.74,0,0,1-5.76,7.94c-1.72,1.32-4,2.35-6,1.66-2.82-.95-3.77-4.44-4.29-7.4l-2.91-16.56a28,28,0,0,0-2.5-8.63c-1.43-2.64-3.94-4.88-6.9-5.15s-6.14,2-6.21,5a27.65,27.65,0,0,0,.59,3.7c.14,1.25-.18,2.71-1.29,3.26s-2.45-.06-3.49-.76c-3.6-2.43-6.38-5.91-9-9.38s-5.23-7.05-8.59-9.8-7.67-4.64-11.95-4.11-8.32,4-8.64,8.32,2.89,8.16,6.16,11.06a67.42,67.42,0,0,0,16.14,10.6,5.54,5.54,0,0,1,2.75,2c1,1.86-.51,4.16-2.34,5.16-2.07,1.14-4.51,1.35-6.77,2s-4.57,2.16-5,4.5c-.66,3.25,2.44,6,5.31,7.58a57.55,57.55,0,0,0,18.51,6.62c2.32.39,4.74.68,6.77,1.89s3.58,3.67,2.9,6-3.28,3.44-5.64,3.43-4.62-.87-6.95-1.29c-4.34-.8-9.54.44-11.51,4.43a9.54,9.54,0,0,0,.51,8.46,22,22,0,0,0,5.82,6.5,57.8,57.8,0,0,0,27.41,12.64c10,1.56,18.93.85,27.68-4.29" transform="translate(-141.15 -103.03)"/><path class="cls-4" d="M225.52,323.21a131.92,131.92,0,0,0-9.28-23.5,269.64,269.64,0,0,0-15.72-26.63L196,266.31c-1.48-2.22-2.94-4.42-4.51-6.48a135.14,135.14,0,0,0-9.66-11.34c-3.25-3.46-6.46-6.62-9.49-9.56s-5.9-5.61-8.63-7.94a107.5,107.5,0,0,0-13.66-10c-1.7-1.05-3.05-1.83-4-2.34l-1-.57a2,2,0,0,0-.37-.18,2.26,2.26,0,0,0,.34.23l1,.62c.9.54,2.23,1.35,3.91,2.43A111.53,111.53,0,0,1,163.5,231.3c2.7,2.34,5.56,5,8.57,8s6.2,6.12,9.43,9.57a137.65,137.65,0,0,1,9.6,11.32c1.55,2,3,4.24,4.48,6.46l4.48,6.77a276.66,276.66,0,0,1,15.73,26.55,134.17,134.17,0,0,1,9.35,23.38" transform="translate(-141.15 -103.03)"/><path class="cls-4" d="M191.37,259.84a5.72,5.72,0,0,0,.06-1.32c0-.84,0-2.07-.08-3.58-.12-3-.43-7.19-.78-11.78s-.6-8.76-.67-11.78c0-1.5-.06-2.73-.07-3.57a5.94,5.94,0,0,0-.07-1.31,7.13,7.13,0,0,0-.14,1.3c-.07.85-.11,2.07-.11,3.59,0,3,.15,7.2.51,11.81s.69,8.63.94,11.76c.1,1.42.19,2.61.26,3.57A5.94,5.94,0,0,0,191.37,259.84Z" transform="translate(-141.15 -103.03)"/><path class="cls-4" d="M152,259.66a8.25,8.25,0,0,0,1.56-.1c1-.09,2.42-.23,4.2-.34,3.55-.26,8.47-.45,13.91-.41s10.36.29,13.91.57c1.78.13,3.22.27,4.21.36a8.17,8.17,0,0,0,1.55.1,7.48,7.48,0,0,0-1.52-.31c-1-.16-2.42-.36-4.2-.54-3.56-.39-8.49-.7-14-.74a134.64,134.64,0,0,0-13.94.57c-1.78.17-3.22.37-4.2.53A8,8,0,0,0,152,259.66Z" transform="translate(-141.15 -103.03)"/><path class="cls-4" d="M215.65,299.09a2.85,2.85,0,0,0,.17-.51l.4-1.49c.34-1.3.79-3.2,1.31-5.54,1-4.69,2.27-11.22,3.54-18.44s2.44-13.76,3.38-18.46c.46-2.29.85-4.18,1.13-5.58.12-.6.22-1.1.3-1.52A2.1,2.1,0,0,0,226,247a1.81,1.81,0,0,0-.18.51l-.4,1.49c-.34,1.3-.78,3.2-1.3,5.54-1,4.69-2.28,11.22-3.54,18.45s-2.44,13.75-3.39,18.45c-.46,2.29-.84,4.18-1.13,5.58-.12.6-.22,1.1-.3,1.52A1.76,1.76,0,0,0,215.65,299.09Z" transform="translate(-141.15 -103.03)"/><path class="cls-4" d="M162.12,292a2,2,0,0,0,.54.11l1.56.23,5.73.77c4.85.65,11.52,1.62,18.9,2.71s14.06,2,18.92,2.55c2.43.27,4.39.48,5.76.59l1.56.12a2.05,2.05,0,0,0,.56,0,2.56,2.56,0,0,0-.54-.11l-1.56-.23-5.73-.76c-4.84-.65-11.52-1.63-18.9-2.72s-14.06-2-18.92-2.55c-2.43-.27-4.39-.47-5.76-.59l-1.56-.12A2.05,2.05,0,0,0,162.12,292Z" transform="translate(-141.15 -103.03)"/><path class="cls-6" d="M377.5,465.19l-112.36-.52c-13.51-.06-24.41-11.37-24.36-25.25L242,150c.06-13.89,11.07-25.11,24.59-25l112.36.52c13.51.06,24.42,11.37,24.36,25.26l-1.23,289.44C402,454,391,465.25,377.5,465.19Z" transform="translate(-141.15 -103.03)"/><path class="cls-1" d="M394.4,389.33a2.48,2.48,0,1,1-2.47-2.47A2.47,2.47,0,0,1,394.4,389.33Z" transform="translate(-141.15 -103.03)"/><path class="cls-1" d="M391.93,394.76a8.57,8.57,0,0,1-.22-2.71,8.66,8.66,0,0,1,.22-2.72,8.66,8.66,0,0,1,.22,2.72A8.57,8.57,0,0,1,391.93,394.76Z" transform="translate(-141.15 -103.03)"/><path class="cls-7" d="M381.2,135l-22.47-.1a5.58,5.58,0,0,0-5.48,5.67v4.08a5.59,5.59,0,0,1-5.48,5.68l-43.8-.2a5.58,5.58,0,0,1-5.43-5.73v-4.08a5.59,5.59,0,0,0-5.43-5.73l-7.9,0-19.67-.1a17.68,17.68,0,0,0-17.76,17.61l-1.2,283.6a17.68,17.68,0,0,0,17.6,17.75l115.66.54a17.68,17.68,0,0,0,17.76-17.61l1.2-283.6A17.67,17.67,0,0,0,381.2,135Z" transform="translate(-141.15 -103.03)"/><path class="cls-2" d="M254.26,358.79c1-.74,49.36-22.05,49.36-22.05l-56.5-28.18L246.93,354Z" transform="translate(-141.15 -103.03)"/><polygon class="cls-8" points="116.06 204.65 157.28 183.7 112.98 159.15 106.15 160.86 105.99 200.59 116.06 204.65"/><polygon class="cls-9" points="116.06 204.65 157.28 183.7 112.98 159.15 106.15 160.86 105.99 200.59 116.06 204.65"/><polygon class="cls-2" points="107.64 156.29 234.69 96.95 108.81 55.82 107.64 156.29"/><polygon class="cls-2" points="106.17 310.83 164.22 281.03 250.65 331.88 230.06 349.93 156.31 349.93 106.17 319.28 106.17 310.83"/><polygon class="cls-2" points="175.65 277.81 247.45 320.38 255.45 319.47 255.45 278.54 216.11 257.71 175.65 277.81"/><polygon class="cls-2" points="187.45 237.16 255.14 275.24 255.14 225.46 230.65 214.97 187.45 237.16"/><polygon class="cls-2" points="115.15 258.14 154.86 279.93 203.05 254.97 164.77 235.5 115.15 258.14"/><polygon class="cls-2" points="174.76 183.43 231.02 211.3 257.1 197.98 257.27 179.3 219.27 160.86 174.76 183.43"/><polygon class="cls-2" points="117.23 207.74 173.49 235.62 199.57 222.29 199.74 203.61 161.74 185.17 117.23 207.74"/><polygon class="cls-2" points="125.03 157.64 170.87 180.6 213.62 157.64 169.33 137.43 125.03 157.64"/><path class="cls-8" d="M354.78,407.37A4.81,4.81,0,0,1,354,407l-2.37-1.33-9.1-5.27-33.71-19.76-.71-.41.73-.37L353,357.32l0,1-33-17.59-1.05-.56,1.05-.55,45.87-24.08v1.17L360.38,314,257.65,261.84l-1-.49,1-.47,54.52-26,15.13-7.12,4-1.83,1-.45a1.64,1.64,0,0,1,.36-.13,1.25,1.25,0,0,1-.32.2l-1,.52-3.92,2-15,7.39-54.31,26.41v-.95L361,312.79l5.47,2.77,1.13.57-1.12.59-45.9,24v-1.11l33,17.69,1,.52-1,.5L309.19,380.6l0-.78,33.5,20.11,9,5.47,2.31,1.44A4.91,4.91,0,0,1,354.78,407.37Z" transform="translate(-141.15 -103.03)"/><path class="cls-5" d="M344.91,198.4c0-8.38-8.79-13.68-17.76-9.48a10.09,10.09,0,0,0-4.72,4.52c-2.26,4.37-1.26,9.36.78,13.51l7,17.69a3,3,0,0,0,5.61,0l6.84-17.79C345,201.42,344.91,198.4,344.91,198.4Zm-8.42,7.28c-6,3.51-12.15-3-8.84-9.37a5,5,0,0,1,1.92-2c6-3.51,12.14,3,8.83,9.37A5,5,0,0,1,336.49,205.68Z" transform="translate(-141.15 -103.03)"/><polygon class="cls-3" points="190.37 186.97 190.16 177.08 215.94 189.56 215.94 199.83 190.37 186.97"/><polygon class="cls-1" points="215.94 189.56 247.95 173.66 247.95 184.73 215.94 199.83 215.94 189.56"/><polygon class="cls-3" points="190.16 177.08 221.58 161.37 247.95 173.66 215.94 189.56 190.16 177.08"/><polygon class="cls-7" points="193.53 181.35 193.53 186.15 196.05 187.28 196.05 182.7 193.53 181.35"/><polygon class="cls-7" points="197.56 183.13 197.56 187.92 200.08 189.06 200.08 184.48 197.56 183.13"/><polygon class="cls-1" points="109.27 124.58 109.27 111.71 139.78 126.49 139.78 138.65 109.27 124.58"/><polygon class="cls-3" points="139.78 126.49 177.68 107.66 177.68 120.77 139.78 138.65 139.78 126.49"/><polygon class="cls-7" points="109.27 111.71 146.46 93.12 177.68 107.66 139.78 126.49 109.27 111.71"/><polygon class="cls-7" points="113.26 116.77 113.26 122.45 116.24 123.79 116.24 118.37 113.26 116.77"/><polygon class="cls-7" points="118.03 118.88 118.03 124.55 121.01 125.9 121.01 120.47 118.03 118.88"/><path class="cls-1" d="M342.39,335.16V345.3l10.88,5.36V340.19Z" transform="translate(-141.15 -103.03)"/><polygon class="cls-1" points="226.01 230.52 212.11 237.16 212.11 247.63 226.01 239.88 226.01 230.52"/><polygon class="cls-3" points="201.24 232.13 215.01 225.46 226.01 230.52 212.11 237.16 201.24 232.13"/><polygon class="cls-7" points="205.1 239.41 205.1 244.2 207.62 245.34 207.62 240.76 205.1 239.41"/><path class="cls-1" d="M254.56,329.91v10.15l10.87,5.36V335Z" transform="translate(-141.15 -103.03)"/><polygon class="cls-1" points="138.18 225.27 124.28 231.92 124.28 242.39 138.18 234.64 138.18 225.27"/><polygon class="cls-3" points="113.41 226.88 127.18 220.22 138.18 225.27 124.28 231.92 113.41 226.88"/><polygon class="cls-7" points="117.27 234.16 117.27 238.96 119.79 240.09 119.79 235.51 117.27 234.16"/><path class="cls-3" d="M299.64,263v10.15l10.87,5.36V268Z" transform="translate(-141.15 -103.03)"/><polygon class="cls-1" points="183.25 158.35 169.36 165 169.36 175.47 183.25 167.72 183.25 158.35"/><polygon class="cls-3" points="158.49 159.96 172.26 153.29 183.25 158.35 169.36 165 158.49 159.96"/><polygon class="cls-1" points="162.35 167.24 162.35 172.04 164.87 173.18 164.87 168.59 162.35 167.24"/><path class="cls-1" d="M287.55,349.89V360l10.88,5.36V354.92Z" transform="translate(-141.15 -103.03)"/><polygon class="cls-2" points="171.17 245.24 157.28 251.89 157.28 262.36 171.17 254.61 171.17 245.24"/><polygon class="cls-3" points="146.4 246.85 160.17 240.19 171.17 245.24 157.28 251.89 146.4 246.85"/><polygon class="cls-7" points="150.26 254.13 150.26 258.93 152.78 260.07 152.78 255.48 150.26 254.13"/><path class="cls-3" d="M332.44,374.38V387.1l22.92,13.49V387.46Z" transform="translate(-141.15 -103.03)"/><polygon class="cls-1" points="231.63 275.05 214.21 284.43 214.21 297.56 231.63 287.84 231.63 275.05"/><polygon class="cls-7" points="191.29 271.35 208.56 262.99 231.63 275.05 214.21 284.43 191.29 271.35"/><polygon class="cls-7" points="199.94 283.11 199.94 289.12 203.1 291.02 203.1 285.07 199.94 283.11"/><path class="cls-1" d="M277.32,400.55v12.72l22.92,13.49V413.63Z" transform="translate(-141.15 -103.03)"/><polygon class="cls-7" points="186.43 295.79 159.09 310.6 159.09 323.73 186.51 308.54 186.43 295.79"/><polygon class="cls-3" points="136.17 297.52 165.09 283.52 186.51 295.83 159.09 310.6 136.17 297.52"/><polygon class="cls-7" points="144.82 309.28 144.82 315.3 147.98 317.19 147.98 311.25 144.82 309.28"/><polygon class="cls-3" points="222.91 249.98 222.91 300.76 237.21 308.16 237.21 256.73 222.91 249.98"/><polygon class="cls-7" points="233.47 245.1 222.91 249.98 237.21 256.73 246.83 251.31 233.47 245.1"/><polygon class="cls-1" points="237.21 256.73 237.21 308.16 245.91 303.47 246.83 251.31 237.21 256.73"/><polygon class="cls-3" points="162.47 208.84 162.47 259.63 176.77 267.02 176.77 215.59 162.47 208.84"/><polygon class="cls-7" points="173.03 203.97 162.47 208.84 176.77 215.59 186.39 210.18 173.03 203.97"/><polygon class="cls-1" points="176.77 215.59 176.77 267.02 185.46 262.73 186.39 210.18 176.77 215.59"/><path class="cls-1" d="M310.11,408.45v12.72L333,434.66V421.53Z" transform="translate(-141.15 -103.03)"/><polygon class="cls-7" points="209.3 309.12 191.87 318.5 191.87 331.63 209.3 321.91 209.3 309.12"/><polygon class="cls-3" points="168.96 305.42 186.43 295.79 209.3 309.12 191.87 318.5 168.96 305.42"/><polygon class="cls-7" points="177.61 317.18 177.61 323.19 180.77 325.1 180.77 319.15 177.61 317.18"/><path class="cls-1" d="M314.58,238.28" transform="translate(-141.15 -103.03)"/><polygon class="cls-2" points="219.92 153.82 178.19 135.01 236.3 105.43 255.37 133.86 219.92 153.82"/><polygon class="cls-8" points="257.06 171.09 257.35 138.52 225 156.94 257.06 171.09"/><path class="cls-1" d="M373.63,306.73a2.48,2.48,0,1,1-2.47-2.47A2.48,2.48,0,0,1,373.63,306.73Z" transform="translate(-141.15 -103.03)"/><path class="cls-1" d="M371.16,312.16a8.24,8.24,0,0,1-.22-2.71,8.32,8.32,0,0,1,.22-2.72,8.85,8.85,0,0,1,.21,2.72A8.76,8.76,0,0,1,371.16,312.16Z" transform="translate(-141.15 -103.03)"/><path class="cls-1" d="M306.1,300.67a2.48,2.48,0,1,1-2.48-2.48A2.48,2.48,0,0,1,306.1,300.67Z" transform="translate(-141.15 -103.03)"/><path class="cls-1" d="M303.62,306.1a8.66,8.66,0,0,1-.22-2.72,8.57,8.57,0,0,1,.22-2.71,8.57,8.57,0,0,1,.22,2.71A8.66,8.66,0,0,1,303.62,306.1Z" transform="translate(-141.15 -103.03)"/><path class="cls-1" d="M273,335.23a2.48,2.48,0,1,1-2.48-2.48A2.47,2.47,0,0,1,273,335.23Z" transform="translate(-141.15 -103.03)"/><path class="cls-1" d="M270.53,340.66a8.85,8.85,0,0,1-.21-2.72,8.76,8.76,0,0,1,.21-2.71,8.24,8.24,0,0,1,.22,2.71A8.32,8.32,0,0,1,270.53,340.66Z" transform="translate(-141.15 -103.03)"/><path class="cls-1" d="M275.49,308.56a2.48,2.48,0,1,1-2.48-2.48A2.47,2.47,0,0,1,275.49,308.56Z" transform="translate(-141.15 -103.03)"/><path class="cls-1" d="M273,314a8.66,8.66,0,0,1-.22-2.72,8.57,8.57,0,0,1,.22-2.71,8.57,8.57,0,0,1,.22,2.71A8.66,8.66,0,0,1,273,314Z" transform="translate(-141.15 -103.03)"/><path class="cls-1" d="M336.58,306.11a2.48,2.48,0,1,1-2.47-2.48A2.47,2.47,0,0,1,336.58,306.11Z" transform="translate(-141.15 -103.03)"/><path class="cls-1" d="M334.11,311.54a16.86,16.86,0,0,1,0-5.43,16.86,16.86,0,0,1,0,5.43Z" transform="translate(-141.15 -103.03)"/><path class="cls-1" d="M375.69,324.66a2.48,2.48,0,1,1-2.48-2.48A2.48,2.48,0,0,1,375.69,324.66Z" transform="translate(-141.15 -103.03)"/><path class="cls-1" d="M373.21,330.09a8.66,8.66,0,0,1-.22-2.72,8.57,8.57,0,0,1,.22-2.71,8.57,8.57,0,0,1,.22,2.71A8.66,8.66,0,0,1,373.21,330.09Z" transform="translate(-141.15 -103.03)"/><path class="cls-1" d="M377.27,339.22a2.48,2.48,0,1,1-2.47-2.48A2.48,2.48,0,0,1,377.27,339.22Z" transform="translate(-141.15 -103.03)"/><path class="cls-1" d="M374.8,344.65a8.66,8.66,0,0,1-.22-2.72,8.57,8.57,0,0,1,.22-2.71,8.76,8.76,0,0,1,.21,2.71A8.85,8.85,0,0,1,374.8,344.65Z" transform="translate(-141.15 -103.03)"/><path class="cls-1" d="M307.85,369.43a2.48,2.48,0,1,1-2.48-2.48A2.47,2.47,0,0,1,307.85,369.43Z" transform="translate(-141.15 -103.03)"/><path class="cls-1" d="M305.37,374.86a8.85,8.85,0,0,1-.21-2.72,8.76,8.76,0,0,1,.21-2.71,8.24,8.24,0,0,1,.22,2.71A8.32,8.32,0,0,1,305.37,374.86Z" transform="translate(-141.15 -103.03)"/><circle class="cls-1" cx="245.56" cy="309.57" r="2.48"/><path class="cls-1" d="M386.71,418a16.86,16.86,0,0,1,0-5.43,16.86,16.86,0,0,1,0,5.43Z" transform="translate(-141.15 -103.03)"/><path class="cls-1" d="M341.87,439.68a2.48,2.48,0,1,1-2.47-2.48A2.47,2.47,0,0,1,341.87,439.68Z" transform="translate(-141.15 -103.03)"/><path class="cls-1" d="M339.4,445.11a8.66,8.66,0,0,1-.22-2.72,8.57,8.57,0,0,1,.22-2.71,8.57,8.57,0,0,1,.22,2.71A8.66,8.66,0,0,1,339.4,445.11Z" transform="translate(-141.15 -103.03)"/><path class="cls-1" d="M322.82,432.19a2.48,2.48,0,1,1-2.48-2.47A2.48,2.48,0,0,1,322.82,432.19Z" transform="translate(-141.15 -103.03)"/><path class="cls-1" d="M320.34,437.62a8.57,8.57,0,0,1-.22-2.71,8.66,8.66,0,0,1,.22-2.72,8.66,8.66,0,0,1,.22,2.72A8.57,8.57,0,0,1,320.34,437.62Z" transform="translate(-141.15 -103.03)"/><path class="cls-1" d="M366.54,426.76a2.48,2.48,0,1,1-2.48-2.47A2.48,2.48,0,0,1,366.54,426.76Z" transform="translate(-141.15 -103.03)"/><path class="cls-1" d="M364.06,432.19a8.57,8.57,0,0,1-.22-2.71,8.66,8.66,0,0,1,.22-2.72,8.66,8.66,0,0,1,.22,2.72A8.57,8.57,0,0,1,364.06,432.19Z" transform="translate(-141.15 -103.03)"/><circle class="cls-1" cx="185.63" cy="276.06" r="2.48"/><path class="cls-1" d="M326.78,384.52a8.85,8.85,0,0,1-.21-2.72,8.76,8.76,0,0,1,.21-2.71,8.24,8.24,0,0,1,.22,2.71A8.32,8.32,0,0,1,326.78,384.52Z" transform="translate(-141.15 -103.03)"/><path class="cls-1" d="M335.5,354.92a2.48,2.48,0,1,1-2.47-2.48A2.48,2.48,0,0,1,335.5,354.92Z" transform="translate(-141.15 -103.03)"/><path class="cls-1" d="M333,360.35a16.86,16.86,0,0,1,0-5.43,17.66,17.66,0,0,1,0,5.43Z" transform="translate(-141.15 -103.03)"/><path class="cls-1" d="M275.49,357.64a2.48,2.48,0,1,1-2.48-2.48A2.47,2.47,0,0,1,275.49,357.64Z" transform="translate(-141.15 -103.03)"/><path class="cls-1" d="M273,363.07a8.66,8.66,0,0,1-.22-2.72,8.57,8.57,0,0,1,.22-2.71,8.57,8.57,0,0,1,.22,2.71A8.66,8.66,0,0,1,273,363.07Z" transform="translate(-141.15 -103.03)"/><path class="cls-1" d="M389.82,335.23a2.48,2.48,0,1,1-2.48-2.48A2.47,2.47,0,0,1,389.82,335.23Z" transform="translate(-141.15 -103.03)"/><path class="cls-1" d="M387.34,340.66a8.66,8.66,0,0,1-.22-2.72,8.57,8.57,0,0,1,.22-2.71,8.57,8.57,0,0,1,.22,2.71A8.66,8.66,0,0,1,387.34,340.66Z" transform="translate(-141.15 -103.03)"/><path class="cls-1" d="M383.17,298.19a2.48,2.48,0,1,1-2.47-2.47A2.47,2.47,0,0,1,383.17,298.19Z" transform="translate(-141.15 -103.03)"/><path class="cls-1" d="M380.7,303.62a8.57,8.57,0,0,1-.22-2.71,8.66,8.66,0,0,1,.22-2.72,8.66,8.66,0,0,1,.22,2.72A8.57,8.57,0,0,1,380.7,303.62Z" transform="translate(-141.15 -103.03)"/><circle class="cls-1" cx="189.41" cy="162.43" r="2.48"/><path class="cls-1" d="M330.57,270.89a16.86,16.86,0,0,1,0-5.43,17.66,17.66,0,0,1,0,5.43Z" transform="translate(-141.15 -103.03)"/><path class="cls-1" d="M285.71,312.16a2.48,2.48,0,1,1-2.47-2.47A2.48,2.48,0,0,1,285.71,312.16Z" transform="translate(-141.15 -103.03)"/><path class="cls-1" d="M283.24,317.59a8.57,8.57,0,0,1-.22-2.71,8.66,8.66,0,0,1,.22-2.72,8.66,8.66,0,0,1,.22,2.72A8.57,8.57,0,0,1,283.24,317.59Z" transform="translate(-141.15 -103.03)"/><path class="cls-1" d="M314.8,247.79a2.48,2.48,0,1,1-2.48-2.48A2.47,2.47,0,0,1,314.8,247.79Z" transform="translate(-141.15 -103.03)"/><path class="cls-1" d="M312.32,253.22a8.66,8.66,0,0,1-.22-2.72,8.57,8.57,0,0,1,.22-2.71,8.57,8.57,0,0,1,.22,2.71A8.66,8.66,0,0,1,312.32,253.22Z" transform="translate(-141.15 -103.03)"/><path class="cls-1" d="M365.29,242.36a2.48,2.48,0,1,1-2.48-2.48A2.47,2.47,0,0,1,365.29,242.36Z" transform="translate(-141.15 -103.03)"/><path class="cls-1" d="M362.81,247.79a8.66,8.66,0,0,1-.22-2.72,8.57,8.57,0,0,1,.22-2.71,8.57,8.57,0,0,1,.22,2.71A8.66,8.66,0,0,1,362.81,247.79Z" transform="translate(-141.15 -103.03)"/><path class="cls-1" d="M379.24,240.08a2.48,2.48,0,1,1-2.48-2.48A2.48,2.48,0,0,1,379.24,240.08Z" transform="translate(-141.15 -103.03)"/><path class="cls-1" d="M376.76,245.51a8.85,8.85,0,0,1-.21-2.72,8.76,8.76,0,0,1,.21-2.71,8.24,8.24,0,0,1,.22,2.71A8.32,8.32,0,0,1,376.76,245.51Z" transform="translate(-141.15 -103.03)"/><path class="cls-1" d="M373.63,221.81a2.48,2.48,0,1,1-2.47-2.47A2.48,2.48,0,0,1,373.63,221.81Z" transform="translate(-141.15 -103.03)"/><path class="cls-1" d="M371.16,227.24a8.24,8.24,0,0,1-.22-2.71,8.32,8.32,0,0,1,.22-2.72,8.85,8.85,0,0,1,.21,2.72A8.76,8.76,0,0,1,371.16,227.24Z" transform="translate(-141.15 -103.03)"/><path class="cls-1" d="M295.89,263.89a2.48,2.48,0,1,1-2.48-2.48A2.48,2.48,0,0,1,295.89,263.89Z" transform="translate(-141.15 -103.03)"/><path class="cls-1" d="M293.41,269.32a8.85,8.85,0,0,1-.21-2.72,8.76,8.76,0,0,1,.21-2.71,8.24,8.24,0,0,1,.22,2.71A8.32,8.32,0,0,1,293.41,269.32Z" transform="translate(-141.15 -103.03)"/><path class="cls-1" d="M353.43,240.46A2.48,2.48,0,1,1,351,238,2.47,2.47,0,0,1,353.43,240.46Z" transform="translate(-141.15 -103.03)"/><path class="cls-1" d="M351,245.89a8.57,8.57,0,0,1-.22-2.71,8.66,8.66,0,0,1,.22-2.72,8.66,8.66,0,0,1,.22,2.72A8.57,8.57,0,0,1,351,245.89Z" transform="translate(-141.15 -103.03)"/><path class="cls-1" d="M283.91,184.7a2.48,2.48,0,1,1-2.47-2.48A2.48,2.48,0,0,1,283.91,184.7Z" transform="translate(-141.15 -103.03)"/><path class="cls-1" d="M281.44,190.13a8.66,8.66,0,0,1-.22-2.72,8.57,8.57,0,0,1,.22-2.71,8.57,8.57,0,0,1,.22,2.71A8.66,8.66,0,0,1,281.44,190.13Z" transform="translate(-141.15 -103.03)"/><path class="cls-1" d="M312.32,198.26a2.48,2.48,0,1,1-2.47-2.48A2.48,2.48,0,0,1,312.32,198.26Z" transform="translate(-141.15 -103.03)"/><path class="cls-1" d="M309.85,203.69a8.66,8.66,0,0,1-.22-2.72,8.57,8.57,0,0,1,.22-2.71,8.76,8.76,0,0,1,.21,2.71A8.85,8.85,0,0,1,309.85,203.69Z" transform="translate(-141.15 -103.03)"/><path class="cls-1" d="M267.17,241.07a2.48,2.48,0,1,1-2.48-2.47A2.48,2.48,0,0,1,267.17,241.07Z" transform="translate(-141.15 -103.03)"/><path class="cls-1" d="M264.69,246.5a8.57,8.57,0,0,1-.22-2.71,8.66,8.66,0,0,1,.22-2.72,8.66,8.66,0,0,1,.22,2.72A8.57,8.57,0,0,1,264.69,246.5Z" transform="translate(-141.15 -103.03)"/><path class="cls-1" d="M269.64,200.73a2.48,2.48,0,1,1-2.47-2.47A2.48,2.48,0,0,1,269.64,200.73Z" transform="translate(-141.15 -103.03)"/><path class="cls-1" d="M267.17,206.16a8.57,8.57,0,0,1-.22-2.71,8.66,8.66,0,0,1,.22-2.72,8.66,8.66,0,0,1,.22,2.72A8.57,8.57,0,0,1,267.17,206.16Z" transform="translate(-141.15 -103.03)"/><polygon class="cls-2" points="235.04 213.15 255.45 202.33 255.37 221.84 235.04 213.15"/><polygon class="cls-2" points="150.26 282.34 105.54 305.42 105.54 262.36 110.5 260.15 150.26 282.34"/><path class="cls-8" d="M358.21,408.45a2.85,2.85,0,1,1-2.85-2.85A2.86,2.86,0,0,1,358.21,408.45Z" transform="translate(-141.15 -103.03)"/><polygon class="cls-2" points="243.17 101.73 257.41 106.06 257.41 128.5 243.17 101.73"/><path class="cls-8" d="M398.71,174.78l-.09-24.49A17.66,17.66,0,0,0,381.2,135l-22.47-.1a5.58,5.58,0,0,0-5.48,5.67v4.08a5.59,5.59,0,0,1-5.48,5.68l-43.8-.2a5.58,5.58,0,0,1-5.43-5.73v-4.08a5.59,5.59,0,0,0-5.43-5.73l-7.9,0-19.67-.1a17.62,17.62,0,0,0-12,4.63c-2,3.8-4.12,9.2-3.14,13.34L398.6,200.67Z" transform="translate(-141.15 -103.03)"/><path class="cls-9" d="M398.71,174.78l-.09-24.49A17.66,17.66,0,0,0,381.2,135l-22.47-.1a5.58,5.58,0,0,0-5.48,5.67v4.08a5.59,5.59,0,0,1-5.48,5.68l-43.8-.2a5.58,5.58,0,0,1-5.43-5.73v-4.08a5.59,5.59,0,0,0-5.43-5.73l-7.9,0-19.67-.1a17.62,17.62,0,0,0-12,4.63c-2,3.8-4.12,9.2-3.14,13.34L398.6,200.67Z" transform="translate(-141.15 -103.03)"/><path class="cls-4" d="M381.2,135l.61,0a13.46,13.46,0,0,1,1.79.15,16.56,16.56,0,0,1,6.62,2.32,17.06,17.06,0,0,1,4,3.28,17.73,17.73,0,0,1,3.34,5.29,18.34,18.34,0,0,1,1.3,7.18q0,3.91,0,8.34c-.08,23.56-.2,57.64-.35,99.76s-.36,92.26-.58,148q0,10.44-.09,21.14c0,1.78,0,3.56,0,5.36a18.89,18.89,0,0,1-.7,5.38,17.87,17.87,0,0,1-2.27,5,19.25,19.25,0,0,1-3.69,4.06,17.91,17.91,0,0,1-10.21,3.92c-.94.06-1.86.05-2.78,0h-2.77l-5.56,0-22.52-.1-46.21-.21-23.64-.11-11.94-.05A18.66,18.66,0,0,1,254,450.43a18.07,18.07,0,0,1-7-9.7,19.2,19.2,0,0,1-.71-6c0-2,0-4,0-6q.06-11.91.1-23.65.1-23.47.2-46.22c.13-30.31.26-59.54.38-87.38s.25-54.31.36-79.08q.07-18.57.16-35.83c0-1.44,0-2.87,0-4.29,0-.71.07-1.43.11-2.14s.18-1.42.37-2.11a18.14,18.14,0,0,1,3.74-7.46,18,18,0,0,1,14.43-6.33l15.41.08,7.42,0,3.63,0a5.6,5.6,0,0,1,3.46,1,5.81,5.81,0,0,1,2.15,2.84,9.44,9.44,0,0,1,.34,3.49c0,.57,0,1.15,0,1.72a13.52,13.52,0,0,0,0,1.69,5.65,5.65,0,0,0,1.31,3,5.24,5.24,0,0,0,2.71,1.7,6.08,6.08,0,0,0,1.6.16H306l6.38,0,23.31.13,10.28.06c.81,0,1.64,0,2.41,0a5.16,5.16,0,0,0,2.17-.75,5.58,5.58,0,0,0,2.5-3.56,9.69,9.69,0,0,0,.15-2.15c0-.71,0-1.42,0-2.11a11.76,11.76,0,0,1,.1-2.06,6,6,0,0,1,.67-1.89,5.54,5.54,0,0,1,2.83-2.48,8.85,8.85,0,0,1,3.51-.36l11.47.07,7.05.06,2.4,0h-9.45l-11.47,0a8.7,8.7,0,0,0-3.46.36,5.47,5.47,0,0,0-2.75,2.42,6.11,6.11,0,0,0-.65,1.84,12.42,12.42,0,0,0-.09,2c0,.69,0,1.4,0,2.11a9.6,9.6,0,0,1-.14,2.19,5.8,5.8,0,0,1-2.57,3.67,5.37,5.37,0,0,1-2.25.79c-.82.07-1.61,0-2.43,0l-10.28,0-23.31-.09-6.39,0h-1.62a6.25,6.25,0,0,1-1.66-.17,5.44,5.44,0,0,1-2.84-1.78,5.84,5.84,0,0,1-1.38-3.11,12.4,12.4,0,0,1-.05-1.72v-1.72a9.21,9.21,0,0,0-.33-3.4,5.53,5.53,0,0,0-2.05-2.7,5.37,5.37,0,0,0-3.3-.93h-3.64l-7.41,0-15.41-.07a17.64,17.64,0,0,0-14.18,6.23,17.69,17.69,0,0,0-3.67,7.33c-.18.67-.23,1.37-.36,2.06s-.09,1.4-.1,2.11c0,1.42,0,2.85,0,4.29q-.08,17.24-.14,35.83c-.1,24.77-.2,51.23-.31,79.08s-.24,57.08-.36,87.38q-.09,22.72-.19,46.23-.06,11.73-.1,23.64l0,6a19.19,19.19,0,0,0,.7,5.85,17.65,17.65,0,0,0,6.79,9.46,18.2,18.2,0,0,0,11.23,3.14l11.94.06,23.64.11,46.21.21,22.52.11,5.56,0,2.77,0c.93,0,1.85,0,2.75,0a17.53,17.53,0,0,0,10-3.82,18.89,18.89,0,0,0,3.61-4,17.63,17.63,0,0,0,2.23-4.85,18.78,18.78,0,0,0,.68-5.27c0-1.8,0-3.58,0-5.37q0-10.69.1-21.13c.25-55.69.48-105.84.67-148s.37-76.19.49-99.75c0-3,0-5.73.05-8.34a18.12,18.12,0,0,0-1.27-7.13,17.49,17.49,0,0,0-3.3-5.26,17.55,17.55,0,0,0-10.57-5.64,14.15,14.15,0,0,0-1.78-.17Z" transform="translate(-141.15 -103.03)"/><rect class="cls-10" x="65.4" y="254.75" width="446.44" height="65.5"/><g class="cls-11"><rect x="65.4" y="254.75" width="446.44" height="65.5"/></g><circle class="cls-4" cx="266.54" cy="422.85" r="43.05" transform="translate(-168.94 -84.19) rotate(-3.85)"/><path class="cls-4" d="M223.5,422.12s0,.08,0,.11a43,43,0,1,0,86.09,1.24v-.11Z" transform="translate(-141.15 -103.03)"/><path class="cls-7" d="M236.32,422.42A30.22,30.22,0,1,0,267,392.63,30.21,30.21,0,0,0,236.32,422.42Z" transform="translate(-141.15 -103.03)"/><path class="cls-1" d="M267,392.63a30.22,30.22,0,0,0-30.65,29.79l60.44.87A30.23,30.23,0,0,0,267,392.63Z" transform="translate(-141.15 -103.03)"/><path class="cls-4" d="M248.13,422.59a18.41,18.41,0,1,0,18.67-18.14A18.41,18.41,0,0,0,248.13,422.59Z" transform="translate(-141.15 -103.03)"/><circle class="cls-4" cx="595.72" cy="422.85" r="43.05" transform="translate(-164.61 -67.87) rotate(-3.32)"/><path class="cls-4" d="M552.68,422.12v.11a43,43,0,1,0,86.08,1.24v-.11Z" transform="translate(-141.15 -103.03)"/><path class="cls-7" d="M565.5,422.42a30.22,30.22,0,1,0,30.66-29.79A30.21,30.21,0,0,0,565.5,422.42Z" transform="translate(-141.15 -103.03)"/><path class="cls-1" d="M596.16,392.63a30.23,30.23,0,0,0-30.66,29.79l60.44.87A30.22,30.22,0,0,0,596.16,392.63Z" transform="translate(-141.15 -103.03)"/><path class="cls-4" d="M577.31,422.59A18.41,18.41,0,1,0,596,404.45,18.42,18.42,0,0,0,577.31,422.59Z" transform="translate(-141.15 -103.03)"/><path class="cls-10" d="M323,320.93s-63.39,4.68-86.89,9.95c-16.56,3.71-48.49,10.12-48.1,30.21l2.53,14.4s-11.85,5.41-11.85,19.21-2.89,35.22,24.75,36.07c4.56.14,13.22,0,13.22,0s-5.31-58.88,48.78-60.6c55-1.75,51.38,60.06,51.38,60.06H546.45S537,370,596.27,369.92s50.22,60.71,50.22,60.71,21.79,1.88,31.93-16.43,7.5-31.35,7.5-31.35l-.33-11.58a7.5,7.5,0,0,0-7.21-7.27h0s4-29.15-2.11-34.19-39.37-35.48-39.37-35.48l1.59-1a3.73,3.73,0,0,0-.77-6.69c-12.64-4.35-37.63-12.95-43.51-15a11,11,0,0,0-2.73-.58c-3.5-.27-13.43-.9-31.65-1.09-22.21-.24-110.35,0-110.35,0s-30.33,2.5-47.23,9.93C384.48,287.73,323,320.93,323,320.93Z" transform="translate(-141.15 -103.03)"/><g class="cls-12"><path d="M194.73,393.11c-2.3-.47-5.82-.52-7.57,1-1.31,1.16-1.65,3-1.85,4.76a20.38,20.38,0,0,0,.16,7.14,8.74,8.74,0,0,0,4,5.69,5.63,5.63,0,0,0,6.62-.79c1.5-1.6,1.67-4,1.63-6.18-.06-3.11.19-5.74-.38-8.79a4.24,4.24,0,0,0-.79-1.77,2.37,2.37,0,0,0-1.84-1.1" transform="translate(-141.15 -103.03)"/></g><path class="cls-7" d="M190.51,375.49c6.73,0,13.25-.37,20-.82a2.45,2.45,0,0,0,2.75-3.07c0-3.61-.15-7.71-2.89-10.06a10.8,10.8,0,0,0-6.15-2.08A39.82,39.82,0,0,0,188,361.09Z" transform="translate(-141.15 -103.03)"/><path class="cls-13" d="M330.24,428.39s0-.19-.05-.57-.06-1-.11-1.69c-.08-1.5-.2-3.69-.36-6.5s-.34-6.27-.75-10.25A79.53,79.53,0,0,0,326.6,396a60.74,60.74,0,0,0-6.48-15.09,47.41,47.41,0,0,0-12.52-14c-10.86-7.72-25.53-12.09-40.87-12.27s-30,4.67-40.59,12.77A59.75,59.75,0,0,0,213,380.88a63.8,63.8,0,0,0-7.71,14.51A58.84,58.84,0,0,0,202,408.56a54.77,54.77,0,0,0-.39,10.24,52.15,52.15,0,0,0,.78,6.44c.14.73.24,1.28.31,1.67s.08.57.08.57-.05-.19-.13-.56-.19-.94-.34-1.66a48.88,48.88,0,0,1-.87-6.45,54.6,54.6,0,0,1,.33-10.28A58.84,58.84,0,0,1,205,395.28a63.73,63.73,0,0,1,7.71-14.6,59.78,59.78,0,0,1,13.22-13.56c10.64-8.16,25.35-13.07,40.82-12.88s30.16,4.58,41.1,12.38a47.81,47.81,0,0,1,12.59,14.1,60.86,60.86,0,0,1,6.47,15.19,81.1,81.1,0,0,1,2.32,13.44c.38,4,.54,7.45.68,10.28s.21,5,.27,6.49c0,.74.06,1.3.07,1.69S330.24,428.39,330.24,428.39Z" transform="translate(-141.15 -103.03)"/><path class="cls-4" d="M332.68,429.39l0-.48,0-1.43c0-1.26-.1-3.13-.17-5.56-.14-4.88-.34-12-.6-21.1s-.55-20.11-.9-32.75q-.12-4.74-.26-9.78a32.63,32.63,0,0,1,.22-5.11c.12-.86.24-1.72.37-2.59s.35-1.72.53-2.6a51.86,51.86,0,0,1,3.58-10.3,51.29,51.29,0,0,1,5.89-9.8l0,0h0l39.77-25.06L391.82,296a83.25,83.25,0,0,1,11.37-6.35,116,116,0,0,1,12.35-4.93c2.11-.74,4.27-1.35,6.44-2s4.37-1.17,6.6-1.62a150.36,150.36,0,0,1,25.64-3.23A241.17,241.17,0,0,1,479,278h.24l0,.24L468.53,326v0l0,0a52.44,52.44,0,0,0-4.79,10.27A28.1,28.1,0,0,0,462.09,347c.27,3.53.37,7,.46,10.34s.13,6.61.19,9.77c.18,12.63.23,23.65.27,32.73s0,16.21,0,21.08c0,2.43,0,4.3,0,5.56,0,.63,0,1.1,0,1.43s0,.48,0,.48,0-.16,0-.48,0-.8,0-1.43c0-1.26,0-3.13,0-5.56,0-4.87-.07-12-.13-21.08s-.14-20.1-.35-32.72q-.1-4.74-.21-9.77c-.1-3.36-.2-6.8-.48-10.33a28.49,28.49,0,0,1,1.63-10.76,52.07,52.07,0,0,1,4.82-10.35l0,0c3.28-14.72,6.86-30.78,10.65-47.81l.18.24a246,246,0,0,0-24.76-.07,151.33,151.33,0,0,0-25.57,3.23c-2.22.45-4.4,1.07-6.58,1.62s-4.31,1.25-6.42,2a119.37,119.37,0,0,0-12.3,4.91,84.06,84.06,0,0,0-11.32,6.32l-10.75,6.76-39.8,25,0,0a51.28,51.28,0,0,0-5.85,9.7,52.21,52.21,0,0,0-3.58,10.24c-1.81,6.9-.89,13.7-.88,20,.31,12.64.59,23.66.81,32.75s.39,16.22.5,21.1c0,2.43.09,4.29.12,5.56,0,.63,0,1.1,0,1.43S332.68,429.39,332.68,429.39Z" transform="translate(-141.15 -103.03)"/><path class="cls-4" d="M478.76,279.35l.38,0,1.1,0,4.27-.11,15.85-.31,53.41-.91h.1l.07.08,7.48,9.16,21.38,26.21,2.43,3a17.35,17.35,0,0,1,2,3.21,16.77,16.77,0,0,1,.3,13.58l-2.44,5.67-7.38,17.09-2,4.63-.54,1.2c-.12.27-.19.41-.19.41a4,4,0,0,1,.15-.42l.5-1.22c.46-1.08,1.11-2.65,2-4.67l7.26-17.14c1.39-3.64,3.82-7.46,3.66-12.13a16.51,16.51,0,0,0-1.59-6.85,17.21,17.21,0,0,0-2-3.13l-2.44-3L561.1,287.46l-7.48-9.16.16.07-53.42.78-15.84.18-4.28,0h-1.48Z" transform="translate(-141.15 -103.03)"/><path class="cls-4" d="M451.79,350.38s.23,0,.64-.09a4.57,4.57,0,0,0,1.7-.68,4.37,4.37,0,0,0,1.72-2.24,5,5,0,0,0,.22-1.77,4.49,4.49,0,0,0-.5-1.91,4.27,4.27,0,0,0-3.71-2.26l-5.42,0H434a4.19,4.19,0,0,0-2.83,1.11,4.15,4.15,0,0,0-1.34,2.63,4.73,4.73,0,0,0,.51,2.84,4.25,4.25,0,0,0,2.06,1.83,6.54,6.54,0,0,0,2.68.33h2.63l4.73,0,6.84.07,1.87,0a4,4,0,0,1,.64,0,4,4,0,0,1-.64,0l-1.87,0-6.84.07-4.73,0h-2.63c-.46,0-.9,0-1.39,0a4.49,4.49,0,0,1-1.44-.32,4.74,4.74,0,0,1-2.26-2,5.14,5.14,0,0,1-.57-3.09A4.63,4.63,0,0,1,434,341l12.44,0,5.43,0a4.54,4.54,0,0,1,4.46,4.52,5.06,5.06,0,0,1-.26,1.85,4.46,4.46,0,0,1-1.86,2.3,4.32,4.32,0,0,1-1.76.62A2.55,2.55,0,0,1,451.79,350.38Z" transform="translate(-141.15 -103.03)"/><path class="cls-4" d="M570.83,350.38s.22,0,.64-.09a4.6,4.6,0,0,0,1.69-.68,4.32,4.32,0,0,0,1.72-2.24,4.79,4.79,0,0,0,.22-1.77,4.49,4.49,0,0,0-.5-1.91,4.27,4.27,0,0,0-3.71-2.26l-5.42,0H553a4.22,4.22,0,0,0-4.18,3.74,4.73,4.73,0,0,0,.51,2.84,4.3,4.3,0,0,0,2.06,1.83,6.54,6.54,0,0,0,2.68.33h2.63l4.73,0,6.85.07,1.86,0a4.21,4.21,0,0,1,.65,0,4.21,4.21,0,0,1-.65,0l-1.86,0-6.85.07-4.73,0h-2.63c-.46,0-.9,0-1.39,0a4.55,4.55,0,0,1-1.44-.32,4.72,4.72,0,0,1-2.25-2,5.07,5.07,0,0,1-.58-3.09A4.63,4.63,0,0,1,553,341l12.43,0,5.43,0a4.58,4.58,0,0,1,4,2.47,4.7,4.7,0,0,1,.51,2.05,5.06,5.06,0,0,1-.27,1.85,4.5,4.5,0,0,1-1.85,2.3,4.4,4.4,0,0,1-1.77.62A2.46,2.46,0,0,1,570.83,350.38Z" transform="translate(-141.15 -103.03)"/><path class="cls-7" d="M675.21,331H651.39a8.79,8.79,0,0,0-7.78,4.69h0a8.83,8.83,0,0,0-.26,7.64l9.34,21.21,23.85-.23S681.61,337.37,675.21,331Z" transform="translate(-141.15 -103.03)"/><path class="cls-4" d="M344.42,328l122.9-2.26,80-1.47L573.68,309a4.11,4.11,0,0,0,1.21-6L558.47,281.4a9.12,9.12,0,0,0-7.19-3.6l-89.46-.73s-33.69-2-60.23,12.9C373.66,305.61,344.42,328,344.42,328Z" transform="translate(-141.15 -103.03)"/><path class="cls-14" d="M400.75,279.3s6.16,2.81,2.15,5.41-66.28,41.86-66.28,41.86l-14.31-6.48C347.66,306,373.27,292.24,400.75,279.3Z" transform="translate(-141.15 -103.03)"/><path class="cls-4" d="M338.64,327.55l-.39.1-1.13.24-4.37.91c-3.8.75-9.3,1.81-16.13,3C303,334.13,284,336.87,263,338.69c-5.27.46-10.41.84-15.39,1.16s-9.76.63-14.32,1a123.63,123.63,0,0,0-23.9,4.09,67.63,67.63,0,0,0-15.07,6.29c-1.72.9-2.94,1.79-3.8,2.32l-1,.62c-.22.14-.34.2-.34.2l.31-.23,1-.66c.85-.56,2.06-1.46,3.76-2.39a66,66,0,0,1,15.07-6.43,122.22,122.22,0,0,1,24-4.2c4.56-.42,9.36-.73,14.33-1.07s10.11-.71,15.37-1.16c21.05-1.82,40-4.51,53.65-6.79,6.83-1.13,12.34-2.15,16.15-2.85l4.38-.83,1.14-.21Z" transform="translate(-141.15 -103.03)"/><path class="cls-4" d="M684.73,382.58c0,.12-8.19.21-18.3.21s-18.29-.09-18.29-.21,8.19-.21,18.29-.21S684.73,382.46,684.73,382.58Z" transform="translate(-141.15 -103.03)"/><path class="cls-4" d="M534.88,403.48c0,.12-46.24.21-103.26.21s-103.27-.09-103.27-.21,46.22-.21,103.27-.21S534.88,403.37,534.88,403.48Z" transform="translate(-141.15 -103.03)"/><path class="cls-4" d="M211.13,383.27c0,.12-6.54.21-14.6.21s-14.6-.09-14.6-.21,6.54-.21,14.6-.21S211.13,383.16,211.13,383.27Z" transform="translate(-141.15 -103.03)"/><path class="cls-14" d="M636.25,293.48s-5.49,6.15-3.33,10.66,24.45,20.28,24.45,20.28l16.18,3Z" transform="translate(-141.15 -103.03)"/><polygon class="cls-14" points="341.25 179.46 337.61 218.75 402.72 216.9 428.96 201.64 411.97 179.46 341.25 179.46"/><path class="cls-14" d="M359.84,323.79s39.28-28.36,54.78-34c15-5.45,22.76-6.81,36.81-7.21,13.43-.38,21.61,0,21.61,0l-10.38,39.95Z" transform="translate(-141.15 -103.03)"/><path class="cls-10" d="M354.09,323.93h0a6.9,6.9,0,0,1,3.52-6l9-5.07a17.23,17.23,0,0,1,8.42-2.2h0a17,17,0,0,1,5.36.86,9.76,9.76,0,0,1,6.58,9h0a10,10,0,0,1-9.93,10.32H361A6.89,6.89,0,0,1,354.09,323.93Z" transform="translate(-141.15 -103.03)"/><path class="cls-4" d="M354.09,323.93a8.34,8.34,0,0,1,.11.87,6.89,6.89,0,0,0,.79,2.35,7,7,0,0,0,2.77,2.73,6.94,6.94,0,0,0,2.32.73c.85.1,1.8,0,2.77.05l13.77,0a10.8,10.8,0,0,0,3.83-.63,9.76,9.76,0,0,0,3.4-2.17,9.58,9.58,0,0,0,2.3-3.48,9.9,9.9,0,0,0,.6-4.26,9.72,9.72,0,0,0-4.06-7.2,10.21,10.21,0,0,0-3.73-1.57,17.53,17.53,0,0,0-3.9-.47,17,17,0,0,0-7.06,1.52c-1,.46-2,1.05-2.93,1.56l-2.69,1.49L357.76,318A6.91,6.91,0,0,0,355,320.7a7.18,7.18,0,0,0-.8,2.35c-.08.57-.07.88-.1.88a4.29,4.29,0,0,1,0-.89,6.83,6.83,0,0,1,.74-2.42,7,7,0,0,1,2.79-2.85l4.6-2.62,2.67-1.52c.94-.51,1.88-1.11,2.95-1.59a17.31,17.31,0,0,1,11.19-1.12,10.58,10.58,0,0,1,3.87,1.62,10.15,10.15,0,0,1,4.25,7.51,10.4,10.4,0,0,1-.63,4.44,10.16,10.16,0,0,1-6,5.87,10.56,10.56,0,0,1-4,.64l-13.77,0a25.71,25.71,0,0,1-2.81-.09,6.87,6.87,0,0,1-2.39-.79,7.15,7.15,0,0,1-2.8-2.85,6.62,6.62,0,0,1-.74-2.42A5.31,5.31,0,0,1,354.09,323.93Z" transform="translate(-141.15 -103.03)"/><path class="cls-13" d="M656.74,428.76s0-.19,0-.56.06-.93.11-1.63.13-1.61.18-2.66.08-2.27.12-3.63,0-2.88,0-4.55-.12-3.46-.34-5.39a69.59,69.59,0,0,0-2.33-12.94,57.87,57.87,0,0,0-2.56-7.21,47.9,47.9,0,0,0-3.89-7.31,49.66,49.66,0,0,0-12.58-13.13,59.39,59.39,0,0,0-18-8.9A75.5,75.5,0,0,0,596,358a70.5,70.5,0,0,0-21.41,3.11A61.88,61.88,0,0,0,565,365a55.57,55.57,0,0,0-8.27,5.41A69,69,0,0,0,544,383.52a50.57,50.57,0,0,0-4.23,7.11,68.51,68.51,0,0,0-2.93,7.07,84.47,84.47,0,0,0-4.65,22.58c-.13,2.73-.11,4.85,0,6.29,0,.7.07,1.25.09,1.63s0,.56,0,.56,0-.19-.06-.56-.08-.92-.14-1.63a62.67,62.67,0,0,1,0-6.3,82.62,82.62,0,0,1,4.53-22.67,72.08,72.08,0,0,1,2.91-7.11,52,52,0,0,1,4.25-7.18,69.46,69.46,0,0,1,12.79-13.17,55,55,0,0,1,8.32-5.45,60,60,0,0,1,9.59-4A70.68,70.68,0,0,1,596,357.58a75.38,75.38,0,0,1,21.57,2.88,59.81,59.81,0,0,1,18.15,9,55.22,55.22,0,0,1,7.12,6.24,44.43,44.43,0,0,1,5.53,7,47.5,47.5,0,0,1,3.88,7.37,57.46,57.46,0,0,1,2.56,7.26,69.13,69.13,0,0,1,2.27,13c.22,1.93.21,3.75.31,5.41s0,3.19,0,4.55-.12,2.58-.17,3.64-.16,1.93-.21,2.65-.12,1.25-.16,1.63S656.74,428.76,656.74,428.76Z" transform="translate(-141.15 -103.03)"/><path class="cls-15" d="M287.11,357.41" transform="translate(-141.15 -103.03)"/><path class="cls-13" d="M460.94,328s-.06,0-.19,0l-.54,0-2.1.05-7.72.13c-6.51.13-15.52.37-25.46.64s-18.95.46-25.47.51c-3.26,0-5.9,0-7.72,0l-2.1,0-.54,0-.19,0s.06,0,.19,0l.54,0,2.1,0,7.72-.14c6.51-.12,15.52-.36,25.46-.63s18.95-.47,25.47-.51c3.26,0,5.9,0,7.72,0l2.1,0,.54,0Z" transform="translate(-141.15 -103.03)"/><path class="cls-13" d="M450.27,340.05a118.44,118.44,0,0,1-14.1,0,118.44,118.44,0,0,1,14.1,0Z" transform="translate(-141.15 -103.03)"/><path class="cls-13" d="M452.86,297c0,.11-8.71,3.75-19.55,8.14s-19.66,7.86-19.7,7.75,8.71-3.75,19.55-8.14S452.82,296.89,452.86,297Z" transform="translate(-141.15 -103.03)"/><path class="cls-13" d="M435.13,299.74c0,.11-8.29,3.78-18.61,8.2s-18.73,7.92-18.78,7.81,8.29-3.77,18.61-8.2S435.08,299.64,435.13,299.74Z" transform="translate(-141.15 -103.03)"/><path class="cls-13" d="M547.58,295.47c0,.11-8.7,3.75-19.54,8.14s-19.66,7.86-19.7,7.75,8.7-3.75,19.54-8.14S547.54,295.36,547.58,295.47Z" transform="translate(-141.15 -103.03)"/><path class="cls-13" d="M529.85,298.22c0,.11-8.29,3.78-18.61,8.2s-18.73,7.92-18.77,7.81,8.28-3.78,18.61-8.2S529.81,298.11,529.85,298.22Z" transform="translate(-141.15 -103.03)"/><path class="cls-13" d="M549.29,328c0,.11-17.4.31-38.86.44s-38.88.14-38.88,0,17.4-.31,38.87-.44S549.29,327.83,549.29,328Z" transform="translate(-141.15 -103.03)"/><path class="cls-13" d="M568.57,339.38c0,.12-4.88.26-10.9.31s-10.91,0-10.91-.11,4.88-.25,10.9-.31S568.57,339.27,568.57,339.38Z" transform="translate(-141.15 -103.03)"/><path class="cls-13" d="M235.32,333.43a1.53,1.53,0,0,1-.47.09l-1.37.18c-.59.07-1.31.16-2.15.3s-1.79.25-2.84.46c-2.1.37-4.58.92-7.31,1.64s-5.67,1.7-8.7,2.88-5.83,2.51-8.34,3.81-4.68,2.6-6.47,3.76c-.91.56-1.69,1.12-2.4,1.59s-1.3.89-1.78,1.25l-1.12.79a2.27,2.27,0,0,1-.41.26,1.9,1.9,0,0,1,.36-.32l1.07-.86c.47-.38,1.05-.82,1.75-1.31s1.47-1.07,2.37-1.65c1.77-1.2,4-2.51,6.45-3.85a85.53,85.53,0,0,1,8.37-3.86,88.55,88.55,0,0,1,8.75-2.86c2.75-.71,5.24-1.23,7.36-1.56,1.05-.19,2-.29,2.86-.4s1.57-.19,2.17-.23l1.37-.1A2.47,2.47,0,0,1,235.32,333.43Z" transform="translate(-141.15 -103.03)"/><path class="cls-13" d="M379,314.45s-.24-.32-.77-.75a5.29,5.29,0,0,0-2.66-1.07,11.38,11.38,0,0,0-4.29.46,33.74,33.74,0,0,0-5.07,1.72,33.1,33.1,0,0,0-8.24,5.13c-1.91,1.6-2.92,2.79-3,2.73a4.74,4.74,0,0,1,.68-.85,24.23,24.23,0,0,1,2.11-2.11,31.15,31.15,0,0,1,13.41-7,11.4,11.4,0,0,1,4.42-.38,5.19,5.19,0,0,1,2.72,1.25,3.19,3.19,0,0,1,.54.61C379,314.35,379,314.44,379,314.45Z" transform="translate(-141.15 -103.03)"/><path class="cls-4" d="M638.07,293.2a12.81,12.81,0,0,1-3.42.35,21.38,21.38,0,0,1-4-.5,34.79,34.79,0,0,1-5.12-1.58c-1.86-.7-3.84-1.59-6-2.5l-3.34-1.35c-1.15-.46-2.36-.85-3.59-1.3a140.22,140.22,0,0,0-16.4-4.47A189,189,0,0,0,565.55,278c-2-.1-3.77-.11-5.34-.15h-4l-2.55.06h-.89l.23,0,.66,0,2.55-.13,4-.07c1.58,0,3.37,0,5.35.09a178.41,178.41,0,0,1,30.72,3.7A136.42,136.42,0,0,1,612.72,286c1.23.46,2.45.86,3.6,1.32l3.35,1.38c2.13.93,4.1,1.83,6,2.54a35.26,35.26,0,0,0,5.06,1.63,21.58,21.58,0,0,0,4,.56,17.79,17.79,0,0,0,2.54-.09l.66-.08Z" transform="translate(-141.15 -103.03)"/></svg>