<svg id="Layer_1" data-name="Layer 1" xmlns="http://www.w3.org/2000/svg" viewBox="0 0 415.31 425.18"><defs><style>.cls-1{fill:#e0e0e0;}.cls-2{fill:#ececec;}.cls-3{fill:#f5f5f5;}.cls-4{fill:#263238;}.cls-5{fill:#fafafa;}.cls-15,.cls-6{opacity:0.2;}.cls-7{fill:#fdb714;}.cls-8{fill:#fff;}.cls-11,.cls-9{opacity:0.3;}.cls-10{fill:#034d72;}.cls-12{fill:#ffbf9d;}.cls-13{fill:#455a64;}.cls-14{fill:#00588c;}</style></defs><path class="cls-1" d="M623.87,166.7c.51-3.69-4.71-6.73-8.63-7-1.86-.15-3.81.14-5.58-.48-3.83-1.34-5.36-6.29-9.11-7.87-2.8-1.18-6-.13-8.73,1.23s-5.39,3.09-8.42,3.28c-2.64.17-5.5-.81-7.81.48-1.72,1-2.62,2.94-4.2,4.11a10,10,0,0,1-5.5,1.49,15.2,15.2,0,0,0-5.66.93c-1.75.8-3.2,2.65-2.84,4.54Z" transform="translate(-220.22 -70.8)"/><path class="cls-2" d="M635.48,422.47c.69-5-6.35-9.09-11.64-9.52-2.52-.2-5.14.18-7.53-.65-5.17-1.8-7.24-8.49-12.29-10.62-3.77-1.59-8.12-.17-11.78,1.67s-7.28,4.16-11.37,4.42c-3.55.23-7.42-1.09-10.53.65-2.32,1.29-3.53,4-5.67,5.54s-4.82,1.87-7.41,2-5.28.17-7.65,1.25-4.31,3.58-3.82,6.13Z" transform="translate(-220.22 -70.8)"/><path class="cls-2" d="M289.52,176.2c.4-2.91-3.7-5.3-6.78-5.54-1.47-.12-3,.1-4.39-.38-3-1.05-4.22-4.95-7.16-6.19-2.2-.93-4.73-.1-6.87,1s-4.24,2.42-6.62,2.58c-2.07.13-4.32-.64-6.14.37-1.35.76-2.05,2.31-3.3,3.23a7.86,7.86,0,0,1-4.32,1.17,12.3,12.3,0,0,0-4.45.73,3.51,3.51,0,0,0-2.23,3.57Z" transform="translate(-220.22 -70.8)"/><path class="cls-1" d="M295.36,356.58c.57-4.17-5.32-7.61-9.75-8-2.11-.17-4.3.15-6.3-.55-4.33-1.51-6.06-7.11-10.29-8.89-3.16-1.33-6.8-.14-9.86,1.4s-6.09,3.48-9.51,3.7c-3,.19-6.21-.91-8.82.54-1.94,1.08-3,3.32-4.75,4.64s-4,1.56-6.2,1.68-4.42.14-6.4,1.05-3.61,3-3.2,5.13Z" transform="translate(-220.22 -70.8)"/><rect class="cls-2" x="381.46" y="200.87" width="12.31" height="50.15"/><polygon class="cls-2" points="387.62 203.21 374.46 203.21 381.04 196.31 387.62 189.42 394.19 196.31 400.77 203.21 387.62 203.21"/><rect class="cls-3" x="22.6" y="169.8" width="9.55" height="38.92"/><polygon class="cls-3" points="27.38 171.62 17.16 171.62 22.27 166.27 27.38 160.91 32.48 166.27 37.59 171.62 27.38 171.62"/><path class="cls-4" d="M622.64,495.64c0,.13-88.61.23-197.89.23s-197.91-.1-197.91-.23,88.59-.23,197.91-.23S622.64,495.51,622.64,495.64Z" transform="translate(-220.22 -70.8)"/><rect class="cls-5" x="51.35" width="306.84" height="424.03"/><rect class="cls-3" x="187.02" y="25.51" width="33.15" height="12.9"/><path class="cls-4" d="M440.39,109.21a1.22,1.22,0,0,1,0-.24c0-.18,0-.4,0-.68l0-2.57c0-2.25-.05-5.45-.09-9.41l.16.16-33.15.08c-.21.2.28-.29.23-.24h0v6.62c0,2.16,0,4.26,0,6.27l-.22-.22,23.7.1,6.92.07,1.87,0,.48,0h.18a4.43,4.43,0,0,1-.61,0l-1.82,0-6.87.06-23.85.1H407v-6.5c0-1.08,0-2.17,0-3.28V96.32h0l.24-.23,33.15.07h.16v.16c0,4-.07,7.23-.09,9.5l0,2.54c0,.27,0,.48,0,.65S440.4,109.22,440.39,109.21Z" transform="translate(-220.22 -70.8)"/><path class="cls-4" d="M501.36,234.33s0-.09,0-.25,0-.4,0-.67l0-2.58c0-2.25-.05-5.45-.09-9.4l.16.16-33.15.07.23-.23h0v6.61c0,2.15,0,4.25,0,6.27l-.22-.23,23.7.11,6.92.06,1.87,0h.49c.11,0,.17,0,.17,0s-.2,0-.61,0l-1.82,0-6.87.06-23.85.11H468v-.22c0-2,0-4.12,0-6.27v-6.61h0c-.05,0,.44-.44.23-.24l33.15.08h.17v.16c0,4-.07,7.23-.09,9.5,0,1.08,0,1.92,0,2.54,0,.26,0,.47,0,.65A.85.85,0,0,1,501.36,234.33Z" transform="translate(-220.22 -70.8)"/><polygon class="cls-6" points="248 163.52 250.99 167.95 283.04 167.95 281.15 150.62 281.15 163.52 248 163.52"/><path class="cls-4" d="M402.52,160.74a.77.77,0,0,1,0-.25c0-.18,0-.4,0-.67l0-2.58c0-2.25-.05-5.45-.09-9.4l.17.16-33.16.07c-.2.21.29-.28.24-.23h0v12.88l-.23-.23,23.7.11,6.92.06,1.87,0h.49l.18,0-.61,0-1.82,0-6.87.06-23.86.11h-.22v-.22c0-2,0-4.12,0-6.28v-6.6h0c-.05,0,.44-.44.23-.24l33.16.08h.16v.16c0,4-.07,7.23-.09,9.5l0,2.54c0,.26,0,.47,0,.65A1.66,1.66,0,0,1,402.52,160.74Z" transform="translate(-220.22 -70.8)"/><polygon class="cls-6" points="149.15 89.93 152.15 94.36 184.19 94.36 182.3 77.03 182.3 89.93 149.15 89.93"/><path class="cls-4" d="M502.27,102.79s0-.09,0-.24,0-.4,0-.68l0-2.57c0-2.25-.05-5.45-.09-9.41l.16.16-33.15.08c-.21.2.28-.29.23-.24h0v6.62c0,2.16,0,4.26,0,6.27l-.22-.22,23.7.1,6.92.07,1.87,0,.49,0h.17a4.43,4.43,0,0,1-.61,0l-1.82,0-6.87.06-23.85.1h-.23V89.9h0l.24-.23,33.15.07h.16v.16c0,4-.06,7.23-.09,9.5,0,1.08,0,1.93,0,2.54,0,.27,0,.48,0,.65S502.28,102.8,502.27,102.79Z" transform="translate(-220.22 -70.8)"/><polygon class="cls-6" points="248.9 31.99 251.9 36.42 283.95 36.42 282.06 19.09 282.06 31.99 248.9 31.99"/><path class="cls-4" d="M392.72,372.68a1.1,1.1,0,0,1,0-.24c0-.18,0-.4,0-.68,0-.62,0-1.48,0-2.57,0-2.25-.05-5.45-.08-9.4l.16.16-33.15.07.23-.23h0v6.6c0,2.16,0,4.26,0,6.27l-.22-.22,23.7.11,6.92.06,1.86,0h.67a4.43,4.43,0,0,1-.61,0l-1.82,0-6.87.06-23.85.11h-.23v-.23c0-2,0-4.11,0-6.27v-6.6h0c-.05,0,.44-.45.24-.24l33.15.07h.16v.17c0,4-.07,7.22-.09,9.5l0,2.54c0,.26,0,.47,0,.64A1.92,1.92,0,0,1,392.72,372.68Z" transform="translate(-220.22 -70.8)"/><polygon class="cls-6" points="139.35 301.88 142.35 306.31 174.4 306.31 172.5 288.98 172.5 301.88 139.35 301.88"/><path class="cls-4" d="M319,151.77s0-.09,0-.24,0-.4,0-.68l0-2.57c0-2.25-.05-5.45-.09-9.41l.16.16-33.15.07.23-.23h0v6.62q0,3.24,0,6.27l-.22-.22,23.7.1,6.92.06,1.87,0,.49,0H319a4.43,4.43,0,0,1-.61,0l-1.82,0-6.87.06-23.85.1h-.22v-.22c0-2,0-4.11,0-6.27v-6.62h0l.23-.23,33.15.07h.17v.16c0,4-.07,7.23-.09,9.5l0,2.54c0,.27,0,.48,0,.65S319,151.78,319,151.77Z" transform="translate(-220.22 -70.8)"/><path class="cls-4" d="M335.53,138.87s0-.09,0-.24,0-.4,0-.68c0-.62,0-1.48,0-2.57,0-2.25,0-5.45-.09-9.41l.16.16-33.15.08c-.21.2.28-.29.23-.24h0v6.62c0,2.16,0,4.26,0,6.27l-.22-.22,23.7.1,6.92.07,1.87,0,.49,0h.17a4.43,4.43,0,0,1-.61,0l-1.82,0-6.87.06-23.85.1h-.23v-9.78c0-.55,0-1.11,0-1.67V126h0l.24-.23,33.15.07h.16V126c0,4-.06,7.23-.09,9.5,0,1.08,0,1.93,0,2.54,0,.27,0,.48,0,.65S335.54,138.88,335.53,138.87Z" transform="translate(-220.22 -70.8)"/><rect class="cls-2" x="83.83" y="80.97" width="33.15" height="12.9"/><rect class="cls-2" x="165.72" y="334.48" width="33.15" height="12.9"/><rect class="cls-2" x="293.95" y="378.94" width="33.15" height="12.9"/><rect class="cls-2" x="102.31" y="382.94" width="33.15" height="12.9"/><rect class="cls-3" x="297.72" y="38.41" width="33.15" height="12.9"/><rect class="cls-3" x="225.37" y="101.08" width="33.15" height="12.9"/><rect class="cls-3" x="78.41" y="295.06" width="33.15" height="12.9"/><rect class="cls-2" x="297.72" y="301.51" width="33.15" height="12.9"/><rect class="cls-2" x="210.39" y="213.9" width="33.15" height="12.9"/><rect class="cls-2" x="83.83" y="213.32" width="33.15" height="12.9"/><rect class="cls-2" x="138.89" y="176.2" width="33.15" height="12.9"/><rect class="cls-3" x="123.22" y="16.56" width="33.15" height="12.9"/><rect class="cls-2" x="297.72" y="215.12" width="33.15" height="12.9"/><path class="cls-4" d="M430.51,122.11a1.35,1.35,0,0,1,0-.24c0-.18,0-.4,0-.68,0-.62,0-1.48,0-2.57,0-2.25-.05-5.45-.09-9.41l.16.16-33.15.07.23-.23h0v6.62q0,3.24,0,6.27l-.22-.22,23.7.1,6.92.06,1.87,0,.48,0h.18a4.43,4.43,0,0,1-.61,0l-1.82,0-6.87.06-23.85.1h-.23v-6.49c0-1.08,0-2.17,0-3.28v-3.34h0l.24-.23,33.15.07h.16v.16c0,4-.07,7.23-.09,9.5l0,2.54c0,.27,0,.48,0,.65S430.52,122.12,430.51,122.11Z" transform="translate(-220.22 -70.8)"/><rect class="cls-3" x="286.33" y="63.11" width="33.15" height="12.9"/><path class="cls-4" d="M539.7,146.81a1.35,1.35,0,0,1,0-.24c0-.18,0-.41,0-.68,0-.62,0-1.48,0-2.58,0-2.24,0-5.44-.09-9.4l.16.16-33.15.07.23-.23h0v6.61q0,3.24,0,6.27l-.22-.22,23.7.1,6.92.06,1.87,0h.48l.18,0a4.43,4.43,0,0,1-.61,0l-1.82,0-6.87.07-23.85.1h-.23v-6.49c0-1.08,0-2.17,0-3.28v-3.33h0l.24-.23,33.15.07h.16v.16c0,4-.07,7.23-.09,9.5l0,2.54c0,.26,0,.48,0,.65A.85.85,0,0,1,539.7,146.81Z" transform="translate(-220.22 -70.8)"/><path class="cls-4" d="M554.94,159.71s0-.09,0-.24,0-.41,0-.68c0-.63,0-1.49,0-2.58,0-2.25,0-5.44-.09-9.4l.16.16-33.15.07.23-.23h0v6.61c0,2.15,0,4.25,0,6.27l-.22-.23,23.7.11,6.92.06,1.87,0h.49c.11,0,.17,0,.17,0a3.85,3.85,0,0,1-.61,0l-1.82,0-6.87.07-23.85.1h-.22v-.22c0-2,0-4.12,0-6.27v-6.61h0l.23-.23,33.15.07h.17v.16c0,4-.06,7.23-.08,9.5,0,1.08,0,1.92,0,2.54,0,.26,0,.48,0,.65A.85.85,0,0,1,554.94,159.71Z" transform="translate(-220.22 -70.8)"/><rect class="cls-2" x="96.01" y="133.89" width="33.15" height="12.9"/><path class="cls-4" d="M349.38,217.59a1.35,1.35,0,0,1,0-.24c0-.18,0-.41,0-.68,0-.62,0-1.48,0-2.58,0-2.24-.05-5.44-.08-9.4l.16.16-33.15.07.23-.23h0V208c0,1.11,0,2.2,0,3.28v6.27l-.23-.22,23.7.1,6.93.06,1.86,0h.49l.18,0a4.43,4.43,0,0,1-.61,0l-1.82,0-6.87.07-23.86.1H316v-.22q0-3,0-6.27v-6.61h0c-.05.05.44-.44.24-.23l33.15.07h.16v.16c0,4-.07,7.23-.09,9.5l0,2.54c0,.26,0,.48,0,.65A1.66,1.66,0,0,1,349.38,217.59Z" transform="translate(-220.22 -70.8)"/><path class="cls-4" d="M364.62,230.49a1.35,1.35,0,0,1,0-.24c0-.18,0-.41,0-.68l0-2.58c0-2.25-.06-5.44-.09-9.4l.16.16-33.15.07.23-.23h0v6.61c0,2.15,0,4.25,0,6.27l-.22-.23,23.7.11,6.92.06,1.87,0h.48l.18,0a3.85,3.85,0,0,1-.61,0l-1.82,0-6.87.07-23.85.1h-.23v-6.49c0-1.08,0-2.18,0-3.28v-3.33h0l.24-.23,33.15.07h.16v.16c0,4-.07,7.23-.09,9.5l0,2.54c0,.26,0,.48,0,.65A.85.85,0,0,1,364.62,230.49Z" transform="translate(-220.22 -70.8)"/><rect class="cls-3" x="312.97" y="159.29" width="33.15" height="12.9"/><path class="cls-4" d="M566.34,243a1.22,1.22,0,0,1,0-.24c0-.18,0-.4,0-.68,0-.62,0-1.48,0-2.57,0-2.25,0-5.45-.08-9.41l.16.16-33.15.08c-.21.2.28-.29.23-.24h0v3.34c0,1.11,0,2.2,0,3.28V243l-.23-.22,23.7.1,6.93.07,1.86,0,.49,0h.18a4.43,4.43,0,0,1-.61,0l-1.82,0-6.87.06-23.86.11H533V243c0-2,0-4.11,0-6.27V230.1h0c-.05,0,.44-.44.24-.23l33.15.07h.16v.16c0,4-.07,7.23-.09,9.51,0,1.07,0,1.92,0,2.53,0,.27,0,.48,0,.65A1.31,1.31,0,0,1,566.34,243Z" transform="translate(-220.22 -70.8)"/><path class="cls-4" d="M450.24,359.79s0-.09,0-.25,0-.4,0-.67c0-.63,0-1.49,0-2.58,0-2.25-.05-5.45-.09-9.4l.16.16-33.15.07.23-.23h0v6.6c0,2.16,0,4.26,0,6.28l-.22-.23,23.7.11,6.92.06,1.87,0h.49c.11,0,.17,0,.17,0l-.61,0-1.82,0-6.87.06-23.85.11h-.22v-.22c0-2,0-4.12,0-6.28v-6.6h0c-.05.05.44-.44.23-.24l33.15.08h.17v.16c0,4-.07,7.23-.09,9.5,0,1.07,0,1.92,0,2.54,0,.26,0,.47,0,.65A.85.85,0,0,1,450.24,359.79Z" transform="translate(-220.22 -70.8)"/><path class="cls-4" d="M465.49,372.68a1.1,1.1,0,0,1,0-.24c0-.18,0-.4,0-.68,0-.62,0-1.48,0-2.57,0-2.25-.05-5.45-.08-9.4l.16.16-33.15.07.23-.23h0v3.32c0,1.11,0,2.2,0,3.28v6.27l-.23-.22,23.7.11,6.93.06,1.86,0h.67a4.43,4.43,0,0,1-.61,0l-1.82,0-6.87.06-23.86.11h-.22v-.23c0-2,0-4.11,0-6.27v-6.6h0l.24-.24,33.15.07h.16v.17c0,4-.07,7.22-.09,9.5l0,2.54c0,.26,0,.47,0,.64A1.31,1.31,0,0,1,465.49,372.68Z" transform="translate(-220.22 -70.8)"/><path class="cls-4" d="M330.46,405.29s0-.09,0-.24,0-.41,0-.68l0-2.58c0-2.24-.05-5.44-.09-9.4l.16.16-33.15.07.23-.23h0V399c0,2.16,0,4.25,0,6.27l-.22-.22,23.7.1,6.92.06,1.87,0h.49c.11,0,.17,0,.17,0a4.43,4.43,0,0,1-.61,0l-1.82,0-6.87.07-23.85.1h-.23v-9.77c0-.55,0-1.11,0-1.67v-1.66h0l.24-.23,33.15.07h.16v.16c0,4-.06,7.23-.09,9.5,0,1.08,0,1.93,0,2.54,0,.26,0,.48,0,.65A.85.85,0,0,1,330.46,405.29Z" transform="translate(-220.22 -70.8)"/><path class="cls-4" d="M345.7,418.19s0-.09,0-.24,0-.41,0-.68c0-.63,0-1.49,0-2.58,0-2.25-.05-5.44-.09-9.4l.16.16-33.15.07.23-.23h0v6.61c0,2.15,0,4.25,0,6.27l-.22-.23,23.7.11,6.92.06,1.87,0h.49l.17,0a3.85,3.85,0,0,1-.61,0l-1.82,0-6.87.07-23.85.1h-.22v-.22c0-2,0-4.12,0-6.27v-6.61h0l.23-.23,33.15.07h.17v.16c0,4-.06,7.23-.08,9.5l0,2.54c0,.26,0,.48,0,.65A.85.85,0,0,1,345.7,418.19Z" transform="translate(-220.22 -70.8)"/><path class="cls-4" d="M433.69,453.75a1.41,1.41,0,0,1,0-.25c0-.18,0-.4,0-.67l0-2.58c0-2.25-.05-5.45-.08-9.4l.16.16-33.15.07.23-.23h0v6.61c0,2.15,0,4.25,0,6.27l-.22-.23,23.7.11,6.92.06,1.86,0h.49l.18,0s-.2,0-.61,0l-1.82,0-6.87.06-23.85.11h-.23v-.22c0-2,0-4.12,0-6.27v-6.61h0l.24-.24,33.15.08h.16v.16c0,4-.07,7.23-.09,9.5l0,2.54c0,.26,0,.47,0,.65A1.66,1.66,0,0,1,433.69,453.75Z" transform="translate(-220.22 -70.8)"/><path class="cls-4" d="M448.93,466.64s0-.08,0-.24,0-.4,0-.67l0-2.58c0-2.25-.05-5.45-.09-9.4l.16.16-33.15.07.23-.23h0v6.6c0,2.16,0,4.26,0,6.27l-.22-.22,23.7.11,6.92.06,1.87,0h.66a4.43,4.43,0,0,1-.61,0l-1.82,0-6.87.06-23.85.11h-.23v-13.1h0c-.06.05.44-.44.23-.24l33.15.07h.16v.16c0,4-.06,7.23-.08,9.5,0,1.07,0,1.92,0,2.54,0,.26,0,.47,0,.65S448.94,466.65,448.93,466.64Z" transform="translate(-220.22 -70.8)"/><path class="cls-4" d="M547.32,340.06s0-.08,0-.24,0-.4,0-.68l0-2.57c0-2.25,0-5.45-.09-9.4l.16.16-33.15.07.23-.23h0v6.6c0,2.16,0,4.26,0,6.27l-.22-.22,23.7.11,6.92.06,1.87,0h.66a4.43,4.43,0,0,1-.61,0l-1.82,0-6.87.06-23.85.11h-.23v-13.1h0c-.06.05.44-.45.23-.24l33.15.07h.16v.17c0,4-.06,7.22-.08,9.5,0,1.07,0,1.92,0,2.54,0,.26,0,.47,0,.64S547.33,340.07,547.32,340.06Z" transform="translate(-220.22 -70.8)"/><path class="cls-4" d="M496.67,411.74a1.35,1.35,0,0,1,0-.24c0-.18,0-.41,0-.68l0-2.58c0-2.25,0-5.44-.08-9.4l.16.16-33.15.07.23-.23h0v3.33c0,1.1,0,2.2,0,3.28v6.27l-.23-.23,23.7.11,6.93.06,1.86,0h.49l.18,0a4.43,4.43,0,0,1-.61,0l-1.82,0-6.87.07-23.86.1h-.22v-.22c0-2,0-4.12,0-6.27v-6.61h0c0,.05.44-.44.24-.23l33.15.07h.16v.16c0,4-.07,7.23-.09,9.5l0,2.54c0,.26,0,.48,0,.65A1.66,1.66,0,0,1,496.67,411.74Z" transform="translate(-220.22 -70.8)"/><polygon class="cls-6" points="64.71 238.21 66.82 241.36 76.97 241.36 79.95 251.11 83.83 254.34 116.98 254.34 113.11 238.21 64.71 238.21"/><rect class="cls-2" x="64.71" y="225.31" width="33.15" height="12.9"/><path class="cls-4" d="M318.08,309a1.22,1.22,0,0,1,0-.24c0-.18,0-.4,0-.68l0-2.57c0-2.25-.05-5.45-.09-9.41l.16.17-33.15.07c-.21.2.28-.29.23-.24h0v6.62c0,2.16,0,4.26,0,6.27l-.22-.22,23.7.1,6.92.07,1.87,0,.49,0h.17a4.43,4.43,0,0,1-.61,0l-1.82,0-6.87.06-23.85.11h-.23v-6.5c0-1.08,0-2.17,0-3.28v-3.34h0l.24-.23,33.15.07h.16v.16c0,4-.06,7.23-.09,9.51l0,2.53c0,.27,0,.48,0,.65S318.09,309,318.08,309Z" transform="translate(-220.22 -70.8)"/><rect class="cls-2" x="79.95" y="238.21" width="33.15" height="12.9"/><path class="cls-4" d="M333.32,321.91s0-.09,0-.24,0-.4,0-.68c0-.62,0-1.48,0-2.57,0-2.25-.05-5.45-.09-9.41l.16.16-33.15.08c-.21.2.28-.29.23-.24h0v6.62q0,3.24,0,6.27l-.22-.22,23.7.1,6.92.06,1.87,0,.49,0h.17a4.43,4.43,0,0,1-.61,0l-1.82,0L324,322l-23.85.1H300v-.23q0-3,0-6.27V309h0l.23-.23,33.15.07h.17V309c0,4-.06,7.23-.08,9.5,0,1.08,0,1.93,0,2.54,0,.27,0,.48,0,.65S333.33,321.92,333.32,321.91Z" transform="translate(-220.22 -70.8)"/><polygon class="cls-6" points="243.3 340.93 246.3 345.37 278.35 345.37 276.45 328.03 276.45 340.93 243.3 340.93"/><path class="cls-4" d="M578,493.7c-.13,0-.24-94.08-.24-210.1s.11-210.12.24-210.12.23,94.05.23,210.12S578.15,493.7,578,493.7Z" transform="translate(-220.22 -70.8)"/><path class="cls-4" d="M271.19,74.87c.13,0,.23,93.58.23,209s-.1,209-.23,209-.23-93.56-.23-209S271.06,74.87,271.19,74.87Z" transform="translate(-220.22 -70.8)"/><path class="cls-7" d="M384.61,460.65a6.63,6.63,0,0,1,3.41,3.87,11.6,11.6,0,0,1,.45,5.24c-.38,3.4-2.31,6.83-4.39,9.54-2.87-2.49-3.53-6.85-3.72-9.08-.31-3.53,1.28-10.09,4.25-9.57" transform="translate(-220.22 -70.8)"/><path class="cls-7" d="M387.4,484.92a5.64,5.64,0,0,1,1.82-5.35c1.47-1.31,4.45-1.8,6.41-1.65.92.07,1,.27,1.51,1a2.4,2.4,0,0,1,0,2.43,4.83,4.83,0,0,1-1.81,1.78c-2.48,1.56-5.16,2.61-8,1.77" transform="translate(-220.22 -70.8)"/><path class="cls-4" d="M383.73,495.34a3.51,3.51,0,0,1,.1-.7l.35-1.89a19.84,19.84,0,0,1,1.95-6,12,12,0,0,1,4.33-4.6,8.08,8.08,0,0,1,1.76-.78c.22-.07.39-.1.51-.13l.18,0a12.69,12.69,0,0,0-2.36,1.08,12.42,12.42,0,0,0-4.2,4.57,21.07,21.07,0,0,0-2,6c-.17.79-.31,1.43-.42,1.87A3.45,3.45,0,0,1,383.73,495.34Z" transform="translate(-220.22 -70.8)"/><path class="cls-4" d="M383.84,465.76a1.16,1.16,0,0,1,0,.3c0,.23,0,.52.06.88,0,.76.08,1.86.13,3.22.08,2.73.15,6.49.14,10.65s-.12,7.92-.24,10.65c0,1.36-.11,2.46-.15,3.22,0,.36-.05.65-.06.88a1.4,1.4,0,0,1,0,.3,1.5,1.5,0,0,1,0-.31c0-.22,0-.51,0-.87,0-.8.05-1.89.08-3.23.07-2.72.14-6.48.16-10.64s0-7.92-.07-10.64c0-1.34,0-2.44-.05-3.23v-.88A1.36,1.36,0,0,1,383.84,465.76Z" transform="translate(-220.22 -70.8)"/><path class="cls-7" d="M382.45,487a13.14,13.14,0,0,0-7.18-9.63c-.95-.45-2.2-.75-3,0s-.61,2-.23,3a11.22,11.22,0,0,0,10.33,7" transform="translate(-220.22 -70.8)"/><path class="cls-4" d="M375.74,480.58a3.35,3.35,0,0,1,.6.26,6.09,6.09,0,0,1,.69.37,9.33,9.33,0,0,1,.87.55,10,10,0,0,1,1,.75,13.23,13.23,0,0,1,1.07,1,14.81,14.81,0,0,1,2,2.59,14.23,14.23,0,0,1,1.33,3,12.3,12.3,0,0,1,.34,1.4c.09.44.13.86.17,1.24s0,.73.05,1a6,6,0,0,1,0,.78,3.18,3.18,0,0,1-.07.66c-.06,0,0-.95-.13-2.45a10.62,10.62,0,0,0-.2-1.22,12,12,0,0,0-.35-1.37,15.43,15.43,0,0,0-1.32-2.95,15.19,15.19,0,0,0-2-2.56,11.46,11.46,0,0,0-1-1c-.33-.3-.67-.54-1-.77C376.57,481,375.71,480.63,375.74,480.58Z" transform="translate(-220.22 -70.8)"/><path class="cls-4" d="M591.31,481.25a68.22,68.22,0,0,1,4.14,7,70.55,70.55,0,0,1,3.73,7.2,72.84,72.84,0,0,1-4.14-7A71.77,71.77,0,0,1,591.31,481.25Z" transform="translate(-220.22 -70.8)"/><path class="cls-4" d="M601.25,473.88c.13,0,.79,4.79,1.47,10.73s1.15,10.78,1,10.79-.79-4.79-1.48-10.74S601.12,473.89,601.25,473.88Z" transform="translate(-220.22 -70.8)"/><path class="cls-4" d="M612,480.14a11.93,11.93,0,0,1-.42,2.24c-.3,1.37-.69,3.26-1,5.36s-.6,4-.77,5.42a13.81,13.81,0,0,1-.34,2.25,9.56,9.56,0,0,1,0-2.28,51.06,51.06,0,0,1,.64-5.46,53.66,53.66,0,0,1,1.19-5.37A9.49,9.49,0,0,1,612,480.14Z" transform="translate(-220.22 -70.8)"/><path class="cls-4" d="M485.66,482a104.27,104.27,0,0,1,3.51,13.48A105.41,105.41,0,0,1,485.66,482Z" transform="translate(-220.22 -70.8)"/><path class="cls-4" d="M496.65,474.5a23.53,23.53,0,0,1-.44,3.1c-.3,1.9-.69,4.54-1,7.47s-.51,5.58-.62,7.51a23.77,23.77,0,0,1-.24,3.12,3,3,0,0,1-.08-.84c0-.54,0-1.32,0-2.29,0-1.94.17-4.61.49-7.55s.76-5.58,1.15-7.48c.19-1,.37-1.71.5-2.24A3.08,3.08,0,0,1,496.65,474.5Z" transform="translate(-220.22 -70.8)"/><path class="cls-4" d="M261.08,479.55a71.2,71.2,0,0,1,.68,8.06,70,70,0,0,1,.22,8.09,68,68,0,0,1-.68-8.06A70,70,0,0,1,261.08,479.55Z" transform="translate(-220.22 -70.8)"/><path class="cls-4" d="M269.71,484.32a79.31,79.31,0,0,1-3.93,11.35,38,38,0,0,1,1.74-5.75A39.89,39.89,0,0,1,269.71,484.32Z" transform="translate(-220.22 -70.8)"/><path class="cls-4" d="M251,482.83a49.72,49.72,0,0,1,2,6.51,50.72,50.72,0,0,1,1.58,6.64,50.94,50.94,0,0,1-2-6.51A52.31,52.31,0,0,1,251,482.83Z" transform="translate(-220.22 -70.8)"/><path class="cls-8" d="M469.63,187l7.08.32a19.11,19.11,0,0,0,8.63,5.86,18.69,18.69,0,0,0,23.73-12.54,19.72,19.72,0,0,0-12.45-24.45,18.68,18.68,0,0,0-23.72,12.54,19.86,19.86,0,0,0,.33,12.56h0Z" transform="translate(-220.22 -70.8)"/><path class="cls-4" d="M469.63,187s.1-.13.26-.38l.71-1.09,2.7-4.2h-.14a.1.1,0,0,0,.12,0,.1.1,0,0,0,0-.11,19.93,19.93,0,0,1-1-9.46,19.25,19.25,0,0,1,1.82-5.87,18.66,18.66,0,0,1,10.6-9.45,18.36,18.36,0,0,1,8.09-.91,19.1,19.1,0,0,1,8.12,3,20.18,20.18,0,0,1,3.45,2.9,19.7,19.7,0,0,1,2.71,3.72,20.57,20.57,0,0,1,1.79,4.19,21,21,0,0,1,.74,4.4,19.71,19.71,0,0,1-1.39,8.47,18.7,18.7,0,0,1-11,10.63,18.41,18.41,0,0,1-12.77-.1,19,19,0,0,1-7.78-5.49.09.09,0,0,0-.07,0l-5.23-.18-1.37,0h-.48l.44,0,1.34.08,5.29.3-.06,0a19.26,19.26,0,0,0,7.82,5.63,18.71,18.71,0,0,0,13,.16,19,19,0,0,0,11.2-10.81,20.13,20.13,0,0,0,1.42-8.63,20.55,20.55,0,0,0-.75-4.5,20.82,20.82,0,0,0-1.83-4.27,20,20,0,0,0-2.76-3.8,20.18,20.18,0,0,0-3.53-3,19.54,19.54,0,0,0-8.28-3,18.65,18.65,0,0,0-8.26,1,18.86,18.86,0,0,0-10.75,9.66,19.48,19.48,0,0,0-1.82,6,19.91,19.91,0,0,0,1.06,9.56l.16-.08h0a.08.08,0,0,0-.12,0l0,0-2.64,4.31-.67,1.09Z" transform="translate(-220.22 -70.8)"/><polygon class="cls-7" points="276.77 100.78 271.13 93.63 265.5 100.69 276.77 100.78"/><polygon class="cls-7" points="268.36 113.85 273.49 113.89 273.65 99.62 268.52 99.58 268.36 113.85"/><path class="cls-6" d="M504.25,261.21a3.2,3.2,0,0,0-3.21-3.08l-11,.25c-.42-1.64-1.84-7.08-2.69-9.64l1.75-8.62.78-3.24s1.33-3.55,1.61-4.13a13.36,13.36,0,0,0-.2-4.68,2.4,2.4,0,0,0-1.2-1.15s-1.62-5.21-2.54-5.89-2,.68-2,.68v-1c-.37-1.53-.83-1.82-1.67-1.1a3.46,3.46,0,0,0-1,1.8s-.22-1.39-.41-2.35-1.29-.38-1.66,0,1.09,9.18,1.09,9.18l-.55,1.34a17.27,17.27,0,0,1-.28-2.5c-.09-1.63-2.38-6.63-2.38-6.63l.8,10.57,1.3,3.17,2,2.64c-.31.78-1.64,4-2.4,5.92-2.32-6.72-7.44-21.6-7.74-23.14a10.06,10.06,0,0,0-1.84-3.81l-13.58-7-3.34-5.41h0l0-5.22a8.17,8.17,0,0,0,1.69-3.38c.18-.78.44-1.78.7-2.85,1.1,0,2.5-.43,2.85-2.72s-.59-3-1.5-3.27c0-.22.08-.46.11-.66,0-.38.09-.75.14-1.12a6.55,6.55,0,0,0,1.11-.75,4.88,4.88,0,0,0,1.47-3.07,14.66,14.66,0,0,0-.12-3.5,1.33,1.33,0,0,0,1.74-.76,3.12,3.12,0,0,1-1.68-1.29,1.37,1.37,0,0,0,.86.12c.28-.09.48-.48.3-.71a.82.82,0,0,0-.45-.21,3.16,3.16,0,0,1-1.71-1.54,3.55,3.55,0,0,0-.27-.69,4.08,4.08,0,0,0-.38-.58,5.93,5.93,0,0,0-1.09-1.68,3.71,3.71,0,0,0-2.82-.94,5.54,5.54,0,0,0-1.89.51l-.22-.21a6.09,6.09,0,0,0-4.33-3.24,7.57,7.57,0,0,0-5.69,1.39c-1.15.81-2.11,1.89-3.26,2.69a4.42,4.42,0,0,1-3.92.87c-.23.5.67.93.54,1.46a.62.62,0,0,1-.59.42,7,7,0,0,1-1.1-.16.9.9,0,0,0-.95.45,1.06,1.06,0,0,0,0,.56,10.2,10.2,0,0,0,1.65,4.73,5.69,5.69,0,0,0,2.09,1.78c0,1.2,0,2.4-.05,3.61l-.08.31a2.26,2.26,0,0,1,0,.26c-1.11-.15-2.63.11-2.86,2.62-.26,2.91,1.77,3.44,2.88,3.47,0,.33,0,.66.08,1a14.27,14.27,0,0,0,1.11,4.26l.32,6.45-.75-.08-3.66,3.34-7.8-2.36-9.41-4.94-7.39-7.13-5.6-7.13-.19.12-10.31-20.6,2.31-3.07,1.43-3.47-.62-6.21s-1,.11-1.11,1.9a20.23,20.23,0,0,1-.3,2.73l-.6-1.47a20.19,20.19,0,0,1-1.34-2.59c-1.42-5.84-1.39.52-1.22-.54a57.62,57.62,0,0,0-3.6-4.69s.62,1.91-.29,1.12,1.27.91.86,2.6v1.05s-1.21-1.47-2.23-.74a3.82,3.82,0,0,0-1.21,2.32,2.57,2.57,0,0,0-1.32,1.26,14.92,14.92,0,0,0-.22,5.12c.3.63,1.76,4.52,1.76,4.52l.42,2.41s3.67,15.68,6.81,24.81l-.48.29a14.22,14.22,0,0,0,3.31,7.66l19.89,23.46,1.75,14.51-.48,22.83-.36,0-.14,6.47h.09l-.83,4.59.48,3.77-.36,3.18s-5.91,2.62-12.92,5.67l-.19-.43-5.79,2.34.17.61-1.32.57c-5.71,2.45-11.12,4.71-13.82,5.69-6.85,2.47-13.1,8.05-13.62,11s1.28,18.79,2.07,24.3c.84,5.86,3.48,27.55,3.48,27.55l14.19,5-.09-44.45,0-.53s11.19-1.68,18.34-3.18a11.38,11.38,0,0,0,1.09.64l7.75-2-.44-1c6.61-1.94,17.53-4.82,17.53-4.82l4.79,2.33,1.77,1,3.3,5.09c-.27.55,2.53,8.2,2.75,8l.22-.06c3.86,10.31,10.17,27.2,10.89,29.15,1,2.83,11.66,32.31,13.86,36.77.86,1.73,4.53,11.19,5,12.58l13.31,0s-4.49-33-7.33-38-8-22.4-8-22.4l-3.37-23.92.31-.08a31.37,31.37,0,0,0-1.92-7.87l-.29.06,0-.06-3-13.52,38-1.27a3.21,3.21,0,0,0,3-3.44Zm-44.33,5.87h0Zm7.68,39.5-3.37-13.48ZM463.07,259a3.16,3.16,0,0,0-2.32,1.16l2.8-12.34c.5-1.72,1-3.46,1.44-5.2l.06.18-.24,1.21.44-.6,4.67,14.06a16.31,16.31,0,0,0,1.07,1.35Zm22.38-.51a16.67,16.67,0,0,0,.59-3.12h0l.28-1.38c.32,1.93.46,3.7.52,4.47Z" transform="translate(-220.22 -70.8)"/><path class="cls-9" d="M473.09,394.73s-.4-1.52-1.21-3.72" transform="translate(-220.22 -70.8)"/><path class="cls-10" d="M454.47,282.08c0-6.39.24-20.48.34-26.67a3.14,3.14,0,0,1,3.07-3.1l38-.83a3.15,3.15,0,0,1,3.21,3l1.47,26.19a3.14,3.14,0,0,1-3,3.32l-39.77,1.28A3.16,3.16,0,0,1,454.47,282.08Z" transform="translate(-220.22 -70.8)"/><polygon class="cls-8" points="254.02 190.81 241.33 190.63 241.2 184.01 253.88 183.77 254.02 190.81"/><path class="cls-4" d="M472.76,256.8a79.8,79.8,0,0,1-9.45,0,39.42,39.42,0,0,1,4.73-.14A41.83,41.83,0,0,1,472.76,256.8Z" transform="translate(-220.22 -70.8)"/><path class="cls-4" d="M472.86,258.52a39.32,39.32,0,0,1-4.72.14,38.1,38.1,0,0,1-4.73-.15,39.42,39.42,0,0,1,4.73-.14A40.48,40.48,0,0,1,472.86,258.52Z" transform="translate(-220.22 -70.8)"/><path class="cls-4" d="M473,260.23a37.07,37.07,0,0,1-4.73.14,39.18,39.18,0,0,1-4.72-.14,39.18,39.18,0,0,1,4.72-.14A42.09,42.09,0,0,1,473,260.23Z" transform="translate(-220.22 -70.8)"/><polygon class="cls-2" points="264.82 190.69 249 190.86 248.84 182.6 264.66 182.3 264.82 190.69"/><path class="cls-4" d="M483.21,255.89c0,.08-2.64.14-5.89.14s-5.9-.07-5.9-.15,2.64-.14,5.9-.14S483.21,255.81,483.21,255.89Z" transform="translate(-220.22 -70.8)"/><path class="cls-4" d="M483.33,258c0,.08-2.64.14-5.89.14s-5.89-.07-5.89-.15,2.64-.14,5.89-.14S483.33,258,483.33,258Z" transform="translate(-220.22 -70.8)"/><path class="cls-4" d="M483.46,260.17c0,.08-2.64.14-5.9.14s-5.89-.07-5.89-.15,2.64-.14,5.89-.14S483.46,260.09,483.46,260.17Z" transform="translate(-220.22 -70.8)"/><path class="cls-4" d="M496.6,261.09s0,.09,0,.28,0,.48,0,.84c0,.76.05,1.86.08,3.27.07,2.88.16,7,.27,12.12,0,.32,0,.64,0,1a1.9,1.9,0,0,1-.19,1,1.78,1.78,0,0,1-.77.74,2.27,2.27,0,0,1-1.05.18l-4.34.12-9.58.25-10.58.27-5.6.14-2.86.08h-.72a2.79,2.79,0,0,1-.76,0,1.74,1.74,0,0,1-1.21-.93,1.55,1.55,0,0,1-.18-.65c0-.23,0-.43,0-.64,0-.41,0-.83,0-1.24,0-.83,0-1.65,0-2.47,0-1.63,0-3.25,0-4.83,0-3.18,0-6.25-.06-9.18v-.14h.14c10.93.36,20.29.28,26.91.12,3.31-.08,5.94-.17,7.74-.23l2.07-.07.53,0h0l-.53,0-2.05.12c-1.8.09-4.43.21-7.74.31-6.62.2-16,.32-26.92,0l.14-.14c0,2.93,0,6,.07,9.18q0,2.37,0,4.83c0,.82,0,1.64,0,2.46,0,.42,0,.83,0,1.25a2.31,2.31,0,0,0,.16,1.16,1.5,1.5,0,0,0,1,.78,3.11,3.11,0,0,0,.69,0l.72,0,2.86-.07,5.6-.14,10.59-.25,9.57-.23,4.34-.09a2.18,2.18,0,0,0,1-.16,1.5,1.5,0,0,0,.67-.65,1.65,1.65,0,0,0,.17-.91c0-.32,0-.64,0-1-.07-5.08-.12-9.2-.16-12.06,0-1.42,0-2.53,0-3.3v-1.16Z" transform="translate(-220.22 -70.8)"/><path class="cls-4" d="M486.16,278.23s.24,0,.67-.11a3.31,3.31,0,0,0,2.46-3.74c0-1.19-.06-2.55-.1-4,0-.75,0-1.54-.05-2.36a3.32,3.32,0,0,0-.74-2.3,3.12,3.12,0,0,0-2.29-1.13c-.92,0-1.9,0-2.89.05l-12.89.25a3.16,3.16,0,0,0-2.67,1.59,3.11,3.11,0,0,0-.41,1.51c0,.55,0,1.09,0,1.63,0,1.08,0,2.14.06,3.17,0,.52,0,1,0,1.54a14.38,14.38,0,0,0,.06,1.49A3.12,3.12,0,0,0,469,278a3.07,3.07,0,0,0,1.26.41c.43,0,.9,0,1.33,0l4.91-.08,7.1-.08h2.6l-.17,0-.5,0-1.93.07-7.1.18-4.9.11c-.45,0-.88,0-1.36,0a3.33,3.33,0,0,1-1.36-.43,3.4,3.4,0,0,1-1.68-2.38,13,13,0,0,1-.07-1.52l0-1.54q0-1.56-.06-3.18l0-1.63a3.42,3.42,0,0,1,3.35-3.38l12.9-.23c1,0,1.95,0,2.9,0a3.37,3.37,0,0,1,2.46,1.23,3.53,3.53,0,0,1,.78,2.45c0,.82,0,1.6,0,2.35,0,1.5,0,2.86.05,4.05a8.38,8.38,0,0,1,0,.87,2.85,2.85,0,0,1-.18.79,3.18,3.18,0,0,1-.74,1.2,3.25,3.25,0,0,1-1.68.94A2.5,2.5,0,0,1,486.16,278.23Z" transform="translate(-220.22 -70.8)"/><path class="cls-8" d="M474.45,261.53c.18,0,10.2-9.3,10.2-9.3l9.23,9Z" transform="translate(-220.22 -70.8)"/><path class="cls-4" d="M489.87,261.32a33.51,33.51,0,0,1-3.52-2.64,35,35,0,0,1-3.34-2.86,68.07,68.07,0,0,1,6.86,5.5Z" transform="translate(-220.22 -70.8)"/><path class="cls-4" d="M486.61,261.47a18.39,18.39,0,0,1-2.64-1.94,18.76,18.76,0,0,1-2.47-2.15,17.82,17.82,0,0,1,2.64,1.93A18.38,18.38,0,0,1,486.61,261.47Z" transform="translate(-220.22 -70.8)"/><path class="cls-4" d="M483.17,261.48a7.41,7.41,0,0,1-1.68-1.17,7.29,7.29,0,0,1-1.5-1.38,7.56,7.56,0,0,1,1.68,1.16A7.17,7.17,0,0,1,483.17,261.48Z" transform="translate(-220.22 -70.8)"/><path class="cls-4" d="M479.89,261.61c-.05.06-.41-.14-.8-.46s-.66-.61-.61-.67.4.14.79.45S479.94,261.55,479.89,261.61Z" transform="translate(-220.22 -70.8)"/><g class="cls-11"><path d="M460.39,281.23a60.7,60.7,0,0,0,34.76-.9Z" transform="translate(-220.22 -70.8)"/></g><path class="cls-1" d="M481.57,268.59l-4.48.09a1.27,1.27,0,0,1-1.3-1.25h0a1.27,1.27,0,0,1,1.25-1.29l4.48-.09a1.27,1.27,0,0,1,1.29,1.25h0A1.26,1.26,0,0,1,481.57,268.59Z" transform="translate(-220.22 -70.8)"/><polygon class="cls-10" points="260.13 306.77 265.5 326.28 255.04 329.39 249.61 309.85 260.13 306.77"/><path class="cls-4" d="M480.35,397.88c-.09,0-1.29-4.24-2.67-9.53s-2.44-9.59-2.35-9.61,1.28,4.24,2.67,9.53S480.43,397.86,480.35,397.88Z" transform="translate(-220.22 -70.8)"/><polygon class="cls-4" points="265.13 324.93 254.65 328.01 255.04 329.39 265.5 326.28 265.13 324.93"/><path class="cls-4" d="M473.52,394a1.49,1.49,0,0,1,.15-.5,8.06,8.06,0,0,1,.67-1.26,7.32,7.32,0,0,1,1.39-1.6,5.8,5.8,0,0,1,6.9-.57,5.17,5.17,0,0,1,1.08.94,1.56,1.56,0,0,1,.3.43,12.29,12.29,0,0,0-1.5-1.17,5.86,5.86,0,0,0-4.39-.55,6.71,6.71,0,0,0-3.59,2.65C473.85,393.28,473.57,394,473.52,394Z" transform="translate(-220.22 -70.8)"/><g class="cls-11"><polygon points="262.38 314.62 263 317.34 252.36 319.74 251.68 317.3 262.38 314.62"/></g><path class="cls-10" d="M370.47,338.3,374.31,352s-14.7,5.22-14.86,8l28.51.22v-4.41l-3.16-18.35Z" transform="translate(-220.22 -70.8)"/><path class="cls-8" d="M383,350.75a1.17,1.17,0,0,1,.82,1.34,1.13,1.13,0,0,1-1.32.82,1.24,1.24,0,0,1-.86-1.42,1.18,1.18,0,0,1,1.47-.71" transform="translate(-220.22 -70.8)"/><path class="cls-4" d="M388,360.13V358.3l-27.67.34a2.19,2.19,0,0,0-1,1.43Z" transform="translate(-220.22 -70.8)"/><path class="cls-4" d="M374.05,352.06c0,.14.71.2,1.4.65s1.06,1,1.19,1-.08-.87-.93-1.4S374,351.93,374.05,352.06Z" transform="translate(-220.22 -70.8)"/><path class="cls-4" d="M371,353.31c0,.14.58.38,1.06,1s.62,1.22.76,1.21.23-.8-.38-1.52S371,353.18,371,353.31Z" transform="translate(-220.22 -70.8)"/><path class="cls-4" d="M369.33,356.93c.13,0,.32-.67,0-1.44s-1-1.07-1.08-1,.35.53.63,1.17S369.19,356.92,369.33,356.93Z" transform="translate(-220.22 -70.8)"/><path class="cls-4" d="M374.29,348.66c.06.13.7-.07,1.5,0s1.41.3,1.49.17-.53-.62-1.46-.66S374.22,348.55,374.29,348.66Z" transform="translate(-220.22 -70.8)"/><path class="cls-4" d="M373.77,345.49a2.6,2.6,0,0,0,1.44,0,6.42,6.42,0,0,0,1.51-.47,6.56,6.56,0,0,0,.82-.44,1.8,1.8,0,0,0,.44-.34.62.62,0,0,0,.06-.75.8.8,0,0,0-.62-.32,2.12,2.12,0,0,0-.54.08,4.66,4.66,0,0,0-.89.31,5,5,0,0,0-1.33.88c-.67.62-.89,1.14-.84,1.17s.38-.4,1.06-.91a5.93,5.93,0,0,1,1.29-.73,4.91,4.91,0,0,1,.82-.25c.31-.09.57-.09.64.05s0,.07,0,.16a1.55,1.55,0,0,1-.32.25,7.31,7.31,0,0,1-.76.43,6.9,6.9,0,0,1-1.39.54A13.25,13.25,0,0,0,373.77,345.49Z" transform="translate(-220.22 -70.8)"/><g class="cls-11"><polygon points="166.12 274.98 166.55 277.94 153.5 279.04 152.65 276.03 166.12 274.98"/></g><path class="cls-12" d="M389.56,162.75l-1.37-2.87,2.31-3,1.43-3.34-.62-6s-1,.1-1.11,1.82a17.81,17.81,0,0,1-.31,2.64l-.59-1.42s0-4.16-.42-4.56-1.62-1-1.82,0-.4,2.63-.4,2.63-.21-2.43-1.12-3.19-1.42-.46-1.83,1.16v1s-1.22-1.42-2.23-.71a3.65,3.65,0,0,0-1.22,2.23,2.51,2.51,0,0,0-1.31,1.21,13.45,13.45,0,0,0-.22,4.94c.3.61,1.76,4.36,1.76,4.36l.41,2.32Z" transform="translate(-220.22 -70.8)"/><path class="cls-12" d="M380.9,162.05s5.35,22,8.66,28.37L401,184.58l-12.82-24.7Z" transform="translate(-220.22 -70.8)"/><path class="cls-12" d="M474.63,238c.1-.4,3-7.24,3-7.24l6.59,1.89-3.39,16.12Z" transform="translate(-220.22 -70.8)"/><path class="cls-12" d="M476.44,233.76l1.26-2.62-2.12-2.71-1.3-3.05.56-5.47s.93.1,1,1.67a16.1,16.1,0,0,0,.28,2.41l.54-1.3s0-3.79.38-4.16,1.48-.93,1.67,0,.36,2.4.36,2.4.2-2.21,1-2.91,1.29-.42,1.67,1.06V220s1.11-1.3,2-.65a3.29,3.29,0,0,1,1.11,2,2.34,2.34,0,0,1,1.21,1.11,12.41,12.41,0,0,1,.2,4.51c-.28.55-1.61,4-1.61,4l-.79,3.12Z" transform="translate(-220.22 -70.8)"/><path class="cls-4" d="M448,166l-.3-.12a6,6,0,0,0-4.53-3.53,7.81,7.81,0,0,0-5.69,1.34c-1.15.78-2.11,1.82-3.26,2.59a4.58,4.58,0,0,1-3.93.84c-.23.48.68.89.55,1.41a.63.63,0,0,1-.59.4,5.94,5.94,0,0,1-1.1-.15.9.9,0,0,0-.95.43,1.1,1.1,0,0,0,0,.54,9.71,9.71,0,0,0,1.65,4.56A5.06,5.06,0,0,0,434,176.5a8.14,8.14,0,0,0,3.59-1.46l6.34-3.89a13.11,13.11,0,0,0,2.74-2A4.35,4.35,0,0,0,448,166Z" transform="translate(-220.22 -70.8)"/><path class="cls-4" d="M446.73,166.21a6.41,6.41,0,0,1,2.85-1,3.79,3.79,0,0,1,2.82.91,8.31,8.31,0,0,1,1.48,2.4,3.53,3.53,0,0,0,2,1.92.83.83,0,0,1,.44.21c.19.23,0,.6-.29.68a1.36,1.36,0,0,1-.86-.11,3.08,3.08,0,0,0,1.68,1.24,1.33,1.33,0,0,1-1.74.73,14.18,14.18,0,0,1,.12,3.38,4.63,4.63,0,0,1-1.47,3c-1,.8-2.38,1.14-2.9,2.27" transform="translate(-220.22 -70.8)"/><path class="cls-12" d="M433.69,204.7l15,1.69-.07-13s1.05-.09,1.82-5.63,2.2-14.95,2.2-14.95h0a19.44,19.44,0,0,0-19.69,0l-.9.53Z" transform="translate(-220.22 -70.8)"/><path class="cls-12" d="M432.94,180.42c-.09,0-3.67-1.61-4,2.21s3.54,3.38,3.56,3.27S432.94,180.42,432.94,180.42Z" transform="translate(-220.22 -70.8)"/><path class="cls-12" d="M450.87,181.87c.1,0,3.59-.52,3,3.26s-4.27,2.4-4.26,2.29S450.87,181.87,450.87,181.87Z" transform="translate(-220.22 -70.8)"/><path class="cls-4" d="M431.76,179.84c.17,3.26-.15,4.91.1,7.1a11.29,11.29,0,0,0,4.58,8.32c2.81,2.06,6.91,2.54,9.8.58a9,9,0,0,0,4.08-5.34c.57-2.36,1.84-6.76,2.15-9.16.58-4.33.92-8.23.92-8.23l-12.1-3.8-7.57,3.31Z" transform="translate(-220.22 -70.8)"/><path class="cls-4" d="M442.46,198a4.06,4.06,0,0,1-2.2-.08,4,4,0,0,1-2-.92c.05-.09.93.31,2.08.58S442.46,197.86,442.46,198Z" transform="translate(-220.22 -70.8)"/><path class="cls-4" d="M431.68,185.33c.05-3.31.28-7.07.2-10.57a21.92,21.92,0,0,1,0-4.51c.27-1.29.58-.85,1.3-1.95.91-1.39,3.78-2,5.43-2.15s2-1.48,3.13-.25a4,4,0,0,1,7.11,2.62,2.82,2.82,0,0,1,4.26,3.38,2.75,2.75,0,0,1,1.31,4.4c-.68.81-1.78,1.17-2.52,1.93a3.21,3.21,0,0,0-.62,3.41" transform="translate(-220.22 -70.8)"/><path class="cls-13" d="M447.72,186.65a6.07,6.07,0,0,1-.85,3.28,6,6,0,0,1-2.24,2.55,20.63,20.63,0,0,0,1.93-2.71A21.94,21.94,0,0,0,447.72,186.65Z" transform="translate(-220.22 -70.8)"/><path class="cls-13" d="M449.73,184.09a4.92,4.92,0,0,1-.14,3,4.86,4.86,0,0,1-1.63,2.56,15.64,15.64,0,0,0,1.3-2.67A17.66,17.66,0,0,0,449.73,184.09Z" transform="translate(-220.22 -70.8)"/><path class="cls-4" d="M435.78,169a8.58,8.58,0,0,1,4.3-3,5,5,0,0,1,4.9,1.25" transform="translate(-220.22 -70.8)"/><path class="cls-13" d="M435,177.45a3.06,3.06,0,0,0,0-1.13,15.23,15.23,0,0,1,0-2.67,5.93,5.93,0,0,1,.89-2.45c.37-.56.71-.83.67-.88s-.45.14-.92.7a5.05,5.05,0,0,0-1.08,2.57,9.61,9.61,0,0,0,.09,2.76C434.87,177,435,177.46,435,177.45Z" transform="translate(-220.22 -70.8)"/><path class="cls-13" d="M437.44,179a6,6,0,0,0-.27-1.82,6.32,6.32,0,0,0-.39-1.79,3,3,0,0,0,0,1.87C436.92,178.32,437.33,179.08,437.44,179Z" transform="translate(-220.22 -70.8)"/><path class="cls-13" d="M449.46,179.55a3.28,3.28,0,0,0,1-1.25,6.77,6.77,0,0,0-.54-7.45c-.63-.8-1.16-1.13-1.19-1.09s.4.47.93,1.27a7.51,7.51,0,0,1,1.21,3.49,7.35,7.35,0,0,1-.69,3.63C449.79,179,449.4,179.5,449.46,179.55Z" transform="translate(-220.22 -70.8)"/><path class="cls-13" d="M437.7,163.72a4.48,4.48,0,0,0,1.28-.36,7.23,7.23,0,0,1,3.08-.35,3.59,3.59,0,0,1,2.56,1.48,6.77,6.77,0,0,1,.56,1.17c.05,0,.14-.57-.29-1.34a3.32,3.32,0,0,0-1-1.11,4.08,4.08,0,0,0-1.74-.64,6.32,6.32,0,0,0-3.24.5A3.22,3.22,0,0,0,437.7,163.72Z" transform="translate(-220.22 -70.8)"/><path class="cls-13" d="M454.19,169.37c.05,0,0-.45-.32-1.06a4.13,4.13,0,0,0-4.65-2c-.67.18-1,.46-1,.5a7.57,7.57,0,0,0,1-.19,4.59,4.59,0,0,1,2.44.31,4.49,4.49,0,0,1,1.88,1.56C454,169,454.12,169.39,454.19,169.37Z" transform="translate(-220.22 -70.8)"/><path class="cls-13" d="M448.35,182.81c0-.05-.59-.3-1.53-.87a12.78,12.78,0,0,1-3.35-2.94l-.63-.79.27,1a8,8,0,0,1,.31,1.87c0,.32,0,.72-.1.76s-.41-.13-.67-.37a11.25,11.25,0,0,1-2.26-2.57l-.56-.87.17,1c.18,1,.35,2,.5,2.82l.31-.14a17.21,17.21,0,0,1-2.05-3.36,3.13,3.13,0,0,0,.31,1,9.94,9.94,0,0,0,1.47,2.54l.4.52-.1-.66c-.13-.86-.27-1.81-.42-2.83l-.39.14a11.06,11.06,0,0,0,2.34,2.69,3.34,3.34,0,0,0,.45.35.72.72,0,0,0,.72.06.75.75,0,0,0,.33-.63,4.77,4.77,0,0,0,0-.54,8.72,8.72,0,0,0-.35-2l-.36.19a11.92,11.92,0,0,0,3.55,2.89A5.39,5.39,0,0,0,448.35,182.81Z" transform="translate(-220.22 -70.8)"/><path class="cls-4" d="M442.94,167.26a2,2,0,0,1,1.32-.77,3.51,3.51,0,0,1,1.54.15,5.59,5.59,0,0,1,3,2.28c.16.24.28.61.05.79a.64.64,0,0,1-.44.1,23.92,23.92,0,0,1-5.57-.91" transform="translate(-220.22 -70.8)"/><path class="cls-14" d="M410.58,269.59S384,281,376.71,283.52c-6.84,2.38-13.09,7.76-13.61,10.59s1.27,18.12,2.07,23.43c.84,5.65,4.2,32.26,4.2,32.26L388,346.33s-3.36-25.57-3.93-30c-.63-4.86-1.39-9.69-1.39-9.69l.08-1.1s18.34-2.65,23.06-4.21,21.2-5.75,21.2-5.75l4.8,2.25,1.76,1,3.31,4.91s12.81,33.05,13.86,35.77,11.66,31.15,13.86,35.45,5.05,13.91,5.05,13.91l15.72-3.55s-6.92-30-9.75-34.8-8-21.6-8-21.6l-3.46-23.69S458.31,282.45,458,281s-2.84-15.45-2.84-15.45l-43.9-1.4Z" transform="translate(-220.22 -70.8)"/><path class="cls-13" d="M462.41,298.21a5.9,5.9,0,0,1-.39-1.15l-.9-3.2c-.38-1.39-.81-3-1.29-4.76s-1.05-3.76-1.42-5.87c-.85-4.2-1.59-8-2.1-10.76-.24-1.31-.43-2.41-.59-3.27a6,6,0,0,1-.15-1.22,6.47,6.47,0,0,1,.33,1.18c.19.85.44,1.94.73,3.24.59,2.74,1.38,6.53,2.23,10.73.37,2.11.95,4.07,1.39,5.87s.84,3.39,1.18,4.78.56,2.38.77,3.23A7,7,0,0,1,462.41,298.21Z" transform="translate(-220.22 -70.8)"/><path class="cls-6" d="M390.52,278s2.38,14.6,5.08,18.91a17.59,17.59,0,0,0,6.62,6.17l-9.61-25.94Z" transform="translate(-220.22 -70.8)"/><polygon class="cls-6" points="221.02 244.09 219.44 239.62 244.02 234.44 244.66 238.84 221.02 244.09"/><path class="cls-13" d="M441.29,285.12a2.26,2.26,0,0,1-.35.73,14.27,14.27,0,0,1-1.22,1.83,21.34,21.34,0,0,1-5.32,4.92,21.64,21.64,0,0,1-6.65,2.88,15.3,15.3,0,0,1-2.17.37,2.72,2.72,0,0,1-.8,0c0-.08,1.12-.22,2.89-.72a23.86,23.86,0,0,0,11.8-7.68C440.63,286.06,441.22,285.08,441.29,285.12Z" transform="translate(-220.22 -70.8)"/><g class="cls-15"><path d="M427.06,295.57a13.6,13.6,0,0,0,9.22-1.62,9.24,9.24,0,0,0,4.48-7.95c-3.44,4.15-7.31,7.89-13.7,9.57" transform="translate(-220.22 -70.8)"/></g><path class="cls-13" d="M369.37,349.8a1.38,1.38,0,0,1,.34-.1l1-.22,3.81-.77L388,346.13l-.17.23c-.58-4.36-1.24-9.32-1.93-14.56-1.39-10.59-2.59-20-3.33-26l0,.07a12.11,12.11,0,0,0-4.21-3.34c-1.14-.54-1.81-.69-1.8-.73a2.6,2.6,0,0,1,.49.1,11.55,11.55,0,0,1,1.38.49,11.82,11.82,0,0,1,4.37,3.3l0,0v0c.84,6,2.11,15.43,3.5,26,.68,5.24,1.32,10.2,1.89,14.57l0,.19-.19,0L374.57,349l-3.83.65-1,.16Z" transform="translate(-220.22 -70.8)"/><polygon class="cls-6" points="190.37 198.78 201.94 199.22 201.94 196.21 190.75 195.89 190.37 198.78"/><polygon class="cls-6" points="205.78 196.37 205.78 199.59 221.87 200.35 221.87 196.79 205.78 196.37"/><polygon class="cls-6" points="227.03 196.94 227.03 200.35 235.98 200.67 235.35 197.18 227.03 196.94"/><path class="cls-7" d="M410.44,216.25l-19.89-22.62a13.37,13.37,0,0,1-3.31-7.38l11.45-6.62,5.6,6.87,7.38,6.88,9.42,4.76,7.8,2.27,3.66-3.22,16.11,1.6L452,204l13.58,6.69-11.41,48.6L456,262a4.46,4.46,0,0,1,.52,4l-.73,2L411,266.7l-.5-3.8,1.14-6.07.57-26.6Z" transform="translate(-220.22 -70.8)"/><path class="cls-9" d="M411.21,258.46s3.46.48,9.75,1.67c13.15,2.47,33.77,0,33.77,0Z" transform="translate(-220.22 -70.8)"/><path class="cls-7" d="M480.55,243.7c-1-2.7-4.25-3.86-4.25-3.86s-8.48-23.54-8.87-25.46a9.78,9.78,0,0,0-1.84-3.68l-3.37-1.5-5.4,18.68,7.91,23s4.44,6.36,10.42,6S481.51,246.4,480.55,243.7Z" transform="translate(-220.22 -70.8)"/><path class="cls-4" d="M403.06,185.55a11,11,0,0,1-1.74,1.28c-1.1.76-2.62,1.8-4.27,3s-3.14,2.27-4.21,3.06a10.87,10.87,0,0,1-1.79,1.22,9.14,9.14,0,0,1,1.59-1.48c1-.86,2.48-2,4.14-3.18s3.22-2.18,4.36-2.86A8.7,8.7,0,0,1,403.06,185.55Z" transform="translate(-220.22 -70.8)"/><path class="cls-4" d="M451.08,203.57a3.51,3.51,0,0,1-.87,0c-.57,0-1.38,0-2.39-.08-2-.11-4.79-.36-7.83-.8s-5.78-1-7.74-1.46c-1-.23-1.77-.44-2.31-.6a3.63,3.63,0,0,1-.83-.29,25,25,0,0,1,3.21.57c2,.38,4.7.88,7.74,1.32s5.79.74,7.79.93A25.28,25.28,0,0,1,451.08,203.57Z" transform="translate(-220.22 -70.8)"/><path class="cls-4" d="M463.84,216.89a4.27,4.27,0,0,1-.06,1c-.06.65-.18,1.58-.35,2.72-.33,2.3-.89,5.46-1.66,8.91s-1.61,6.55-2.29,8.76c-.33,1.11-.62,2-.84,2.62a3.84,3.84,0,0,1-.38.93,4.62,4.62,0,0,1,.21-1c.19-.72.42-1.6.7-2.65.59-2.23,1.38-5.33,2.15-8.77s1.37-6.58,1.79-8.86c.19-1.06.36-2,.49-2.69A4.26,4.26,0,0,1,463.84,216.89Z" transform="translate(-220.22 -70.8)"/><path class="cls-4" d="M472,256a6,6,0,0,1,.74,0,3.67,3.67,0,0,0,1.83-.6,4.71,4.71,0,0,0,1.81-2.2,11.53,11.53,0,0,0,.79-3.5,22.64,22.64,0,0,0-.34-6.58c-.34-1.67-.71-2.66-.63-2.69a2.62,2.62,0,0,1,.33.67,17.1,17.1,0,0,1,.62,1.95,20,20,0,0,1,.49,6.7,11.51,11.51,0,0,1-.87,3.63,4.89,4.89,0,0,1-2,2.3,3.5,3.5,0,0,1-2,.5A1.46,1.46,0,0,1,472,256Z" transform="translate(-220.22 -70.8)"/><path class="cls-4" d="M419.66,200.23a13.92,13.92,0,0,1-1.24,2.11c-.8,1.27-1.9,3-3.05,5s-2.13,3.82-2.84,5.15a15,15,0,0,1-1.2,2.13,10.37,10.37,0,0,1,.91-2.28c.63-1.37,1.57-3.24,2.73-5.24s2.3-3.74,3.17-5A11.46,11.46,0,0,1,419.66,200.23Z" transform="translate(-220.22 -70.8)"/><path class="cls-4" d="M434.11,252.71a39.47,39.47,0,0,1-.6-6,40.3,40.3,0,0,1-.15-6,38.65,38.65,0,0,1,.61,6A37.92,37.92,0,0,1,434.11,252.71Z" transform="translate(-220.22 -70.8)"/><path class="cls-4" d="M440,239a56.53,56.53,0,0,1-1.11,7.21,57.88,57.88,0,0,1-1.56,7.13,56.26,56.26,0,0,1,1.11-7.22A59.12,59.12,0,0,1,440,239Z" transform="translate(-220.22 -70.8)"/><g class="cls-11"><path d="M438,245.43c-.33-.93-1.84-.84-2.64-.26a3.53,3.53,0,0,0-1.24,2.58c-.08,1,0,4.42,0,5.4l3.22.13C437.46,252.51,438.67,247.34,438,245.43Z" transform="translate(-220.22 -70.8)"/></g><path class="cls-4" d="M416.94,267a3.61,3.61,0,0,1-1.13-2.57,3.68,3.68,0,0,1,.52-2.76,20.36,20.36,0,0,0-.06,2.71A20.53,20.53,0,0,0,416.94,267Z" transform="translate(-220.22 -70.8)"/><path class="cls-4" d="M419.51,267.18c-.13,0-.27-.55-.3-1.23s0-1.25.16-1.26.26.54.3,1.23S419.64,267.17,419.51,267.18Z" transform="translate(-220.22 -70.8)"/><g class="cls-11"><path d="M459.62,237.86a22.16,22.16,0,0,0,4-19.73Z" transform="translate(-220.22 -70.8)"/></g><g class="cls-11"><path d="M450.66,203.65c-3.74.58-6.11,1.2-9.89.92s-8.62-1.64-11.49-4.12Z" transform="translate(-220.22 -70.8)"/></g><path class="cls-9" d="M392.22,193.14a14.58,14.58,0,0,0,5.85-2,11.86,11.86,0,0,0,3.66-4.77Z" transform="translate(-220.22 -70.8)"/><path class="cls-10" d="M411.35,252.23,455.8,254a7.54,7.54,0,0,1-.37,6.09l-44.22-1.67Z" transform="translate(-220.22 -70.8)"/><path class="cls-4" d="M411.35,252.23s0,.15,0,.42v1.21c0,1.08,0,2.62,0,4.6l-.11-.11c8.33.24,25,.82,44.23,1.54l-.22.13.06-.12A7.93,7.93,0,0,0,456,257a6,6,0,0,0-.43-2.84l.19.13-31.54-1.39-9.43-.45-2.56-.14-.67,0-.24,0s.06,0,.21,0h.64l2.51.07,9.38.31,31.72,1.2H456l.06.13a6.42,6.42,0,0,1,.49,3.07,8.47,8.47,0,0,1-.8,3.09l-.06.13-.06.13h-.16c-19.21-.72-35.9-1.4-44.22-1.79h-.11v-.11c.07-2,.12-3.58.16-4.67,0-.5,0-.89.06-1.18A1.65,1.65,0,0,1,411.35,252.23Z" transform="translate(-220.22 -70.8)"/><path class="cls-4" d="M456.2,257.4c0,.13-10.07-.22-22.47-.78s-22.46-1.12-22.45-1.25,10.06.22,22.47.78S456.2,257.27,456.2,257.4Z" transform="translate(-220.22 -70.8)"/><path class="cls-10" d="M391.69,276.9s7,24.51,10.53,26.22l7.75-1.93-12.5-26.54Z" transform="translate(-220.22 -70.8)"/><path class="cls-4" d="M406.42,302.15c-.12.05-2.8-5.79-6-13.06s-5.66-13.19-5.54-13.24,2.79,5.79,6,13.06S406.53,302.1,406.42,302.15Z" transform="translate(-220.22 -70.8)"/><path class="cls-10" d="M436.92,303.75c-.28.53,2.53,7.9,2.75,7.73l25-5.68a29.37,29.37,0,0,0-1.93-7.59Z" transform="translate(-220.22 -70.8)"/><path class="cls-4" d="M463.47,302.3c0,.12-5.56,1.51-12.48,3.1s-12.55,2.77-12.58,2.65,5.56-1.52,12.48-3.11S463.44,302.17,463.47,302.3Z" transform="translate(-220.22 -70.8)"/><path class="cls-10" d="M404.71,290s10.94-1,15.11-6.7S424.77,259,424.77,259l2.29.08s.36,19.57-7,26.78-14,7.07-14,7.07Z" transform="translate(-220.22 -70.8)"/><path class="cls-10" d="M442.12,259.62c0,.43,5.59,41.73,5.59,41.73l3.37-.75-6.23-40.87Z" transform="translate(-220.22 -70.8)"/><path class="cls-13" d="M480.78,245.69a44,44,0,0,1,.89,6.5H485s-1.88-7.15-2.88-10-5.4-5.3-7.07-5.13l1.24,2.74.15.08A8.93,8.93,0,0,1,480.78,245.69Z" transform="translate(-220.22 -70.8)"/></svg>