<svg xmlns="http://www.w3.org/2000/svg" viewBox="0 0 423.53 392.14"><defs><style>.cls-1{fill:#ebebeb;}.cls-2{fill:#e0e0e0;}.cls-3{fill:#325988;}.cls-4{fill:#263238;}.cls-5{fill:#589bda;}.cls-6{fill:#f5f5f5;}.cls-7{fill:#fff;}.cls-8{fill:#eab531;}</style></defs><g id="Device"><rect class="cls-1" x="348.96" y="31.21" width="49.89" height="13.2"/><rect class="cls-1" x="40.67" y="20.55" width="49.89" height="13.2"/><path class="cls-2" d="M107.06,91.16a1.1,1.1,0,0,1,0-.24l0-.67c0-.62,0-1.49,0-2.6,0-2.28,0-5.55-.09-9.68l.16.15-49.89.1c.12-.11-.25.25.25-.25h0V91.16l-.25-.24L92.72,91l10.49.07,2.84,0,.74,0h.27a1.1,1.1,0,0,1-.24,0l-.71,0-2.78,0-10.44.07-35.72.11h-.25V78h0c.5-.51.14-.14.25-.26l49.89.1h.15V78c0,4.17-.06,7.47-.08,9.77,0,1.1,0,2,0,2.56,0,.27,0,.48,0,.65A1.31,1.31,0,0,1,107.06,91.16Z" transform="translate(-38.24 -43.51)"/><path class="cls-2" d="M356.59,70.22a1.35,1.35,0,0,1,0-.24V69.3c0-.62,0-1.48,0-2.6,0-2.27,0-5.55-.09-9.68l.16.16-49.89.1L307,57h0V70.22L306.7,70l35.55.11,10.49.07,2.84,0h.74l.27,0h-.23l-.72,0-2.78,0-10.44.07-35.72.12h-.25V57h0l.25-.25,49.89.1h.15V57c0,4.17-.06,7.48-.08,9.78,0,1.09,0,2,0,2.56l0,.65A1.66,1.66,0,0,1,356.59,70.22Z" transform="translate(-38.24 -43.51)"/><path class="cls-2" d="M363.35,57a1.27,1.27,0,0,1,0-.25l0-.7c0-.65,0-1.53,0-2.65,0-2.31-.06-5.58-.1-9.6l.18.19-30,.07.25-.25h0v6.77c0,2.21,0,4.35,0,6.4l-.24-.24,21.44.11,6.24.07,1.69,0,.6,0a3.51,3.51,0,0,1-.54,0l-1.64,0-6.19.07-21.6.11h-.24V57c0-2.05,0-4.19,0-6.4,0-1.1,0-2.22,0-3.36V43.85h0l.26-.26,30,.07h.19v.18c0,4.07-.07,7.38-.09,9.72,0,1.09,0,2-.05,2.6A7,7,0,0,1,363.35,57Z" transform="translate(-38.24 -43.51)"/><rect class="cls-1" x="74.03" y="364.79" width="49.89" height="13.2"/><path class="cls-2" d="M140.42,435.41a1.35,1.35,0,0,1,0-.24l0-.68c0-.62,0-1.49,0-2.6,0-2.28,0-5.55-.09-9.68l.16.15-49.89.1c.12-.11-.25.26.25-.25h0v13.18l-.25-.25,35.55.11,10.49.07,2.84,0,.74,0a.91.91,0,0,1,.27,0h-.23l-.72,0-2.78,0-10.44.07-35.72.11h-.25V422.23h0l.25-.26,49.89.1h.15v.16c0,4.17-.06,7.47-.08,9.77,0,1.1,0,1.95,0,2.57,0,.26,0,.48,0,.65A1.66,1.66,0,0,1,140.42,435.41Z" transform="translate(-38.24 -43.51)"/><path class="cls-2" d="M390,426.76a1.1,1.1,0,0,1,0-.24v-.67c0-.62,0-1.49,0-2.6,0-2.28-.05-5.55-.09-9.68l.16.15-49.89.1.26-.25h0v13.17l-.25-.24,35.55.11,10.49.07,2.84,0,.74,0H390a.6.6,0,0,1-.23,0l-.72,0-2.78,0-10.44.07-35.72.11h-.25V413.59h0c.51-.51.14-.14.25-.26l49.89.1h.15v.16c0,4.17-.06,7.47-.08,9.77,0,1.1,0,2,0,2.56l0,.65A1.31,1.31,0,0,1,390,426.76Z" transform="translate(-38.24 -43.51)"/><path class="cls-2" d="M396.71,413.57a1.41,1.41,0,0,1,0-.25l0-.7c0-.65,0-1.54,0-2.65,0-2.31-.06-5.58-.1-9.6l.18.18-30,.07.25-.25h0v6.78c0,2.21,0,4.35,0,6.4l-.24-.24,21.44.11,6.24.07,1.69,0,.6,0a3.51,3.51,0,0,1-.54,0l-1.64,0-6.19.06-21.6.12h-.24v-.24c0-2.05,0-4.19,0-6.4,0-1.11,0-2.23,0-3.36v-3.42h0l.26-.25,30,.07h.19v.18c0,4.07-.07,7.37-.09,9.71,0,1.1,0,2-.05,2.61A7,7,0,0,1,396.71,413.57Z" transform="translate(-38.24 -43.51)"/><path class="cls-3" d="M13.45,53.09H410.14a13.15,13.15,0,0,1,13.15,13.15V334.69a13.15,13.15,0,0,1-13.15,13.15H13.45A13.16,13.16,0,0,1,.3,334.69V66.24A13.16,13.16,0,0,1,13.45,53.09Z"/><path class="cls-4" d="M461.53,109.76l-.06-.92a6.9,6.9,0,0,0-.14-1.13,10.4,10.4,0,0,0-.34-1.54,13.23,13.23,0,0,0-6.58-8,14,14,0,0,0-3.5-1.22,20.31,20.31,0,0,0-4.12-.24h-9.52l-23.75,0-151.4.09-104.56,0H53.32a20.6,20.6,0,0,0-3.86.21,12.4,12.4,0,0,0-3.64,1.22,13.12,13.12,0,0,0-5.46,5.31,14.27,14.27,0,0,0-1.31,3.64,19.48,19.48,0,0,0-.24,3.91v24.13q0,16.23,0,32.83v67.69c0,46,0,93.59,0,142.36A12.86,12.86,0,0,0,49.3,390.83a22.83,22.83,0,0,0,4.47.23H306l120,0h20.87a22.2,22.2,0,0,0,3.38-.16,13.19,13.19,0,0,0,3.21-.89A13,13,0,0,0,461.16,380a22.34,22.34,0,0,0,.14-3.29v-9.88q0-26.18,0-50.17c0-63.92.07-115.64.1-151.39,0-17.87,0-31.75.05-41.16,0-4.7,0-8.29,0-10.71s0-3.64,0-3.64,0,1.23,0,3.64,0,6,0,10.71c0,9.41,0,23.29.06,41.16,0,35.75.05,87.47.09,151.39q0,24,0,50.17v9.88a22.39,22.39,0,0,1-.14,3.36,13.33,13.33,0,0,1-11.28,11.37,23.57,23.57,0,0,1-3.45.16H426l-120,0-132.62,0H53.77a22.86,22.86,0,0,1-4.58-.24,13.43,13.43,0,0,1-10.95-13.24V235.81q0-34.49,0-67.69V135.29q0-8.11,0-16.13v-8a19.4,19.4,0,0,1,.26-4,14.48,14.48,0,0,1,1.36-3.8,13.59,13.59,0,0,1,5.7-5.54,13,13,0,0,1,3.79-1.27,21.9,21.9,0,0,1,4-.21h46l58.24,0,104.56,0,151.4.1,23.75,0,9.52,0a20.71,20.71,0,0,1,4.15.26A13.64,13.64,0,0,1,454.47,98a13.22,13.22,0,0,1,6.58,8.11,11.79,11.79,0,0,1,.33,1.55,7.91,7.91,0,0,1,.12,1.14C461.53,109.45,461.53,109.76,461.53,109.76Z" transform="translate(-38.24 -43.51)"/><path class="cls-5" d="M440.27,232.67A11.31,11.31,0,1,1,429,244,11.31,11.31,0,0,1,440.27,232.67Z" transform="translate(-38.24 -43.51)"/><path class="cls-5" d="M60.89,213.78V274a4.2,4.2,0,0,1-4.2,4.2h0a4.2,4.2,0,0,1-4.2-4.2v-60.2a4.2,4.2,0,0,1,4.2-4.2h0A4.2,4.2,0,0,1,60.89,213.78Z" transform="translate(-38.24 -43.51)"/><rect class="cls-1" x="30.47" y="62.64" width="353.25" height="276.17"/><polygon class="cls-2" points="258.24 262 285.55 310.14 352.71 309.14 348.91 256.91 258.24 262"/><polygon class="cls-2" points="169.46 99.42 159.6 175.52 179.96 180.38 219.81 176.43 212.49 93.3 169.46 99.42"/><polygon class="cls-6" points="107.57 255.16 60.49 255.16 60.49 198.47 111.66 198.98 107.57 255.16"/><path class="cls-6" d="M339.64,300.42c0-1.62,8.3-57.92,8.3-57.92s32.46-8.9,32.59-7.63L387,298.92Z" transform="translate(-38.24 -43.51)"/><path class="cls-2" d="M104.14,156.19c.09,1.37,22.48,46.41,22.48,46.41l25.94-6.87V143.92l-26.74-.62Z" transform="translate(-38.24 -43.51)"/><rect class="cls-2" x="188.4" y="206.64" width="35.86" height="16.92"/><polygon class="cls-2" points="224.43 229.16 188.31 231 186.48 265.27 227.72 262 224.43 229.16"/><polygon class="cls-2" points="369.08 165.59 364.07 95.98 383.63 95.98 383.73 164.2 369.08 165.59"/><polygon class="cls-2" points="288.97 84.58 297.11 171.32 339.88 167.48 332.42 93.5 298.56 84.58 288.97 84.58"/><polygon class="cls-7" points="92.47 100.1 30.71 99.17 30.78 95.06 89.13 95.94 95.86 62.67 99.88 63.48 92.47 100.1"/><polygon class="cls-7" points="60.2 167.09 30.28 99.99 31.21 99.58 60.78 165.88 114.2 151.72 114.46 152.71 60.2 167.09"/><rect class="cls-7" x="30.76" y="197.96" width="80.91" height="2.05"/><rect class="cls-7" x="59.98" y="166.48" width="1.03" height="88.68"/><rect class="cls-7" x="30.76" y="254.71" width="77.09" height="1.03"/><polygon class="cls-7" points="103.86 335.39 30.43 319.19 31.31 315.19 100.11 330.37 111.92 166.16 113.69 97.86 116.44 62.91 120.53 63.23 117.78 98.13 116.01 166.37 103.86 335.39"/><polygon class="cls-7" points="115.57 102.59 90.59 100.06 91 95.98 113.09 98.22 116.74 90.42 149.63 98.4 297.6 81.54 349.14 94.93 383.57 93.93 383.69 98.03 348.68 99.05 297.3 85.7 149.38 102.56 119.03 95.2 115.57 102.59"/><polygon class="cls-7" points="287.58 260.09 283.52 259.56 295.05 171.29 286.18 84.67 286.18 62.64 290.29 62.64 290.28 84.56 299.18 171.35 287.58 260.09"/><polygon class="cls-7" points="105.84 272.23 105.59 268.14 347.44 253.43 380.35 186.42 384.04 188.23 350.07 257.38 348.88 257.45 105.84 272.23"/><polygon class="cls-7" points="226.93 264.47 211.47 93.39 210.62 63.11 212.67 63.05 213.51 93.27 228.97 264.28 226.93 264.47"/><polygon class="cls-7" points="194.47 337.71 176.58 264.68 176.58 182.09 156.46 177.08 165.2 98.67 164.39 62.68 168.49 62.59 169.3 98.85 169.29 98.99 160.93 173.96 180.69 178.88 180.69 264.19 198.45 336.73 194.47 337.71"/><rect class="cls-7" x="111.66" y="198.47" width="66.97" height="1.03"/><rect class="cls-7" x="174.05" y="191.6" width="1.03" height="45.67" transform="translate(-108.9 298.66) rotate(-78.37)"/><polygon class="cls-7" points="178.52 232.93 162.61 229.42 162.61 198.98 163.64 198.98 163.64 228.59 178.75 231.93 178.52 232.93"/><polygon class="cls-7" points="153.68 337.66 144.74 308.95 103.82 308.95 103.82 304.85 147.75 304.85 157.59 336.44 153.68 337.66"/><polygon class="cls-7" points="285.25 310.66 257.79 262.25 258.68 261.74 285.85 309.63 383.5 308.17 383.52 309.2 285.25 310.66"/><rect class="cls-7" x="332.28" y="310.14" width="1.03" height="27.65"/><polygon class="cls-7" points="352.19 309.18 348.4 256.94 328.79 62.69 329.81 62.59 349.42 256.86 353.22 309.11 352.19 309.18"/><rect class="cls-7" x="216.55" y="215.35" width="205.74" height="1.03" transform="matrix(1, -0.08, 0.08, 1, -54.31, -17.58)"/><rect class="cls-7" x="404.33" y="141.12" width="2.05" height="68.12" transform="translate(-52.28 -6.55) rotate(-5.13)"/><rect class="cls-7" x="375.27" y="183.01" width="30.96" height="1.03" transform="translate(-70.88 55.72) rotate(-13.9)"/><polygon class="cls-7" points="354.2 139.2 348.88 109.04 333.88 107.45 333.99 106.43 349.76 108.1 355.21 139.02 354.2 139.2"/><rect class="cls-7" x="292.4" y="133.24" width="2.05" height="83.38" transform="translate(-52.11 -17.81) rotate(-4.9)"/><rect class="cls-7" x="294.05" y="182.75" width="37.21" height="1.03" transform="translate(-70.31 27.93) rotate(-12.41)"/><rect class="cls-7" x="307.33" y="367.1" width="29.18" height="2.05" transform="translate(-122.59 596.81) rotate(-82.65)"/><polygon class="cls-2" points="115.73 200.72 111.66 264.37 175.28 261.28 175.28 236.31 158.62 232.63 158.62 203.46 115.73 200.72"/><path class="cls-8" d="M136.45,259.74a14.46,14.46,0,1,0-26.92,7.31h0l0,.05c.56.94,1.25,1.6,2,2.59l8.4,11.11a2.6,2.6,0,0,0,4.16,0l8.26-10.93a32,32,0,0,0,2.1-2.78l0,0h0A14.4,14.4,0,0,0,136.45,259.74ZM122,266a6.37,6.37,0,1,1,6.36-6.36A6.36,6.36,0,0,1,122,266Z" transform="translate(-38.24 -43.51)"/><path class="cls-8" d="M272.5,208.87a14.46,14.46,0,1,0-26.92,7.31h0l0,0c.56.93,1.25,1.6,1.95,2.58l8.4,11.12a2.61,2.61,0,0,0,4.17,0L268.38,219a32,32,0,0,0,2.1-2.78l0,0h0A14.4,14.4,0,0,0,272.5,208.87ZM258,215.17a6.37,6.37,0,1,1,6.36-6.36A6.36,6.36,0,0,1,258,215.17Z" transform="translate(-38.24 -43.51)"/><path class="cls-8" d="M212.48,334.11a9.91,9.91,0,1,0-18.45,5h0l0,0c.38.64.86,1.1,1.34,1.77l5.75,7.62a1.79,1.79,0,0,0,2.86,0l5.65-7.49a20.53,20.53,0,0,0,1.44-1.91l0,0h0A9.86,9.86,0,0,0,212.48,334.11Zm-9.91,4.31a4.36,4.36,0,1,1,4.36-4.36A4.36,4.36,0,0,1,202.57,338.42Z" transform="translate(-38.24 -43.51)"/><path class="cls-8" d="M392.34,154.14a9.91,9.91,0,1,0-18.46,5h0l0,0c.38.64.85,1.1,1.33,1.77l5.76,7.63a1.79,1.79,0,0,0,2.85,0l5.66-7.5a20.53,20.53,0,0,0,1.44-1.91l0,0h0A9.9,9.9,0,0,0,392.34,154.14Zm-9.91,4.31a4.36,4.36,0,1,1,4.36-4.36A4.37,4.37,0,0,1,382.43,158.45Z" transform="translate(-38.24 -43.51)"/><path class="cls-8" d="M181.25,158.85a17.58,17.58,0,1,0-32.73,8.88h0l.05.07c.67,1.13,1.52,1.95,2.37,3.14l10.21,13.52a3.17,3.17,0,0,0,5.06,0l10-13.3a37.73,37.73,0,0,0,2.55-3.38l0-.05h0A17.48,17.48,0,0,0,181.25,158.85Zm-17.58,7.65a7.74,7.74,0,1,1,7.73-7.73A7.74,7.74,0,0,1,163.67,166.5Z" transform="translate(-38.24 -43.51)"/></g></svg>