<svg xmlns="http://www.w3.org/2000/svg" viewBox="0 0 467.93 410.91"><defs><style>.cls-1{fill:#f5f5f5;}.cls-2{fill:#ebebeb;}.cls-3{fill:#e0e0e0;}.cls-4{fill:#fafafa;}.cls-5{fill:#fff;}.cls-6{fill:#589bda;}.cls-7{fill:#e8b52d;}.cls-8{opacity:0.3;}.cls-9{fill:#eab531;}.cls-10{fill:#263238;}.cls-11{fill:#325988;}.cls-12{opacity:0.2;}.cls-13{fill:#ffbe9d;}.cls-14{fill:#eb996e;}.cls-15{fill:#455a64;}.cls-16{fill:#455b75;}</style></defs><g id="Background_Complete" data-name="Background Complete"><rect class="cls-1" x="109.23" y="34.22" width="48.34" height="153.21"/><rect class="cls-2" x="133.4" y="34.22" width="24.17" height="152.79"/><rect class="cls-1" x="114.75" y="19.18" width="17.07" height="15.04"/><rect class="cls-2" x="127.75" y="19.18" width="4.07" height="15.04"/><polyline class="cls-3" points="105.2 34.22 105.2 33.35 158.99 33.35 158.99 34.22"/><rect class="cls-4" x="118.77" y="40.78" width="4.09" height="8.63"/><path class="cls-3" d="M151.19,101.42c0,.09-5.41.17-12.09.17s-12.08-.08-12.08-.17,5.41-.16,12.08-.16S151.19,101.33,151.19,101.42Z" transform="translate(-17.79 -48.62)"/><rect class="cls-3" x="143.15" y="40.78" width="4.09" height="8.63"/><path class="cls-3" d="M175.57,101.42c0,.09-5.41.17-12.08.17s-12.09-.08-12.09-.17,5.41-.16,12.09-.16S175.57,101.33,175.57,101.42Z" transform="translate(-17.79 -48.62)"/><rect class="cls-3" x="143.15" y="57.92" width="4.09" height="8.63"/><path class="cls-3" d="M175.57,118.55c0,.09-5.41.17-12.08.17s-12.09-.08-12.09-.17,5.41-.16,12.09-.16S175.57,118.46,175.57,118.55Z" transform="translate(-17.79 -48.62)"/><rect class="cls-3" x="143.15" y="75.56" width="4.09" height="8.63"/><path class="cls-3" d="M175.57,136.2c0,.09-5.41.16-12.08.16s-12.09-.07-12.09-.16,5.41-.16,12.09-.16S175.57,136.11,175.57,136.2Z" transform="translate(-17.79 -48.62)"/><rect class="cls-3" x="143.15" y="93.21" width="4.09" height="8.63"/><path class="cls-3" d="M175.57,153.85c0,.09-5.41.16-12.08.16s-12.09-.07-12.09-.16,5.41-.17,12.09-.17S175.57,153.76,175.57,153.85Z" transform="translate(-17.79 -48.62)"/><rect class="cls-3" x="143.15" y="110.35" width="4.09" height="8.63"/><path class="cls-3" d="M175.57,171c0,.09-5.41.17-12.08.17s-12.09-.08-12.09-.17,5.41-.16,12.09-.16S175.57,170.9,175.57,171Z" transform="translate(-17.79 -48.62)"/><rect class="cls-3" x="143.15" y="127.57" width="4.09" height="8.63"/><rect class="cls-3" x="143.15" y="145" width="4.09" height="8.63"/><path class="cls-3" d="M175.57,188.2c0,.09-5.41.17-12.08.17s-12.09-.08-12.09-.17,5.41-.16,12.09-.16S175.57,188.11,175.57,188.2Z" transform="translate(-17.79 -48.62)"/><rect class="cls-4" x="118.77" y="58.18" width="4.09" height="8.63"/><path class="cls-3" d="M151.19,118.81c0,.09-5.41.17-12.09.17S127,118.9,127,118.81s5.41-.16,12.08-.16S151.19,118.72,151.19,118.81Z" transform="translate(-17.79 -48.62)"/><rect class="cls-4" x="118.77" y="75.57" width="4.09" height="8.63"/><path class="cls-3" d="M151.19,136.21c0,.09-5.41.16-12.09.16S127,136.3,127,136.21s5.41-.17,12.08-.17S151.19,136.12,151.19,136.21Z" transform="translate(-17.79 -48.62)"/><rect class="cls-4" x="118.77" y="92.96" width="4.09" height="8.63"/><path class="cls-3" d="M151.19,153.6c0,.09-5.41.16-12.09.16S127,153.69,127,153.6s5.41-.17,12.08-.17S151.19,153.51,151.19,153.6Z" transform="translate(-17.79 -48.62)"/><rect class="cls-4" x="118.77" y="110.35" width="4.09" height="8.63"/><path class="cls-3" d="M151.19,171c0,.09-5.41.17-12.09.17S127,171.08,127,171s5.41-.16,12.08-.16S151.19,170.9,151.19,171Z" transform="translate(-17.79 -48.62)"/><rect class="cls-4" x="118.77" y="127.75" width="4.09" height="8.63"/><path class="cls-3" d="M151.19,188.38c0,.09-5.41.17-12.09.17s-12.08-.08-12.08-.17,5.41-.16,12.08-.16S151.19,188.29,151.19,188.38Z" transform="translate(-17.79 -48.62)"/><rect class="cls-4" x="118.77" y="145.14" width="4.09" height="8.63"/><rect class="cls-1" x="286.28" y="66.71" width="48.34" height="153.21"/><rect class="cls-2" x="310.45" y="66.71" width="24.17" height="152.79"/><rect class="cls-1" x="291.8" y="51.67" width="17.07" height="15.04"/><rect class="cls-2" x="304.8" y="51.67" width="4.07" height="15.04"/><polyline class="cls-3" points="282.25 66.71 282.25 65.83 336.04 65.83 336.04 66.71"/><rect class="cls-4" x="295.82" y="73.27" width="4.09" height="8.63"/><path class="cls-3" d="M328.24,133.91c0,.09-5.41.16-12.09.16s-12.09-.07-12.09-.16,5.42-.17,12.09-.17S328.24,133.82,328.24,133.91Z" transform="translate(-17.79 -48.62)"/><rect class="cls-3" x="320.2" y="73.27" width="4.09" height="8.63"/><path class="cls-3" d="M352.62,133.91c0,.09-5.41.16-12.09.16s-12.08-.07-12.08-.16,5.41-.17,12.08-.17S352.62,133.82,352.62,133.91Z" transform="translate(-17.79 -48.62)"/><rect class="cls-3" x="320.2" y="90.4" width="4.09" height="8.63"/><path class="cls-3" d="M352.62,151c0,.09-5.41.16-12.09.16s-12.08-.07-12.08-.16,5.41-.17,12.08-.17S352.62,151,352.62,151Z" transform="translate(-17.79 -48.62)"/><rect class="cls-3" x="320.2" y="108.05" width="4.09" height="8.63"/><path class="cls-3" d="M352.62,168.69c0,.09-5.41.16-12.09.16s-12.08-.07-12.08-.16,5.41-.17,12.08-.17S352.62,168.6,352.62,168.69Z" transform="translate(-17.79 -48.62)"/><rect class="cls-3" x="320.2" y="125.7" width="4.09" height="8.63"/><path class="cls-3" d="M352.62,186.33c0,.1-5.41.17-12.09.17s-12.08-.07-12.08-.17,5.41-.16,12.08-.16S352.62,186.24,352.62,186.33Z" transform="translate(-17.79 -48.62)"/><rect class="cls-3" x="320.2" y="142.84" width="4.09" height="8.63"/><path class="cls-3" d="M352.62,203.48c0,.09-5.41.16-12.09.16s-12.08-.07-12.08-.16,5.41-.17,12.08-.17S352.62,203.39,352.62,203.48Z" transform="translate(-17.79 -48.62)"/><rect class="cls-3" x="320.2" y="160.05" width="4.09" height="8.63"/><rect class="cls-3" x="320.2" y="177.49" width="4.09" height="8.63"/><path class="cls-3" d="M352.62,220.69c0,.09-5.41.16-12.09.16s-12.08-.07-12.08-.16,5.41-.16,12.08-.16S352.62,220.6,352.62,220.69Z" transform="translate(-17.79 -48.62)"/><rect class="cls-4" x="295.82" y="90.66" width="4.09" height="8.63"/><path class="cls-3" d="M328.24,151.3c0,.09-5.41.16-12.09.16s-12.09-.07-12.09-.16,5.42-.16,12.09-.16S328.24,151.21,328.24,151.3Z" transform="translate(-17.79 -48.62)"/><rect class="cls-4" x="295.82" y="108.06" width="4.09" height="8.63"/><path class="cls-3" d="M328.24,168.69c0,.09-5.41.17-12.09.17s-12.09-.08-12.09-.17,5.42-.16,12.09-.16S328.24,168.6,328.24,168.69Z" transform="translate(-17.79 -48.62)"/><rect class="cls-4" x="295.82" y="125.45" width="4.09" height="8.63"/><path class="cls-3" d="M328.24,186.08c0,.1-5.41.17-12.09.17s-12.09-.07-12.09-.17,5.42-.16,12.09-.16S328.24,186,328.24,186.08Z" transform="translate(-17.79 -48.62)"/><rect class="cls-4" x="295.82" y="142.84" width="4.09" height="8.63"/><path class="cls-3" d="M328.24,203.48c0,.09-5.41.16-12.09.16s-12.09-.07-12.09-.16,5.42-.17,12.09-.17S328.24,203.39,328.24,203.48Z" transform="translate(-17.79 -48.62)"/><rect class="cls-4" x="295.82" y="160.23" width="4.09" height="8.63"/><path class="cls-3" d="M328.24,220.87c0,.09-5.41.16-12.09.16s-12.09-.07-12.09-.16,5.42-.16,12.09-.16S328.24,220.78,328.24,220.87Z" transform="translate(-17.79 -48.62)"/><rect class="cls-4" x="295.82" y="177.63" width="4.09" height="8.63"/><rect class="cls-2" x="316.7" y="126.16" width="78.28" height="103.24"/><rect class="cls-3" x="358.28" y="126.16" width="36.7" height="103.24"/><rect class="cls-1" x="333.11" y="140.13" width="7.04" height="17.1"/><rect class="cls-1" x="333.11" y="207.06" width="7.04" height="17.1"/><path class="cls-1" d="M376.06,212.57c0,.19-9.3.34-20.78.34s-20.79-.15-20.79-.34,9.3-.35,20.79-.35S376.06,212.37,376.06,212.57Z" transform="translate(-17.79 -48.62)"/><rect class="cls-1" x="333.11" y="173.85" width="7.04" height="17.1"/><path class="cls-1" d="M376.06,246.28c0,.19-9.3.35-20.78.35s-20.79-.16-20.79-.35,9.3-.35,20.79-.35S376.06,246.09,376.06,246.28Z" transform="translate(-17.79 -48.62)"/><rect class="cls-1" x="366.07" y="140.13" width="7.04" height="17.1"/><rect class="cls-1" x="381.34" y="140.13" width="7.04" height="17.1"/><rect class="cls-1" x="366.07" y="172.58" width="7.04" height="17.1"/><rect class="cls-1" x="381.34" y="172.58" width="7.04" height="17.1"/><rect class="cls-1" x="366.07" y="205.03" width="7.04" height="17.1"/><rect class="cls-1" x="381.34" y="205.03" width="7.04" height="17.1"/><rect class="cls-3" x="310.82" y="122.56" width="90.05" height="3.72"/><path class="cls-2" d="M413.31,175.26c0,.19-17.49.34-39.07.34s-39.08-.15-39.08-.34,17.5-.35,39.08-.35S413.31,175.06,413.31,175.26Z" transform="translate(-17.79 -48.62)"/><polygon class="cls-2" points="139.64 231.46 68.5 231.46 68.19 119.03 139.33 119.03 139.64 231.46"/><rect class="cls-3" x="103.76" y="119.03" width="35.57" height="112.43"/><rect class="cls-2" x="76.31" y="96.9" width="25.12" height="22.13"/><rect class="cls-3" x="95.45" y="96.9" width="5.99" height="22.13"/><rect class="cls-3" x="62.26" y="117.74" width="79.15" height="1.29"/><rect class="cls-5" x="82.23" y="128.69" width="6.02" height="12.7"/><path class="cls-3" d="M121.55,195c0,.13-8,.24-17.79.24S86,195.12,86,195s8-.24,17.78-.24S121.55,194.85,121.55,195Z" transform="translate(-17.79 -48.62)"/><rect class="cls-1" x="118.11" y="128.69" width="6.02" height="12.7"/><path class="cls-2" d="M157.43,195c0,.13-8,.24-17.79.24s-17.78-.11-17.78-.24,8-.24,17.78-.24S157.43,194.85,157.43,195Z" transform="translate(-17.79 -48.62)"/><rect class="cls-1" x="118.11" y="153.89" width="6.02" height="12.7"/><path class="cls-2" d="M157.43,220.2c0,.13-8,.24-17.79.24s-17.78-.11-17.78-.24,8-.25,17.78-.25S157.43,220.06,157.43,220.2Z" transform="translate(-17.79 -48.62)"/><rect class="cls-1" x="118.11" y="179.86" width="6.02" height="12.7"/><path class="cls-2" d="M157.43,246.17c0,.13-8,.24-17.79.24s-17.78-.11-17.78-.24,8-.25,17.78-.25S157.43,246,157.43,246.17Z" transform="translate(-17.79 -48.62)"/><rect class="cls-1" x="118.11" y="205.83" width="6.02" height="12.7"/><path class="cls-2" d="M157.43,272.14c0,.13-8,.24-17.79.24s-17.78-.11-17.78-.24,8-.25,17.78-.25S157.43,272,157.43,272.14Z" transform="translate(-17.79 -48.62)"/><rect class="cls-5" x="82.23" y="154.28" width="6.02" height="12.7"/><path class="cls-3" d="M121.55,220.58c0,.14-8,.24-17.79.24S86,220.72,86,220.58s8-.24,17.78-.24S121.55,220.45,121.55,220.58Z" transform="translate(-17.79 -48.62)"/><rect class="cls-5" x="82.23" y="179.87" width="6.02" height="12.7"/><path class="cls-3" d="M121.55,246.17c0,.14-8,.25-17.79.25S86,246.31,86,246.17s8-.24,17.78-.24S121.55,246,121.55,246.17Z" transform="translate(-17.79 -48.62)"/><rect class="cls-5" x="82.23" y="205.47" width="6.02" height="12.7"/><path class="cls-3" d="M121.55,271.77c0,.13-8,.24-17.79.24S86,271.9,86,271.77s8-.24,17.78-.24S121.55,271.63,121.55,271.77Z" transform="translate(-17.79 -48.62)"/><path class="cls-6" d="M439.16,144.93c.38-2.74-3.48-5-6.38-5.22a16.68,16.68,0,0,1-4.13-.35c-2.83-1-4-4.66-6.73-5.82-2.07-.88-4.45-.1-6.46.91s-4,2.28-6.23,2.42c-2,.13-4.07-.6-5.77.36-1.27.71-1.94,2.17-3.11,3a7.48,7.48,0,0,1-4.06,1.1,11.31,11.31,0,0,0-4.19.68,3.3,3.3,0,0,0-2.1,3.36Z" transform="translate(-17.79 -48.62)"/><path class="cls-6" d="M318.81,67c.59-4.27-5.45-7.79-10-8.16-2.16-.17-4.41.16-6.45-.55-4.44-1.55-6.22-7.29-10.55-9.12-3.24-1.36-7-.15-10.11,1.43s-6.24,3.57-9.75,3.8c-3,.19-6.37-.94-9,.55-2,1.11-3,3.41-4.86,4.76s-4.14,1.6-6.36,1.72-4.53.15-6.56,1.07-3.7,3.08-3.28,5.26Z" transform="translate(-17.79 -48.62)"/><path class="cls-6" d="M113.2,126.2c.47-3.41-4.34-6.22-8-6.51-1.72-.14-3.51.13-5.15-.44-3.54-1.24-5-5.81-8.4-7.27-2.59-1.09-5.56-.12-8.06,1.14s-5,2.85-7.78,3c-2.43.15-5.07-.75-7.2.44-1.59.88-2.42,2.71-3.88,3.79a9.14,9.14,0,0,1-5.07,1.37,14.4,14.4,0,0,0-5.23.86c-1.61.74-2.95,2.45-2.61,4.19Z" transform="translate(-17.79 -48.62)"/></g><g id="Locations"><path class="cls-7" d="M77.83,201.41A21.36,21.36,0,0,0,61,235.23h0l.2.29,0,0,15.13,20.57a3.25,3.25,0,0,0,5.31-.11l13.67-20.33c2.58-3.94,4.36-8.07,4.36-12.93A21.36,21.36,0,0,0,77.83,201.41Zm.51,36.89A16.06,16.06,0,1,1,94.4,222.24,16.06,16.06,0,0,1,78.34,238.3Z" transform="translate(-17.79 -48.62)"/><g class="cls-8"><path d="M77.83,201.41A21.36,21.36,0,0,0,61,235.23h0l.2.29,0,0,15.13,20.57a3.25,3.25,0,0,0,5.31-.11l13.67-20.33c2.58-3.94,4.36-8.07,4.36-12.93A21.36,21.36,0,0,0,77.83,201.41Zm.51,36.89A16.06,16.06,0,1,1,94.4,222.24,16.06,16.06,0,0,1,78.34,238.3Z" transform="translate(-17.79 -48.62)"/></g><path class="cls-9" d="M76.57,201.41a21.43,21.43,0,0,0-20.85,20.83,21.18,21.18,0,0,0,4,13h0l.21.29,0,0,15.12,20.57A3.25,3.25,0,0,0,80.4,256l13.67-20.33c2.59-3.94,4.36-8.07,4.36-12.93A21.36,21.36,0,0,0,76.57,201.41Zm.5,34a12.16,12.16,0,1,1,12.17-12.16A12.16,12.16,0,0,1,77.07,235.4Z" transform="translate(-17.79 -48.62)"/><path class="cls-9" d="M412.86,181.16A16.28,16.28,0,0,0,400,206.94h0l.16.22,0,0,11.53,15.67a2.47,2.47,0,0,0,4-.08l10.42-15.49a17.66,17.66,0,0,0,3.33-9.85A16.29,16.29,0,0,0,412.86,181.16Zm.39,28.12A12.24,12.24,0,1,1,425.49,197,12.24,12.24,0,0,1,413.25,209.28Z" transform="translate(-17.79 -48.62)"/><g class="cls-8"><path d="M412.86,181.16A16.28,16.28,0,0,0,400,206.94h0l.16.22,0,0,11.53,15.67a2.47,2.47,0,0,0,4-.08l10.42-15.49a17.66,17.66,0,0,0,3.33-9.85A16.29,16.29,0,0,0,412.86,181.16Zm.39,28.12A12.24,12.24,0,1,1,425.49,197,12.24,12.24,0,0,1,413.25,209.28Z" transform="translate(-17.79 -48.62)"/></g><path class="cls-9" d="M411.9,181.16a16.28,16.28,0,0,0-12.83,25.78h0l.15.22,0,0,11.52,15.67a2.48,2.48,0,0,0,4.05-.08l10.42-15.49a17.65,17.65,0,0,0,3.32-9.85A16.28,16.28,0,0,0,411.9,181.16Zm.38,25.91a9.27,9.27,0,1,1,9.27-9.27A9.26,9.26,0,0,1,412.28,207.07Z" transform="translate(-17.79 -48.62)"/></g><g id="Map"><polygon class="cls-5" points="71.72 229.57 0.3 406.93 134.22 384.91 232.42 406.93 333 384.91 467.51 410.57 395.5 229.57 315.15 209.33 233.91 224.81 150.88 209.33 71.72 229.57"/><path class="cls-10" d="M89.51,278.19l1.31-.35,3.91-1,15.32-3.95,58.59-15h.05l83,15.43h-.07l81.24-15.5H333L413.34,278l.12,0,0,.11,72,181,.18.44-.47-.09-69.19-13.2-65.32-12.46h.11l-100.59,22,0,0-.06,0-98.2-22H152l-133.92,22-.33.05.13-.31c22.09-54.76,40-99.1,52.34-129.75l14.26-35.27,3.71-9.16c.84-2.06,1.28-3.11,1.28-3.11s-.41,1.07-1.24,3.15l-3.68,9.2L70.42,325.87,18.27,455.62l-.21-.26L152,433.3h.09l98.2,22h-.1l100.58-22,.05,0h0l65.32,12.46,69.19,13.2-.29.35-72-181,.16.14-80.34-20.26H333L251.73,273.6h-.07l-83-15.52h0L110.13,273l-15.35,3.89-3.93,1Z" transform="translate(-17.79 -48.62)"/><polygon class="cls-5" points="75.89 234.33 12.8 398 133.62 378.36 233.91 401.57 333 377.76 456.2 401.57 391.33 234.33 316.34 215.88 233.91 231.35 149.69 215.88 75.89 234.33"/><polygon class="cls-11" points="19.81 379.81 115.84 357.57 112.3 336.88 120.28 331.86 107.86 283.55 69.46 251 19.81 379.81"/><polygon class="cls-2" points="12.8 398 17.48 385.85 178.5 348.44 187.25 372.51 184.41 377.38 154.17 383.12 133.62 378.36 12.8 398"/><polygon class="cls-2" points="187.25 346.12 193.63 369.93 212.18 377.99 238.56 366.27 293.91 350.14 276.64 324.13 187.25 346.12"/><polygon class="cls-3" points="122.93 354.94 152.85 348.44 146.88 329 125.08 334.27 119.28 338.37 122.93 354.94"/><polygon class="cls-11" points="116.82 290.51 127.69 326.16 144.66 322.42 141.6 308.73 178.95 300.36 116.82 290.51"/><polygon class="cls-2" points="72.29 243.67 119.28 281.4 181.66 293.23 248.21 276.68 217.83 228.4 149.69 215.88 75.89 234.33 72.29 243.67"/><polygon class="cls-2" points="226.92 230.07 324.47 379.81 333 377.76 238.59 230.47 233.91 231.35 226.92 230.07"/><polygon class="cls-3" points="147.88 312.5 160.25 348.44 269.98 320.41 249.67 285.84 147.88 312.5"/><polyline class="cls-3" points="208.93 395.79 210 394.2 217.21 383.49 234.5 377.99 246.4 369.03 297.97 354.94 313.99 382.33 233.91 401.57"/><polygon class="cls-3" points="300.29 218.89 326.14 247.64 391.33 234.33 316.34 215.88 300.29 218.89"/><polygon class="cls-3" points="405.05 269.7 357.17 283.01 333 251 392.97 238.54 405.05 269.7"/><polygon class="cls-2" points="243.71 229.51 293.91 301.63 351.85 285 293.91 220.09 243.71 229.51"/><polygon class="cls-3" points="384.06 387.63 442 364.94 456.2 401.57 384.06 387.63"/><polygon class="cls-11" points="323.48 297.31 354.95 289.11 388.2 329 355.84 339.75 323.48 297.31"/><polygon class="cls-3" points="362.05 285.84 397.07 325.99 423.45 317.14 406.11 272.42 362.05 285.84"/><polygon class="cls-11" points="388.2 378.25 362.05 341.97 425.27 321.81 438.12 354.94 429.88 363.23 388.2 378.25"/><g class="cls-12"><polygon points="315.15 209.33 333 384.91 467.51 410.57 395.5 229.57 315.15 209.33"/></g><polygon class="cls-3" points="296.99 306.93 345.05 379.81 374.64 385.81 380.22 383.25 319.33 300.2 296.99 306.93"/><polygon class="cls-3" points="100.03 361.24 88.05 304.94 45.83 312.32 19.81 379.81 100.03 361.24"/><polygon class="cls-11" points="138.85 218.59 138.85 244.36 147.88 245.51 173.12 274.91 194.82 272.42 205.15 287.39 181.66 293.23 119.28 281.4 72.29 243.67 75.89 234.33 138.85 218.59"/><polygon class="cls-3" points="270.8 224.65 306.25 276.38 336.79 268.13 293.91 220.09 270.8 224.65"/><polygon class="cls-2" points="374.87 278.09 362.05 258.04 396.73 248.23 405.05 269.7 374.87 278.09"/><polygon class="cls-2" points="323.48 347.1 340.26 341.3 372.82 385.44 345.05 379.81 323.48 347.1"/><polygon class="cls-11" points="168.62 386.46 184.23 384.56 189.44 376.94 208.93 383.07 203.83 394.61 168.62 386.46"/><g class="cls-12"><polygon points="232.42 406.93 233.91 224.81 150.88 209.33 134.22 384.91 232.42 406.93"/></g><path class="cls-10" d="M93.68,283l4.86-1.25,14.28-3.6,54.63-13.73h.05l84.23,15.43h-.07l82.43-15.51h.09l75,18.43.11,0,0,.12C429.2,334,451.13,390.56,474.23,450.1l.17.44-.46-.09-61.81-11.94-61.39-11.87h.11l-99.09,23.8h-.12L151.36,427.21h.09L30.62,446.81l-.32.05.11-.31C49.94,396,65.75,355.08,76.67,326.8c5.47-14.12,9.71-25.09,12.59-32.53l3.29-8.45c.74-1.91,1.13-2.87,1.13-2.87s-.37,1-1.1,2.91l-3.24,8.48-12.51,32.6L30.77,446.69l-.21-.25,120.81-19.68h.09L251.75,450h-.11l99.09-23.81.06,0h0L412.23,438,474,449.94l-.29.35c-23.09-59.55-45-116.07-64.85-167.25l.16.14-75-18.47h.09l-82.44,15.44h-.07l-84.2-15.52h0L112.9,278.21l-14.31,3.55Z" transform="translate(-17.79 -48.62)"/></g><g id="Character"><path class="cls-7" d="M252.34,101.09c-58,1.35-105.31,48.63-106.69,106.63a108.79,108.79,0,0,0,20.55,66.47h0l1.07,1.45.15.21,77.4,105.28a16.62,16.62,0,0,0,27.18-.57l70-104c13.24-20.2,22.32-41.3,22.32-66.18A109.32,109.32,0,0,0,252.34,101.09Zm2.6,188.79a82.19,82.19,0,1,1,82.18-82.19A82.19,82.19,0,0,1,254.94,289.88Z" transform="translate(-17.79 -48.62)"/><g class="cls-8"><path d="M252.34,101.09c-58,1.35-105.31,48.63-106.69,106.63a108.79,108.79,0,0,0,20.55,66.47h0l1.07,1.45.15.21,77.4,105.28a16.62,16.62,0,0,0,27.18-.57l70-104c13.24-20.2,22.32-41.3,22.32-66.18A109.32,109.32,0,0,0,252.34,101.09Zm2.6,188.79a82.19,82.19,0,1,1,82.18-82.19A82.19,82.19,0,0,1,254.94,289.88Z" transform="translate(-17.79 -48.62)"/></g><path class="cls-9" d="M245.86,101.09c-58,1.35-105.31,48.63-106.69,106.63a108.79,108.79,0,0,0,20.55,66.47h0l1.07,1.45.15.21,77.4,105.28a16.62,16.62,0,0,0,27.18-.57l70-104c13.24-20.2,22.32-41.3,22.32-66.18A109.32,109.32,0,0,0,245.86,101.09Zm2.6,188.79a82.19,82.19,0,1,1,82.18-82.19A82.19,82.19,0,0,1,248.46,289.88Z" transform="translate(-17.79 -48.62)"/><g class="cls-8"><path d="M295.74,269.68c-1.32,1.49-88.23,24.44-89.54,25.93,16.66,5.08,37,9.5,54.42,8.49,9.81-.56,20-2.31,27.8-8.35S300.46,278.3,295.74,269.68Z" transform="translate(-17.79 -48.62)"/></g><path class="cls-13" d="M264.22,117.9l.72,57.68c.12,9.81-1.7,24.24-17.22,23.73h0c-13.43-1.46-17-14.18-17.1-23.33-.05-4.34-.1-8-.13-8.41,0,0-14.7-1.2-15.94-15.72-.6-7-.66-21.57-.56-34.74a27.14,27.14,0,0,1,25.17-26.85l1.41-.1C255.75,89.94,264.42,102.71,264.22,117.9Z" transform="translate(-17.79 -48.62)"/><path class="cls-14" d="M230.49,167.57a35.15,35.15,0,0,0,18.51-7s-3.84,11-18.44,10.71Z" transform="translate(-17.79 -48.62)"/><path class="cls-10" d="M238.81,123.06c.29.3,2-1,4.4-1.12s4.25,1.13,4.51.82c.12-.14-.18-.68-1-1.23a6.06,6.06,0,0,0-3.62-1,5.85,5.85,0,0,0-3.49,1.27C238.91,122.38,238.67,122.93,238.81,123.06Z" transform="translate(-17.79 -48.62)"/><path class="cls-10" d="M239.83,128.8a2,2,0,0,0,2,1.85,1.89,1.89,0,0,0,1.89-1.92,2,2,0,0,0-2-1.85A1.88,1.88,0,0,0,239.83,128.8Z" transform="translate(-17.79 -48.62)"/><path class="cls-10" d="M232.72,140a14.56,14.56,0,0,0-3.68-.39c-.57,0-1.12-.09-1.24-.48a2.89,2.89,0,0,1,.25-1.71c.44-1.42.89-2.91,1.37-4.47,1.89-6.35,3.22-11.56,3-11.64s-2,5-3.89,11.38l-1.29,4.48a3.33,3.33,0,0,0-.14,2.26,1.44,1.44,0,0,0,1,.77,4.34,4.34,0,0,0,1,.06A14.41,14.41,0,0,0,232.72,140Z" transform="translate(-17.79 -48.62)"/><path class="cls-10" d="M239.85,113.92c.23.54,2.18.13,4.51.25s4.25.64,4.52.12c.12-.25-.24-.75-1-1.23a7.42,7.42,0,0,0-3.42-1,7.19,7.19,0,0,0-3.47.68C240.14,113.2,239.74,113.66,239.85,113.92Z" transform="translate(-17.79 -48.62)"/><path class="cls-10" d="M216.74,118.43c.26.44,2.16-.05,4.46-.12s4.21.22,4.45-.24c.11-.22-.27-.61-1.08-1a7.91,7.91,0,0,0-3.4-.56,8.2,8.2,0,0,0-3.38.83C217,117.79,216.63,118.22,216.74,118.43Z" transform="translate(-17.79 -48.62)"/><path class="cls-13" d="M263.82,128.75c.24-.13,9.77-3.69,10.18,6.27s-9.67,8.32-9.7,8S263.82,128.75,263.82,128.75Z" transform="translate(-17.79 -48.62)"/><path class="cls-14" d="M267.18,139.15c.05,0,.18.12.48.24a1.72,1.72,0,0,0,1.3,0c1-.42,1.85-2.13,1.83-3.93a5.68,5.68,0,0,0-.59-2.46,2,2,0,0,0-1.36-1.28.88.88,0,0,0-1,.52c-.13.28,0,.48-.11.5s-.22-.16-.15-.58a1.11,1.11,0,0,1,.36-.64,1.35,1.35,0,0,1,.95-.29,2.45,2.45,0,0,1,1.88,1.47,5.93,5.93,0,0,1,.71,2.75c0,2-.93,3.93-2.35,4.41a1.87,1.87,0,0,1-1.6-.2C267.21,139.39,267.15,139.17,267.18,139.15Z" transform="translate(-17.79 -48.62)"/><path class="cls-10" d="M235.07,146.88c-.11-.25,1.84-.83,3.21-2.66a11.27,11.27,0,0,0,1.38-2.6c.29-.73.51-1.18.62-1.15s.08.52-.08,1.31a7.34,7.34,0,0,1-1.29,2.91,5.93,5.93,0,0,1-2.54,1.95C235.61,147,235.09,147,235.07,146.88Z" transform="translate(-17.79 -48.62)"/><path class="cls-10" d="M194.7,104.08a2.36,2.36,0,0,1,1.11-1.37,7.25,7.25,0,0,1,3.71-.61,20.86,20.86,0,0,0,10.92-3.32,49.82,49.82,0,0,1,5.08-6.15c4.4-4.54,8-7.63,11.77-9.14,4.85-1.95,13-2.74,18-1.41s9.59,5.42,10.3,10.6c2.83-2.4,7.08-2.38,10.53-1l.09,0c3.84,1.37,6,5.43,7.16,9.35s1.62,8.11,3.69,11.62c.44.74.95,1.62.57,2.38a1.61,1.61,0,0,1-1.69.74,4.83,4.83,0,0,1-1.79-.81c.43,1,.86,2,1.28,3.08a9.11,9.11,0,0,1-4.18-.28,88.84,88.84,0,0,1-2.73,10.34c-1.61,0-3.08.11-4.07,1-1.34,1.21-1.95,3.48-4.18,2.62-1.14-.44-2.18-2.83-2.56-4a56.53,56.53,0,0,1-2.45-24,18.54,18.54,0,0,0-5.63-4.06l.17.16c-4.06-1.41-8.65-2.8-12.5-.89-3,1.48-4.74,4.57-7,7a22.81,22.81,0,0,1-16.25,7.5c-.21,4.09.13,9.87-.09,14l-3.44-6.55v0c-.28-.48-.51-1-.74-1.44l-.08-.15v0a21.85,21.85,0,0,0-1.15-2.33l0,0a2.56,2.56,0,0,1-3.74-3.42,5.83,5.83,0,0,1,1.24-1.24,4,4,0,0,1-3.85,1,3.16,3.16,0,0,1-2.24-3.14,2.67,2.67,0,0,1,1.6-2.16,9.08,9.08,0,0,1-5.18-1.14C195.36,106.33,194.36,105.37,194.7,104.08Z" transform="translate(-17.79 -48.62)"/><path class="cls-15" d="M251,94.34a12.36,12.36,0,0,1,1.46,1.34,10.31,10.31,0,0,1,2.23,4.82,18.22,18.22,0,0,1,.37,3.69c0,1.34-.1,2.77-.2,4.28a37.17,37.17,0,0,0-.11,4.76,17.07,17.07,0,0,0,.33,2.52,5.25,5.25,0,0,0,1,2.43,2.19,2.19,0,0,0,2.05.69,3.27,3.27,0,0,0,1.85-1,7.64,7.64,0,0,0,1.4-3.69l-.31,0a12.24,12.24,0,0,0,1.77,3,4.35,4.35,0,0,0,2.82,1.54,2.82,2.82,0,0,0,1.5-.27,2.4,2.4,0,0,0,1-1,2.49,2.49,0,0,0,.31-1.29,1.86,1.86,0,0,0-.47-1.13l-.15.14a9.28,9.28,0,0,0,3.12,2.34,8.32,8.32,0,0,0,1,.38,1.2,1.2,0,0,0,.35.08,2.66,2.66,0,0,0-.33-.14,8.39,8.39,0,0,1-.93-.42,9.64,9.64,0,0,1-3-2.37l-.15.13a1.86,1.86,0,0,1,.1,2.16,2.25,2.25,0,0,1-.92.89,2.49,2.49,0,0,1-1.36.22A4,4,0,0,1,263.1,117a12.15,12.15,0,0,1-1.71-3l-.2-.46-.1.5a7.3,7.3,0,0,1-1.33,3.53,3,3,0,0,1-1.65.93,1.89,1.89,0,0,1-1.75-.58,5,5,0,0,1-.94-2.29,16,16,0,0,1-.33-2.46,38.66,38.66,0,0,1,.09-4.72c.09-1.51.19-2.95.17-4.3a18.53,18.53,0,0,0-.41-3.74,10.27,10.27,0,0,0-2.37-4.86A5.84,5.84,0,0,0,251,94.34Z" transform="translate(-17.79 -48.62)"/><path class="cls-15" d="M206.08,108.48l.12.1.36.26a5.4,5.4,0,0,0,.61.4c.26.14.54.31.89.46a12.89,12.89,0,0,0,6.22,1.12,16.44,16.44,0,0,0,8.76-3.24,28.42,28.42,0,0,0,7.53-8.68c1.06-1.76,1.92-3.56,2.87-5.23a19.15,19.15,0,0,1,3.25-4.42,10,10,0,0,1,4.18-2.54,7,7,0,0,1,2.21-.25,7.78,7.78,0,0,1,2,.39,8.38,8.38,0,0,1,4.67,4,10.75,10.75,0,0,1,.75,2.17.86.86,0,0,0,0-.15c0-.12,0-.27-.06-.44a7.36,7.36,0,0,0-.56-1.64,8.19,8.19,0,0,0-1.62-2.21,8.57,8.57,0,0,0-3.08-1.91,7.83,7.83,0,0,0-2.09-.42,7.24,7.24,0,0,0-2.29.24A10.12,10.12,0,0,0,236.47,89a19.18,19.18,0,0,0-3.32,4.48c-1,1.68-1.82,3.48-2.87,5.22a28.71,28.71,0,0,1-7.42,8.6,16.34,16.34,0,0,1-8.6,3.25,13,13,0,0,1-6.15-1A22,22,0,0,1,206.08,108.48Z" transform="translate(-17.79 -48.62)"/><path class="cls-15" d="M204.76,102.09a2.29,2.29,0,0,0,.52.37,11.25,11.25,0,0,0,1.54.78,14.55,14.55,0,0,0,2.44.8,17.41,17.41,0,0,0,3.13.42,16.47,16.47,0,0,0,3.14-.22,15.45,15.45,0,0,0,2.49-.64,13.11,13.11,0,0,0,1.59-.68,2.61,2.61,0,0,0,.54-.33c0-.06-.83.35-2.21.78a16.78,16.78,0,0,1-2.46.56,17.75,17.75,0,0,1-3.08.19,18.8,18.8,0,0,1-3.07-.38,17.77,17.77,0,0,1-2.42-.72C205.56,102.5,204.79,102,204.76,102.09Z" transform="translate(-17.79 -48.62)"/><path class="cls-10" d="M216.63,124c.29.29,2-1,4.4-1.12s4.25,1.13,4.51.81c.12-.13-.18-.67-1-1.23a6.06,6.06,0,0,0-3.62-1,5.85,5.85,0,0,0-3.49,1.27C216.73,123.3,216.49,123.85,216.63,124Z" transform="translate(-17.79 -48.62)"/><path class="cls-10" d="M218.19,128.8a2,2,0,0,0,2,1.85,1.89,1.89,0,0,0,1.9-1.92,2,2,0,0,0-2-1.85A1.88,1.88,0,0,0,218.19,128.8Z" transform="translate(-17.79 -48.62)"/><path class="cls-16" d="M189.65,212.61s1.68-13.45,8.16-20.17,33.6-15.14,33.6-15.14,1.12,9.59,7.62,11.9c6.89,2.46,14.67,1.54,19.71-4.32A31.49,31.49,0,0,0,265,172s32.39,3,37.67,11.86,12.11,43.29,12.11,43.29l-30.28,6.43,4.12,59.26H208.2l1.57-55.62-21.9,3.13Z" transform="translate(-17.79 -48.62)"/><path class="cls-10" d="M278.53,235.48a5.05,5.05,0,0,1-.11-1.33c0-.86,0-2.11,0-3.64,0-3.08.05-7.32.15-12s.22-8.93.35-12c.06-1.54.12-2.78.18-3.64a4.69,4.69,0,0,1,.17-1.33,5.42,5.42,0,0,1,.1,1.33c0,.86,0,2.11,0,3.64,0,3.08-.05,7.32-.15,12s-.22,8.93-.35,12c-.06,1.53-.13,2.77-.18,3.63A4.69,4.69,0,0,1,278.53,235.48Z" transform="translate(-17.79 -48.62)"/><path class="cls-10" d="M202.31,211.08c.19-.05,2.08,6,4.22,13.43s3.74,13.56,3.55,13.61-2.07-6-4.22-13.42S202.13,211.14,202.31,211.08Z" transform="translate(-17.79 -48.62)"/><path class="cls-10" d="M299.33,181.68c0,.12-1.44.39-3.65,1.23a26.29,26.29,0,0,0-13.62,11.85c-1.14,2.07-1.61,3.48-1.73,3.44a3.31,3.31,0,0,1,.23-1,17.51,17.51,0,0,1,1.06-2.65,24,24,0,0,1,13.9-12.08,17.14,17.14,0,0,1,2.77-.69A2.85,2.85,0,0,1,299.33,181.68Z" transform="translate(-17.79 -48.62)"/><path class="cls-10" d="M197.33,195.15c.18,0,.82,1.83,1.42,4.18s.93,4.3.74,4.35-.82-1.83-1.42-4.18S197.14,195.2,197.33,195.15Z" transform="translate(-17.79 -48.62)"/><path class="cls-13" d="M309.44,228.24s-9.07,46.06-10.11,50-2.71,14.55-13.7,16.75c-14.83,3-73.06.89-73.06.89l11-13.9,50.95-14.29,7-33.51Z" transform="translate(-17.79 -48.62)"/><path class="cls-14" d="M222.6,274.2a3.4,3.4,0,0,1,.43,1.06,15.25,15.25,0,0,1,.58,3.08,17.66,17.66,0,0,1-2.08,10A20.35,20.35,0,0,1,218.2,293a11.19,11.19,0,0,1-3.89,2.59,11.31,11.31,0,0,1-3.06.69,3.58,3.58,0,0,1-1.15,0,23.6,23.6,0,0,0,4-1.11,11.34,11.34,0,0,0,3.62-2.58,21.75,21.75,0,0,0,3.18-4.51,18.42,18.42,0,0,0,2.2-9.66C223,275.78,222.47,274.24,222.6,274.2Z" transform="translate(-17.79 -48.62)"/><path class="cls-13" d="M173.84,219.69s8.21,27.63,11.61,39.57c3.62,12.68,11.53,41.48,28.39,36.37,12.83-3.9,9.06-20.52,9.06-20.52l-13.13-37.94-10.21,1.71-9.91-25.59Z" transform="translate(-17.79 -48.62)"/><path class="cls-14" d="M218.41,276.31a14.37,14.37,0,0,0,0-6.25,19.45,19.45,0,0,0-2.74-6.21,54.18,54.18,0,0,0-5.32-6.53,55.1,55.1,0,0,1-5.34-6.64,42,42,0,0,1-3.35-6.1,36.55,36.55,0,0,1-1.64-4.39,6.49,6.49,0,0,1-.4-1.68,10.93,10.93,0,0,1,.65,1.59c.4,1,1,2.5,1.84,4.27a44.64,44.64,0,0,0,3.44,5.95,58.32,58.32,0,0,0,5.32,6.53,50.35,50.35,0,0,1,5.34,6.65A19,19,0,0,1,218.9,270a12,12,0,0,1,0,4.72,7.22,7.22,0,0,1-.35,1.23A1.32,1.32,0,0,1,218.41,276.31Z" transform="translate(-17.79 -48.62)"/><path class="cls-13" d="M189.65,213.29s.06-11-.91-14.14l-7.8-17.42s-2-1.23-3,2.24,2.08,7.05,2.08,7.05l.24,4.56L177.14,193l-6.07-11.38s-4.19-8.29-5.27-7-.73,4,1.07,7.55l4.1,8.12s.62,1.44-1.53-.65-6.82-12.21-7.79-13.48-2.29-5-4.38-4.13.59,5.29.59,5.29l6.69,15s-3.88-5.68-4.58-6.64-2.32-4.21-3.59-5.87-2.66-2.3-3.58-1.9a1.87,1.87,0,0,0-1.16,2.29l7.15,12.4s3.57,5.57,3.57,6-3.12-1.84-3.12-1.84l-3-3.82s-3.24-5.72-4.94-5.41-1.4,1.58-1.4,1.58l6,10.42,8.74,11.24,9.34,9.28,5.4-1.74Z" transform="translate(-17.79 -48.62)"/><path class="cls-14" d="M172.46,211.43A21.57,21.57,0,0,0,173,208c.35-2.06,1.06-5.15,3.59-7.14a6,6,0,0,1,3.63-1.39h.45l0-.48c-.14-2.14-.06-4.18-.14-5.53a5,5,0,0,0-.3-2.19,11.53,11.53,0,0,0-.21,2.18,55.44,55.44,0,0,0-.17,5.67l.41-.48a6.49,6.49,0,0,0-4.19,1.52,9.13,9.13,0,0,0-2.83,3.94,14.73,14.73,0,0,0-.84,3.82A10.7,10.7,0,0,0,172.46,211.43Z" transform="translate(-17.79 -48.62)"/></g></svg>