<svg id="Layer_1" data-name="Layer 1" xmlns="http://www.w3.org/2000/svg" viewBox="0 0 1043.69 550.83"><defs><style>.cls-1{fill:#066493;}.cls-2{fill:#ececec;}.cls-3{fill:#e27f2b;}.cls-4{fill:#f1a34f;}.cls-5{fill:#d86713;opacity:0.4;}.cls-6{fill:#233862;}.cls-7{fill:#2b478b;}.cls-8{fill:#059bdc;}.cls-9{fill:#d9935c;}.cls-10{fill:#0a90bf;}.cls-11{fill:#fab707;}.cls-12{fill:#00588c;}</style></defs><path class="cls-1" d="M3028,903.85s114.36-122.79,19.34-255.73c-84.31-118-182.61-109.89-254.73-62-30.71,20.39-119.27,2.51-194.65-117.51-102.79-163.67-459.1-64.4-394.13,187.41,31.44,121.86-95.68,126.29-30.91,248.11Z" transform="translate(-2106.4 -356.49)"/><path class="cls-2" d="M2721.94,398.18h-22.08l-.13-41.69-47.21.14v0l-14.16.06h-.1l0,13.31.1.07.07,28.09H2448.3V904.8h273.64V905h37.19V398.18ZM2454.5,770.38v.92h0Zm261.24,63.7-72.2.22v0l-21.86.08h-.15l0,20.54.15.12.11,43.23H2454.5V785.13h261.24Zm-202.92-62.83.26,0h-.26Zm202.92,0h-25.52l-.2-105.4-72.85.23v0l-21.85.08h-.15l0,20.54.13.1.13,84.37h21.89v0h-68.14l-.18-64.94-72.85.22v0l-21.7.08V658.13h261.24Zm0-127h-74.43l-.2-64.94-72.85.22v0l-21.85.08h-.15l0,20.54.15.11.11,43.95H2454.5V531.13h261.24Zm0-127H2454.5V404.13h261.24Z" transform="translate(-2106.4 -356.49)"/><rect class="cls-3" x="2415.63" y="797.66" width="100.55" height="113.37" transform="translate(-502.45 2961.12) rotate(-89.82)"/><polygon class="cls-4" points="450.36 447.94 359.59 447.59 359.34 548.14 450.11 548.49 450.36 447.94"/><polygon class="cls-5" points="359.35 447.57 450.34 447.92 450.26 479.89 359.1 548.12 359.35 447.57"/><rect class="cls-3" x="2344.17" y="835.95" width="64.61" height="72.85" transform="translate(-609.63 2889.66) rotate(-89.82)"/><polygon class="cls-4" points="328.46 483.81 270.13 483.59 269.98 548.2 328.3 548.42 328.46 483.81"/><polygon class="cls-5" points="270.13 483.59 328.61 483.81 328.56 504.35 269.98 548.2 270.13 483.59"/><path class="cls-6" d="M2646.36,870.42a37,37,0,0,0-2.07-9.51c-.21-.57-.43-1.12-.66-1.67s-.34-.79-.52-1.18-.42-.87-.65-1.3-.49-.93-.76-1.38a29.94,29.94,0,0,0-4.53-6l0,0a25.36,25.36,0,0,0-1.88-1.72c-.51-.43-1-.82-1.56-1.2a25,25,0,0,0-2.35-1.48l-.91-.47a21.55,21.55,0,0,0-8.24-2.23c-.44,0-.88,0-1.32,0H2609c-14.13,0-25.6,14-25.6,31.35S2594.85,905,2609,905h11.91c.44,0,.88,0,1.32,0a21.55,21.55,0,0,0,8.24-2.23c.3-.15.61-.31.91-.48a23.13,23.13,0,0,0,2.35-1.48c.53-.37,1.05-.77,1.56-1.19a25.5,25.5,0,0,0,1.88-1.73h0a29.94,29.94,0,0,0,4.53-6c.27-.45.52-.91.76-1.38s.44-.86.65-1.31.36-.78.52-1.18.45-1.1.66-1.66a37,37,0,0,0,2.07-9.51c.08-1.06.13-2.12.13-3.21S2646.44,871.47,2646.36,870.42Z" transform="translate(-2106.4 -356.49)"/><path class="cls-7" d="M2696.09,845.05h-79.23a3,3,0,0,1,0-5.95h79.23a3,3,0,0,1,0,5.95Z" transform="translate(-2106.4 -356.49)"/><path class="cls-7" d="M2696.88,753.37h-80.81a3,3,0,0,1,0-6h80.81a3,3,0,0,1,0,6Z" transform="translate(-2106.4 -356.49)"/><path class="cls-8" d="M2746.93,616.79c4.8,1.11,26.46,1.37,41.68-2a46.44,46.44,0,0,0,8.46-2.64c2.87-1.26,5-2.79,6.13-4.63,1.72-2.86,4.87-12.67,8.56-25.53,10.19-35.42,24.53-94,24.53-94s-28.79,5.88-34.88,10.9-11.47,84.57-17.2,86.72c-.85.32-2.3,1-4.17,1.9l-.27.14c-1.11.55-2.37,1.18-3.72,1.88-11.89,6.11-31.56,17.11-33.59,19.55C2739.77,612.31,2740,615.18,2746.93,616.79Z" transform="translate(-2106.4 -356.49)"/><path class="cls-8" d="M2802.17,533.29a22.42,22.42,0,0,1,.38-4.07c3.7-20.37,33.16-41.23,33.74-41.23v.43c0,3.11,4.91,8.86,12.47,9.35,9,.59,20-4.53,20-9.69.06,0,5,.67,6.73.86,7.19.82,21.53,4.7,27.67,9.34,5.84,4.42-2.41,32.25-7.52,52-2.17,8.34-3.77,15.22-3.5,18.27.13,1.49,1.46,21.72,2.66,40,1,15.09,1.88,28.87,1.91,29.73.06,1.72-8.47,7.72-22.78,12.26a111.72,111.72,0,0,1-11.35,3,120.94,120.94,0,0,1-24.71,2.45c-3,0-5.75-.16-8.4-.43C2809.05,653.48,2802.05,630.17,2802.17,533.29Z" transform="translate(-2106.4 -356.49)"/><path class="cls-9" d="M2868.78,487.84a172.27,172.27,0,0,0-1-25.34l-31.58,5.16s0,9.64.11,20.33c0,0-.86,9.92,11.35,11.37S2869.11,495.49,2868.78,487.84Z" transform="translate(-2106.4 -356.49)"/><path class="cls-6" d="M2842.37,905.94c4-2.45,1.64-20.55,1.64-20.55s-18.6-14.77-21.11-3.4-17.55,16.52-26.12,17.94c-5.91,1-8.1,4-8.66,6Z" transform="translate(-2106.4 -356.49)"/><path class="cls-10" d="M2871.29,594.57c0,30.28,14.68,22.12,23.54,13.95-1.2-18.3-2-83.12-2-83.12S2871.29,551.21,2871.29,594.57Z" transform="translate(-2106.4 -356.49)"/><path class="cls-10" d="M2776.05,589.53c.58,4.25,7.29,16.61,12.56,25.21a46.44,46.44,0,0,0,8.46-2.64c2.87-1.26,5-2.79,6.13-4.63,1.72-2.86,4.87-12.67,8.56-25.53-2.73-15.82-5.33-31.45-5.33-31.45l-.81-10.48c0,.81-12.27,46.86-17.83,47.93-3.35.65-5.73-.14-7.75-.43l-.27.14C2778.66,588.2,2777.4,588.83,2776.05,589.53Z" transform="translate(-2106.4 -356.49)"/><path class="cls-6" d="M2899.35,905.94c4-2.45,1.64-20.55,1.64-20.55s-18.6-14.77-21.11-3.4-17.55,16.52-26.12,17.94c-5.91,1-8.06,4-8.62,6Z" transform="translate(-2106.4 -356.49)"/><path class="cls-6" d="M2871.79,453.4s21.08-33.24-19.39-35.44c0,0-15.19,1.79-18.62-1.65,0,0-11.78,17.9-.78,37.09S2871.79,453.4,2871.79,453.4Z" transform="translate(-2106.4 -356.49)"/><path class="cls-9" d="M2837.12,470.74c3.07,2.41,12.06,4.81,14.66,5.09,0,0,13.34-3,15.77-4.44,3.75-2.27,3.51-6.88,3.71-13.29.23-7.58,1-13.54.14-17.91-1-5.23-4.32-8.2-13.6-9-17-1.48-24.14,2.79-24.44,8.5-.07,1.54-.14,3-.19,4.38C2832.48,461.88,2833.89,468.2,2837.12,470.74Z" transform="translate(-2106.4 -356.49)"/><path class="cls-6" d="M2833,449.9c.17,10.32,2.95,16.43,5,17.21a42.64,42.64,0,0,0,7.9,2.11c1,.11,1.88.08,1.87-.47,0-1.62-2.21-3.63-.59-5.07s10.8-2,11.53,1.28c.36,1.6-2.58,4.45-.57,4.51.61-.1,1.21-.22,1.78-.37a26.27,26.27,0,0,0,7-3.09c3.76-2.28,3.51-5.77,4.35-12.12.53-4.12.53-1.89,0,4.21-.57,6.39.53,10.48-3.71,13.29-2.36,1.57-16,7.68-16,7.68.19-3.24-11.4-5.92-14.47-8.33C2834.27,468.5,2832.84,463.32,2833,449.9Z" transform="translate(-2106.4 -356.49)"/><path class="cls-7" d="M2896.73,638.25c.07,1.72-8.46,7.72-22.77,12.26-1.16.37-2.35.72-3.58,1.06,0,0,0,0,0,0-1.33,15.66-4.95,37.8-8.21,59.16h0c-.84,5.54-1.66,11-2.41,16.33-2,14-3.48,26.83-3.64,36v.1c-.07,4.23,3.49,14.77,3.76,17.2.17,1.49.3,3.07.4,4.72a191.21,191.21,0,0,1-.3,22.71c-2.34,36.32-11.94,82.78-15.36,84.76-6.81,3.94-19.19,0-25.49-.92a5.2,5.2,0,0,1-4.55-5.24c3.07-60.27-5.76-144.21-12.36-195.81-.17-1.35-.35-2.66-.51-4-.79-6.08-1.32-11.76-1.64-16.89-.3-4.49-.45-8.57-.51-12.11,0-1.1,0-2.15,0-3.15,0-3.23,2.56-24.38,2.68-121.26h0a4.08,4.08,0,0,1,4.07-4.07h59.25a10.27,10.27,0,0,1,10.26,10.41,164.8,164.8,0,0,0,1.78,27.56c2.18,13.45,6.87,26,16.53,29a0,0,0,0,1,0,0c.05.1.31.69.74,1.67h0q.13,3.65.31,7.43c0,.51,0,1,.07,1.53,0,.3,0,.6,0,.9,0,.51.05,1,.07,1.54,0,.85.08,1.71.13,2.57l.12,2c.07,1.31.15,2.64.23,4,0,.43.05.85.08,1.29.12,1.73.23,3.49.37,5.25l.12,1.64.06.79c.06.69.11,1.39.17,2.08s.12,1.48.19,2.23C2897,633.92,2896.66,636.34,2896.73,638.25Z" transform="translate(-2106.4 -356.49)"/><path class="cls-6" d="M2860,807.87c-2.34,36.32-11.94,82.78-15.36,84.76-6.81,3.94-19.19,0-25.49-.92a5.2,5.2,0,0,1-4.55-5.24c3.07-60.27-5.76-144.21-12.36-195.81-.17-1.35-.35-2.66-.51-4-.79-6.08-1.32-11.76-1.64-16.89,3.14-20.46,20.85-21.55,36.92,20.77C2835,704.62,2860.48,799.55,2860,807.87Z" transform="translate(-2106.4 -356.49)"/><path class="cls-7" d="M2897.4,761.43c.48,4.2,5.4,14.19,6,16.56,8.12,32.67,3.63,110.13-.39,113.23-6.23,4.79-19,2.51-25.39,2.43a5.21,5.21,0,0,1-5.21-4.59c-5-61.72-25.69-146.48-39-196.35-6.7-25.12-7.65-43.58-7.65-43.58s62.21-38.12,68.93-17.3C2900.64,650.26,2893.65,729.2,2897.4,761.43Z" transform="translate(-2106.4 -356.49)"/><path class="cls-11" d="M2834,408.67c.43-.49.89-.95,1.37-1.41a24.09,24.09,0,0,1,7.41-4.81c10.84-4.53,19.84-.35,25.46,3.93.55.41,1.07.84,1.56,1.25a33,33,0,0,1,4.76,4.92s5.27,7.18,5.09,22.33l-54.26.58S2824.64,419.1,2834,408.67Z" transform="translate(-2106.4 -356.49)"/><path class="cls-3" d="M2864.47,435l-3,0c-.07-.86.08-20.55,7.43-28.2.55.42.43.35.92.76C2862.86,414.36,2864.45,434.83,2864.47,435Z" transform="translate(-2106.4 -356.49)"/><path class="cls-3" d="M2840.89,435.3c-.62-12.06-5.24-24.73-6.48-27a11,11,0,0,1,1-1.06c.86,1.49,7.94,14.61,8.69,28l35.59-.38s-18,4.05-28.92,4.18-25.34-3.6-25.34-3.6Z" transform="translate(-2106.4 -356.49)"/><path class="cls-7" d="M2877.65,489.23s-18.33,21.36-19.41,40l9.34.5a89.73,89.73,0,0,1,16.15-39.21s-2.16-.53-2.88-.67Z" transform="translate(-2106.4 -356.49)"/><path class="cls-7" d="M2831.94,488.94a93.39,93.39,0,0,0-14.54,40.68l-9.43-.16c.78-14.65,10-30.76,15.06-38.39C2823,491.07,2829.55,489.42,2831.94,488.94Z" transform="translate(-2106.4 -356.49)"/><path class="cls-8" d="M2892.32,603.88c-.46,21.86,2.27,65.41,2.27,65.41h12.9c6.09-30.64,8.24-50.35,8.24-61.1,0-2.12,0-4.09,0-5.92-.08-9.18-.33-14.51-.33-14.51,2.42-55.63-8.69-85.38-12.18-89.48s-19.46-7.78-19.46-7.78-5.27,15.37-7.42,27.74,16.91,64.31,16.13,82.07C2892.39,601.41,2892.35,602.61,2892.32,603.88Z" transform="translate(-2106.4 -356.49)"/><path class="cls-9" d="M2894.59,669.29s-2.73-43.55-2.27-65.41a45.77,45.77,0,0,1,23.38-1.61c0,1.83,0,3.8,0,5.92,0,10.75-2.15,30.46-8.24,61.1,2.68,11.29,2.51,23.48-2.15,25.63s-20.07-5.92-19.89-9.5S2894.59,669.29,2894.59,669.29Z" transform="translate(-2106.4 -356.49)"/><path class="cls-9" d="M2718.06,618.94c1.26-4.61,2.2-7.17,5.37-9.41,4.61-3.25,10.09-2.37,14.17-1.65a15.71,15.71,0,0,0,7.76-1c7.23-4.82,25.37-14.75,34.41-19.2,6.16,3.57,13.74,10.65,17.3,24.45-13.9,6.13-44.34,6-50.14,4.69,0,0-5.36,3.9-9.44,4.26a14.33,14.33,0,0,1-5.32-.93,7.23,7.23,0,0,0-8,2.55,6,6,0,0,1-5.18,2.45C2717.32,625.12,2717.27,621.84,2718.06,618.94Z" transform="translate(-2106.4 -356.49)"/><path class="cls-6" d="M2701.12,894.79H2605c-1.64,0-5.32-1.33-5.32-3s12.36-3,14-3h81.47v-252a18.68,18.68,0,0,1,18.66-18.66h20.83a3,3,0,1,1,0,6h-20.83a12.72,12.72,0,0,0-12.71,12.71Z" transform="translate(-2106.4 -356.49)"/><path class="cls-6" d="M2617.78,894.79h-69.72a3,3,0,0,1,0-5.95h63.77v-252a18.68,18.68,0,0,1,18.66-18.66h20.83a3,3,0,0,1,0,6h-20.83a12.72,12.72,0,0,0-12.71,12.71Z" transform="translate(-2106.4 -356.49)"/><path class="cls-6" d="M2696.23,662.09h-79.51a3,3,0,0,1,0-6h79.51a3,3,0,0,1,0,6Z" transform="translate(-2106.4 -356.49)"/><path class="cls-12" d="M2739.55,626.11h-25.72a5,5,0,0,1,0-9.92h25.72a5,5,0,1,1,0,9.92Z" transform="translate(-2106.4 -356.49)"/><path class="cls-6" d="M2713.83,618.17a18.69,18.69,0,0,0-18.46,15.94h6.05a12.74,12.74,0,0,1,12.41-10,3,3,0,1,0,0-6Z" transform="translate(-2106.4 -356.49)"/><path class="cls-12" d="M2656.21,626.11h-25.72a5,5,0,1,1,0-9.92h25.72a5,5,0,1,1,0,9.92Z" transform="translate(-2106.4 -356.49)"/><path class="cls-6" d="M2630.49,618.17A18.69,18.69,0,0,0,2612,634.11h6a12.72,12.72,0,0,1,12.41-10,3,3,0,0,0,0-6Z" transform="translate(-2106.4 -356.49)"/><polygon class="cls-3" points="492.56 444.33 591.62 442.59 591.9 532.35 492.83 532.35 492.56 444.33"/><polygon class="cls-4" points="462.84 444.49 542.15 444.18 542.36 532.4 463.05 532.35 462.84 444.49"/><polygon class="cls-5" points="542.15 444.18 462.84 444.49 462.9 472.29 542.36 532.4 542.15 444.18"/><path class="cls-6" d="M2707.8,842.27h-11.9c-14.14,0-25.6,14-25.6,31.35S2681.76,905,2695.9,905h11.9c14.14,0,25.6-14,25.6-31.36S2721.94,842.27,2707.8,842.27Z" transform="translate(-2106.4 -356.49)"/><ellipse class="cls-12" cx="601.4" cy="517.14" rx="25.6" ry="31.35"/><path class="cls-8" d="M2724,873.62c0,11-7.26,19.85-16.21,19.85s-16.2-8.89-16.2-19.85,7.26-19.84,16.2-19.84S2724,862.66,2724,873.62Z" transform="translate(-2106.4 -356.49)"/><polygon class="cls-3" points="510.36 343.72 624.36 343.37 624.04 443.92 510.67 444.27 510.36 343.72"/><polygon class="cls-4" points="476.34 343.89 567.11 343.54 567.35 444.1 476.59 444.44 476.34 343.89"/><polygon class="cls-5" points="567.11 343.54 476.34 343.89 476.42 376.04 567.35 444.1 567.11 343.54"/><path class="cls-9" d="M2746.93,616.79s-9.65,6.57-12.2,5,1.78-5.29-2.32-6.61S2746.93,616.79,2746.93,616.79Z" transform="translate(-2106.4 -356.49)"/><rect class="cls-2" y="548.07" width="1043.69" height="2.77" rx="1.38"/></svg>